<svg width="181" height="86" viewBox="0 0 181 86" fill="none" xmlns="http://www.w3.org/2000/svg">
<path d="M71.2533 23.1069C69.5029 23.1069 67.8242 23.8023 66.5864 25.04C65.3487 26.2778 64.6533 27.9565 64.6533 29.7069V42.9069C64.6533 44.6574 65.3487 46.3361 66.5864 47.5738C67.8242 48.8116 69.5029 49.5069 71.2533 49.5069V29.7069H104.253C104.253 27.9565 103.558 26.2778 102.32 25.04C101.082 23.8023 99.4037 23.1069 97.6533 23.1069H71.2533ZM77.8533 42.9069C77.8533 41.1565 78.5487 39.4778 79.7864 38.24C81.0242 37.0023 82.7029 36.3069 84.4533 36.3069H110.853C112.604 36.3069 114.282 37.0023 115.52 38.24C116.758 39.4778 117.453 41.1565 117.453 42.9069V56.1069C117.453 57.8574 116.758 59.5361 115.52 60.7738C114.282 62.0116 112.604 62.7069 110.853 62.7069H84.4533C82.7029 62.7069 81.0242 62.0116 79.7864 60.7738C78.5487 59.5361 77.8533 57.8574 77.8533 56.1069V42.9069ZM97.6533 56.1069C99.4037 56.1069 101.082 55.4116 102.32 54.1738C103.558 52.9361 104.253 51.2574 104.253 49.5069C104.253 47.7565 103.558 46.0778 102.32 44.84C101.082 43.6023 99.4037 42.9069 97.6533 42.9069C95.9029 42.9069 94.2242 43.6023 92.9864 44.84C91.7487 46.0778 91.0533 47.7565 91.0533 49.5069C91.0533 51.2574 91.7487 52.9361 92.9864 54.1738C94.2242 55.4116 95.9029 56.1069 97.6533 56.1069Z" fill="#0D9A1B"/>
</svg>
