<svg width="181" height="86" viewBox="0 0 181 86" fill="none" xmlns="http://www.w3.org/2000/svg">
<path fill-rule="evenodd" clip-rule="evenodd" d="M116.183 37.0396C102.006 22.8628 79.0252 22.8628 64.8484 37.0396C64.226 37.6408 63.3924 37.9734 62.5272 37.9659C61.6619 37.9583 60.8343 37.6113 60.2224 36.9994C59.6106 36.3876 59.2635 35.5599 59.256 34.6947C59.2485 33.8294 59.5811 32.9958 60.1822 32.3734C76.933 15.6193 104.099 15.6193 120.849 32.3734C121.451 32.9958 121.783 33.8294 121.776 34.6947C121.768 35.5599 121.421 36.3876 120.809 36.9994C120.197 37.6113 119.37 37.9583 118.504 37.9659C117.639 37.9734 116.806 37.6408 116.183 37.0396ZM106.851 46.372C104.706 44.2268 102.159 42.525 99.3563 41.364C96.5536 40.203 93.5495 39.6054 90.5158 39.6054C87.4821 39.6054 84.4781 40.203 81.6753 41.364C78.8725 42.525 76.3259 44.2268 74.1808 46.372C73.5584 46.9732 72.7248 47.3058 71.8596 47.2983C70.9943 47.2907 70.1667 46.9437 69.5548 46.3318C68.943 45.72 68.5959 44.8923 68.5884 44.0271C68.5809 43.1618 68.9135 42.3282 69.5146 41.7058C72.2725 38.9479 75.5466 36.7602 79.15 35.2676C82.7534 33.775 86.6155 33.0068 90.5158 33.0068C94.4161 33.0068 98.2782 33.775 101.882 35.2676C105.485 36.7602 108.759 38.9479 111.517 41.7058C112.118 42.3282 112.451 43.1618 112.443 44.0271C112.436 44.8923 112.089 45.72 111.477 46.3318C110.865 46.9437 110.037 47.2907 109.172 47.2983C108.307 47.3058 107.473 46.9732 106.851 46.372ZM97.5118 55.711C95.6553 53.8551 93.1376 52.8125 90.5125 52.8125C87.8874 52.8125 85.3697 53.8551 83.5132 55.711C82.894 56.3303 82.0542 56.6781 81.1785 56.6781C80.3028 56.6781 79.4629 56.3303 78.8437 55.711C78.2245 55.0918 77.8766 54.252 77.8766 53.3763C77.8766 52.5006 78.2245 51.6608 78.8437 51.0415C80.3759 49.5089 82.1951 48.2931 84.1972 47.4637C86.1994 46.6342 88.3453 46.2073 90.5125 46.2073C92.6797 46.2073 94.8256 46.6342 96.8278 47.4637C98.8299 48.2931 100.649 49.5089 102.181 51.0415C102.801 51.6608 103.148 52.5006 103.148 53.3763C103.148 54.252 102.801 55.0918 102.181 55.711C101.562 56.3303 100.722 56.6781 99.8466 56.6781C98.9709 56.6781 98.131 56.3303 97.5118 55.711ZM87.2158 62.707C87.2158 61.8318 87.5635 60.9925 88.1824 60.3736C88.8012 59.7547 89.6406 59.407 90.5158 59.407H90.5488C91.424 59.407 92.2634 59.7547 92.8823 60.3736C93.5011 60.9925 93.8488 61.8318 93.8488 62.707C93.8488 63.5823 93.5011 64.4216 92.8823 65.0405C92.2634 65.6594 91.424 66.007 90.5488 66.007H90.5158C89.6406 66.007 88.8012 65.6594 88.1824 65.0405C87.5635 64.4216 87.2158 63.5823 87.2158 62.707Z" fill="#003380"/>
</svg>
