<svg width="180" height="86" viewBox="0 0 180 86" fill="none" xmlns="http://www.w3.org/2000/svg">
<path d="M114.408 37.8332L110.646 26.5472C110.1 24.9041 109.051 23.4747 107.646 22.4621C106.242 21.4496 104.554 20.9054 102.822 20.907H77.7479C76.0165 20.9054 74.3286 21.4496 72.9241 22.4621C71.5196 23.4747 70.4699 24.9041 69.9242 26.5472L66.1622 37.8332C65.1618 38.2518 64.3074 38.9568 63.7066 39.8596C63.1057 40.7623 62.7852 41.8226 62.7852 42.907V56.657C62.7852 58.6865 63.8962 60.441 65.5352 61.3952V67.657C65.5352 68.3863 65.8249 69.0858 66.3406 69.6015C66.8563 70.1173 67.5558 70.407 68.2852 70.407H71.0352C71.7645 70.407 72.464 70.1173 72.9797 69.6015C73.4954 69.0858 73.7852 68.3863 73.7852 67.657V62.157H106.785V67.657C106.785 68.3863 107.075 69.0858 107.591 69.6015C108.106 70.1173 108.806 70.407 109.535 70.407H112.285C113.015 70.407 113.714 70.1173 114.23 69.6015C114.745 69.0858 115.035 68.3863 115.035 67.657V61.3952C115.869 60.9168 116.563 60.2268 117.046 59.395C117.529 58.5632 117.784 57.6188 117.785 56.657V42.907C117.785 41.8226 117.465 40.7623 116.864 39.8596C116.263 38.9568 115.409 38.2518 114.408 37.8332ZM77.7479 26.407H102.82C104.005 26.407 105.055 27.1605 105.429 28.288L108.471 37.407H72.0994L75.1382 28.288C75.3206 27.7402 75.6709 27.2637 76.1393 26.9261C76.6077 26.5885 77.1705 26.4068 77.7479 26.407ZM72.4102 53.907C71.8683 53.9068 71.3317 53.7999 70.8312 53.5924C70.3306 53.3848 69.8758 53.0807 69.4928 52.6974C69.1097 52.3141 68.8059 51.8591 68.5987 51.3584C68.3915 50.8577 68.285 50.3211 68.2852 49.7792C68.2853 49.2374 68.3922 48.7008 68.5998 48.2002C68.8073 47.6997 69.1114 47.2449 69.4947 46.8618C69.878 46.4788 70.333 46.175 70.8337 45.9678C71.3344 45.7606 71.871 45.6541 72.4129 45.6542C73.5073 45.6546 74.5567 46.0897 75.3303 46.8638C76.1039 47.6379 76.5383 48.6876 76.5379 49.782C76.5375 50.8764 76.1024 51.9258 75.3283 52.6994C74.5542 53.473 73.5045 53.9074 72.4102 53.907ZM108.16 53.907C107.618 53.9068 107.082 53.7999 106.581 53.5924C106.081 53.3848 105.626 53.0807 105.243 52.6974C104.86 52.3141 104.556 51.8591 104.349 51.3584C104.142 50.8577 104.035 50.3211 104.035 49.7792C104.035 49.2374 104.142 48.7008 104.35 48.2002C104.557 47.6997 104.861 47.2449 105.245 46.8618C105.628 46.4788 106.083 46.175 106.584 45.9678C107.084 45.7606 107.621 45.6541 108.163 45.6542C109.257 45.6546 110.307 46.0897 111.08 46.8638C111.854 47.6379 112.288 48.6876 112.288 49.782C112.288 50.8764 111.852 51.9258 111.078 52.6994C110.304 53.473 109.255 53.9074 108.16 53.907Z" fill="#C42F00"/>
</svg>
