<svg width="181" height="86" viewBox="0 0 181 86" fill="none" xmlns="http://www.w3.org/2000/svg">
<path d="M92.8488 17.474C92.23 16.8554 91.3907 16.5078 90.5157 16.5078C89.6407 16.5078 88.8014 16.8554 88.1826 17.474L65.0826 40.574C64.4815 41.1964 64.1489 42.03 64.1564 42.8952C64.1639 43.7605 64.511 44.5882 65.1228 45.2C65.7346 45.8119 66.5623 46.1589 67.4276 46.1664C68.2928 46.174 69.1264 45.8413 69.7488 45.2402L70.7157 44.2733V66.0071C70.7157 66.8823 71.0634 67.7217 71.6822 68.3406C72.3011 68.9594 73.1405 69.3071 74.0157 69.3071H80.6157C81.4909 69.3071 82.3303 68.9594 82.9492 68.3406C83.568 67.7217 83.9157 66.8823 83.9157 66.0071V59.4071C83.9157 58.5319 84.2634 57.6925 84.8822 57.0737C85.5011 56.4548 86.3405 56.1071 87.2157 56.1071H93.8157C94.6909 56.1071 95.5303 56.4548 96.1492 57.0737C96.768 57.6925 97.1157 58.5319 97.1157 59.4071V66.0071C97.1157 66.8823 97.4634 67.7217 98.0822 68.3406C98.7011 68.9594 99.5405 69.3071 100.416 69.3071H107.016C107.891 69.3071 108.73 68.9594 109.349 68.3406C109.968 67.7217 110.316 66.8823 110.316 66.0071V44.2733L111.283 45.2402C111.905 45.8413 112.739 46.174 113.604 46.1664C114.469 46.1589 115.297 45.8119 115.909 45.2C116.52 44.5882 116.868 43.7605 116.875 42.8952C116.883 42.03 116.55 41.1964 115.949 40.574L92.8488 17.474Z" fill="#C32F00"/>
</svg>
