<svg width="181" height="86" viewBox="0 0 181 86" fill="none" xmlns="http://www.w3.org/2000/svg">
<path d="M72.6891 45.657C75.9616 45.657 76.5941 48.407 81.8466 48.407C87.2091 48.407 87.5941 45.657 91.0041 45.657C94.2766 45.657 94.9091 48.407 100.162 48.407C105.524 48.407 105.909 45.657 109.319 45.657C111.877 45.657 112.207 46.8945 114.847 47.8295C116.579 48.4345 118.422 47.1695 118.422 45.327C118.422 43.897 117.789 43.0445 116.662 42.6595C115.012 42.0545 113.499 40.1845 109.264 40.1845C103.902 40.1845 103.517 42.9345 100.107 42.9345C96.8341 42.9345 96.2016 40.1845 90.9491 40.1845C85.5866 40.1845 85.2016 42.9345 81.7916 42.9345C78.5191 42.9345 77.8866 40.1845 72.6341 40.1845C68.3991 40.1845 66.7766 42.137 65.2641 42.687C64.1366 43.0445 63.4766 43.8695 63.4766 45.3545C63.4766 47.197 65.2916 48.462 67.0241 47.857C69.9391 46.867 70.0491 45.657 72.6891 45.657ZM109.319 51.157C103.957 51.157 103.572 53.907 100.162 53.907C96.8891 53.907 96.2566 51.157 91.0041 51.157C85.6416 51.157 85.2291 53.907 81.8191 53.907C78.4091 53.907 78.0241 51.157 72.6616 51.157C68.4541 51.157 66.7491 53.1095 65.2641 53.6595C64.1366 54.0445 63.4766 54.897 63.4766 56.3545C63.4766 58.197 65.2916 59.462 67.0516 58.857C69.8566 57.867 70.0216 56.657 72.6616 56.657C76.0716 56.657 76.4566 59.407 81.8191 59.407C87.1816 59.407 87.5941 56.657 91.0041 56.657C94.2766 56.657 94.9091 59.407 100.162 59.407C105.497 59.407 105.909 56.657 109.319 56.657C111.904 56.657 112.234 57.922 114.902 58.857C116.634 59.462 118.477 58.197 118.477 56.3545C118.477 54.897 117.817 54.072 116.689 53.6595C115.232 53.137 113.554 51.157 109.319 51.157ZM72.6891 34.657C75.9616 34.657 76.5941 37.407 81.8466 37.407C87.2091 37.407 87.5941 34.657 91.0041 34.657C94.2766 34.657 94.9091 37.407 100.162 37.407C105.524 37.407 105.909 34.657 109.319 34.657C111.877 34.657 112.207 35.8945 114.847 36.8295C116.579 37.4345 118.422 36.1695 118.422 34.327C118.422 32.897 117.789 32.0445 116.662 31.6595C115.012 31.027 113.499 29.157 109.264 29.157C103.902 29.157 103.517 31.907 100.107 31.907C96.8341 31.907 96.2016 29.157 90.9491 29.157C85.5866 29.157 85.2016 31.907 81.7916 31.907C78.5191 31.907 77.8866 29.157 72.6341 29.157C68.3991 29.157 66.7766 31.1095 65.2641 31.6595C64.1366 32.0445 63.4766 32.8695 63.4766 34.3545C63.4766 36.197 65.2916 37.462 67.0241 36.857C69.9391 35.867 70.0491 34.657 72.6891 34.657Z" fill="#0F98C4"/>
</svg>
