<svg width="181" height="86" viewBox="0 0 181 86" fill="none" xmlns="http://www.w3.org/2000/svg">
<path d="M95.3436 13.3589C96.0135 13.5695 96.5988 13.9884 97.0142 14.5546C97.4297 15.1208 97.6537 15.8048 97.6536 16.5071V33.0071H110.854C111.457 33.0068 112.049 33.1721 112.566 33.485C113.082 33.7979 113.502 34.2463 113.781 34.7816C114.06 35.3169 114.187 35.9184 114.148 36.5208C114.109 37.1232 113.905 37.7033 113.56 38.198L90.4596 71.198C90.0576 71.7739 89.4823 72.2066 88.8173 72.433C88.1524 72.6594 87.4326 72.6678 86.7626 72.4569C86.0926 72.2459 85.5074 71.8267 85.0921 71.2602C84.6769 70.6937 84.4532 70.0095 84.4536 69.3071V52.8071H71.2536C70.65 52.8073 70.0578 52.642 69.5416 52.3291C69.0254 52.0163 68.6049 51.5678 68.3259 51.0325C68.0469 50.4972 67.92 49.8957 67.9591 49.2933C67.9982 48.691 68.2017 48.1109 68.5476 47.6162L91.6476 14.6162C92.0502 14.0413 92.6257 13.6097 93.2904 13.3842C93.955 13.1587 94.6743 13.151 95.3436 13.3622V13.3589Z" fill="#FF9900"/>
</svg>
