<svg width="181" height="86" viewBox="0 0 181 86" fill="none" xmlns="http://www.w3.org/2000/svg">
<path d="M116.246 18.907H65.2461C64.0526 18.907 62.908 19.3811 62.0641 20.225C61.2202 21.0689 60.7461 22.2135 60.7461 23.407V53.407C60.7461 54.6005 61.2202 55.745 62.0641 56.589C62.908 57.4329 64.0526 57.907 65.2461 57.907H87.7461V60.907H71.2461C70.8483 60.907 70.4667 61.065 70.1854 61.3463C69.9041 61.6276 69.7461 62.0092 69.7461 62.407V65.407C69.7461 65.8048 69.9041 66.1863 70.1854 66.4676C70.4667 66.7489 70.8483 66.907 71.2461 66.907H110.246C110.644 66.907 111.025 66.7489 111.307 66.4676C111.588 66.1863 111.746 65.8048 111.746 65.407V62.407C111.746 62.0092 111.588 61.6276 111.307 61.3463C111.025 61.065 110.644 60.907 110.246 60.907H93.7461V57.907H116.246C117.44 57.907 118.584 57.4329 119.428 56.589C120.272 55.745 120.746 54.6005 120.746 53.407V23.407C120.746 22.2135 120.272 21.0689 119.428 20.225C118.584 19.3811 117.44 18.907 116.246 18.907ZM114.746 51.907H66.7461V24.907H114.746V51.907Z" fill="#3E5B86"/>
</svg>
