<?xml version="1.0" encoding="utf-8"?>
<!-- Generator: Adobe Illustrator 22.1.0, SVG Export Plug-In . SVG Version: 6.00 Build 0)  -->
<svg version="1.1" id="Layer_1" xmlns="http://www.w3.org/2000/svg" xmlns:xlink="http://www.w3.org/1999/xlink" x="0px" y="0px"
	 viewBox="0 0 1366 768" style="enable-background:new 0 0 1366 768;" xml:space="preserve">
<style type="text/css">
	.st0{fill:#141F48;}
	.st1{opacity:0.2;}
	.st2{opacity:0.72;}
	.st3{fill:#2CA7DF;}
	.st4{fill:#F9B092;}
	.st5{fill:#EC6650;}
	.st6{fill:#55251D;}
	.st7{fill:#EBE7F3;}
	.st8{fill:#713737;}
	.st9{fill:#1E2027;}
	.st10{fill:#574A9E;}
	.st11{fill:#0E2237;}
	.st12{fill:#2D2044;}
	.st13{fill:#585B93;}
	.st14{fill:#E28675;}
	.st15{fill:#F1E0D3;}
	.st16{fill:#EB8772;}
	.st17{fill:#F4E3D5;}
	.st18{fill:#C2A992;}
	.st19{fill:#1F2144;}
	.st20{fill:#5D3342;}
	.st21{fill:#E6F4F4;}
	.st22{fill:#545B95;}
	.st23{fill:#CD6C5A;}
	.st24{fill:#ED8351;}
	.st25{fill:#FFFFFF;}
	
		.st26{fill:none;stroke:#2CA7DF;stroke-width:2;stroke-linecap:round;stroke-linejoin:round;stroke-miterlimit:10;stroke-dasharray:5,5;}
	.st27{fill:none;stroke:#2CA7DF;stroke-width:2;stroke-linecap:round;stroke-linejoin:round;}
	.st28{fill:none;stroke:#2CA7DF;stroke-width:2;stroke-linecap:round;stroke-linejoin:round;stroke-dasharray:5.0603,5.0603;}
</style>
<g>
	<g>
		<path class="st4" d="M1015.8,503.9c0.1-1.8-5.5-1.2-5.7-0.5l-3.9,12.4c-1-4.9-2.5-9.6-4.3-14.3c-0.7-1.7-3.6-1.7-3.4,0.5l0.2,2
			c-1-0.8-2.7-0.2-2.8,1.4c-0.1,1.2-0.1,2.5-0.2,3.7c-0.2,0.2-0.4,0.5-0.4,0.8c-0.8,0.1-1.6,0.6-1.6,1.7
			c-0.1,3.9,5.9,28.7,11.5,28.8c3.1,0.1,5.2-0.9,7-8.4C1014,523.7,1015.8,504.6,1015.8,503.9z"/>
		<path class="st4" d="M950.4,507.7c-1,0.3-1.8,1.1-2.6,2.2c0.1-0.3,0.1-0.5,0.2-0.8c0.3-1.6-1.3-2.8-2.5-1.8c-0.3-1-1.5-1.5-2.3-1
			c-0.6-1.1-2.1-1.5-2.7-0.1c-3,6.6-5.4,13.4-7,20.6c-0.8,3.6-2.9,11.3,2.2,12.8c4.7,1.4,8.1-6.5,9.8-9.8c3.2-6.2,5.5-12.9,6.9-19.8
			C952.7,508.6,951.7,507.3,950.4,507.7z"/>
		<path class="st5" d="M953.6,542.9c-2.7-7.3-4.5-3.9-7.7-11c-1.6-3.5-4.8-7.1-9-4.9c-0.2,0.1,0.9-1.8,0.7-1.6
			c-0.7-0.8-3.6,2.7-4.4,3.8c-8.3,11.3-8.9,24.2-4.5,37.2c2.1,6.3,5.2,12.5,9.8,17.4c3.3,3.5,8.6,7.3,13.7,5
			c4.7-2.1,6.1-8.7,6.5-13.2C959.2,568,956.2,549.8,953.6,542.9z"/>
		<path class="st4" d="M968.4,653.4c0-1,12.5-5.7,11.8,5.8c-0.3,6.2-3.4,21.1-3.5,27.2c0,0.8-1.1,4.7-2.7,4.2
			c-2.6-0.8-4.1-0.4-4.5-2.7C968.7,682.6,968.5,658.8,968.4,653.4z"/>
		<path class="st6" d="M970.6,688.8c1,0.2,2,0,3-0.3c0.9-0.3,1.9-1.1,2.9-1.4c1.6,1.5,10.1,5.8,11.9,6.6c1.6,0.8,3.8,1.7,2.8,4.2
			c-0.5,1.2-1.9,1.6-3.5,1.7c-3.6,0.1-7-0.3-10.3-0.5c-2.5-0.2-5.6,0-7.2-2c-1.5-1.9-1.2-5.5-1.2-8.8
			C969.5,688.5,970.1,688.7,970.6,688.8z"/>
		<path class="st4" d="M939.3,649.1c0.5-0.8,14,5.4,13.1,6.5c-3.9,4.8-17.8,20.1-21,25.3c-0.4,0.7-3.4,3.5-4.5,2.3
			c-1.9-2-3.4-2.4-2.5-4.6C926.6,673.5,936.7,653.8,939.3,649.1z"/>
		<path class="st4" d="M994.1,452.7c-0.4-4.1-1.5-9.8-5.1-12.3c-3.5-2.4-9.6-1.7-12.7,1c-3.1,2.7-4.4,7.3-4.6,11.4c0,0,0,0,0,0.1
			c-1.4,0.2-2.3,1.7-2.3,3.1c0,2,2.4,4.6,3.9,5.6c0.9,2.9,1.8,4,4.2,6c2.9,2.3,10.1,3.5,13.3,0.2
			C994.1,464.2,994.6,457.3,994.1,452.7z"/>
		<polygon class="st4" points="980.1,479 967.4,478 971.9,451.1 984.6,453.2 		"/>
		<path class="st7" d="M997.2,487.1c-3.4-8-10.6-8.2-19.5-9.2c-4-0.4-14.7-1.1-19.5-0.4c-2.9,0.4-6.5,2.6-8.1,5.1
			c-4.5,6.9-12.1,17.3-12.1,25.5c0,2.9,7.2,0.6,10.4,8.1c1.3,3,4.8,19.2,8.4,17.8c5.7,0.9,32.8,2,33.1,1c2.4,1.1,5.2-5.1,6.6-19.2
			c0.7-6.4,7.9-4.4,8.1-9.6C1004.7,501.3,997.6,488.1,997.2,487.1z"/>
		<path class="st5" d="M954.5,477.9C954.5,478,954.5,477.9,954.5,477.9c-12.3,21.9-19.4,46.1-21,71.1c-0.1,2.2,3.3,2.3,3.5,0.1
			c1.6-25.1,8.9-49.4,21.5-71.2c0.1-0.1,0.7-1.1,0.7-1.1s-1-0.3-2.2-0.1C955.9,477,954.7,477.6,954.5,477.9z"/>
		<path class="st8" d="M991.8,471c-3-1-2.9-4.9-2.5-7.1c0.4-2.4,1.5-4.6,0-6.7c-0.9-1.3-2.1-2.7-2.2-4.3c-0.2-2,2-4.1,3.1-5.7
			c0.3-0.4,2.6-2.8,1.8-5.3c-1-3-4-4.5-5.6-5.1c-3.9-1.6-20.9-3.4-22.9,12.9c-0.5,4-7.4,3.4-8.3,8.1c-0.5,2.7,1,4.7,1.5,7.3
			c0.8,3.9-2.4,5.2-2.1,8.4c0.4,4.5,7.3,6.8,10.9,7.7c19,4.9,28.2-2.8,29.2-4.6C995.4,475,995,472,991.8,471z"/>
		<path class="st4" d="M1018.6,496.5c-0.2-1.3-0.5-3.6-2-3.9c-0.3,0-0.5,0-0.7,0.2c0,0-0.1,0-0.1,0c-0.1-0.1-0.1-0.2-0.2-0.3
			c-0.2-0.5-0.9-0.7-1.3-0.4c-0.4-0.1-1,0-1.1,0.6c-0.1,0.8-0.2,1.6-0.3,2.4c-0.1,0.4-0.2,0.7-0.3,1.1c-0.9,0.3-2.3,2.8-3,3.9
			c-0.9,1.7-1.5,3.6-0.2,5.4c0.4,0.5,0.5,0.2,0.9-0.2c0.2-0.2,0.3-0.4,0.5-0.6c0.2,0.1,0.5,0.2,0.7,0.1c0.5-0.1,0.9-0.4,1.2-0.8
			c0.2,0.3,0.5,0.5,0.9,0.5c0,0,0,0,0,0c-0.5,0.3-0.9,0.6-1.4,0.9c-0.9,0.7,3.4-0.1,3.4-0.1s0.9-1.2,2.2-2.6
			C1018.9,501.6,1018.8,497.5,1018.6,496.5z"/>
		<path class="st9" d="M1019.4,492.1c0.4-1.1-6.9-2.9-7.1-2.5c-1.4,2.8-4.7,9.7-5.7,12.3c-0.3,0.8,6.5,3.3,6.9,2.6
			C1014.3,503.2,1019.1,493,1019.4,492.1z"/>
		<path class="st4" d="M1016.8,497.5c-0.9-0.2-2.9,0-2.9,0c-1.3,0.2-1.6,0.3-1.6,1.3c0,0.4,0.3,0.7,0.6,0.8c0.9,0.3,2,0.4,3,0.3
			c-0.1,0.3-0.1,0.6-0.2,0.8c-0.1,0.3-0.5,1.4-0.8,1.7c-0.4,0.2-0.7,0.6-0.5,1c0,0,0,0,0,0.1c0.2,0.5,0.8,0.9,1.3,0.5
			c0.7-0.5,1-1.4,1.4-2.2c0.4-0.9,1-2.9,1-3.9C1018.1,497.3,1016.9,497.5,1016.8,497.5z"/>
		<path class="st10" d="M1001.4,583.9c-2.1-11.5-7.2-29.1-11.8-39.9c0,0,0.8-10.6,0.3-10.9c-1.5-0.8-5.8-0.7-7.5-0.8
			c-3.1-0.1-6.2-0.2-9.3-0.3c-2.8-0.1-5.7-0.2-8.5-0.2c-2,0-6.9-0.7-8.9,0c-1,0.3,0,7.3-1.7,10.2c-2.2,2.1-6.6,9.9-7.6,20.3
			c-0.9,9.9,0.1,19.9-1.3,29.8c-1.5,10.3-8.2,17.6-12,26.9c-3.5,8.4-7.6,13.1-8.4,26c-0.2,2.9-0.8,5.9,1.7,8
			c0.8,0.7,21.8,5.9,36,8.9c9,1.9,20.3,1.6,21.8,1.2c8.6-1.7,19.3-3.9,21.9-13.9C1009.2,636.7,1003.6,595.7,1001.4,583.9z"/>
		<path class="st6" d="M927.5,675.4c0.7,0.8,1.6,1.2,2.6,1.5c0.9,0.3,2.2,0.2,3.2,0.6c0.4,2.2,4.7,10.6,5.7,12.4
			c0.9,1.6,2.1,3.6-0.2,5c-1.1,0.7-2.5,0.2-3.8-0.7c-3-2.1-5.5-4.4-8-6.5c-1.9-1.6-4.5-3.3-4.7-5.8c-0.1-2.5,2.3-5.2,4.2-7.8
			C926.8,674.5,927.2,675,927.5,675.4z"/>
	</g>
</g>
<g>
	<path class="st11" d="M1106.2,441.4c0.1-1.9,0.7-4.6,2.2-6.2c1.7-1.9,4.6-0.8,6.5-0.5c8.4,1.5,16.8,2.8,25.1,4.4
		c3.8,0.7,7.3,1.9,10,4.6c2.4,2.4,3.9,5.5,4.5,8.9c0,0.1,0,0.2,0.1,0.3c0,0,0,0,0,0c0,0.1,0.1,0.2,0.1,0.2c-0.6,0.3-1.6,0.6-2,0.7
		c-0.5,0.2-1,0.3-1.5,0.4c-1.2,0.3-2.5,0.4-3.7,0.4c-2.2,0.1-4.5,0.1-6.7,0.3c-4.5,0.5-9,1.5-13.5,3.1c-3.9,1.3-8.1,3-11.9,1.8
		c-2-0.6-3.5-1.9-4.1-3.9c-0.4-1.5-0.4-3.1-1.1-4.5c-0.7-1.5-1.9-2.7-2.7-4.2C1106.5,445.6,1106.1,443.5,1106.2,441.4z"/>
	<path class="st12" d="M1176.3,689.8c0.4,2.4,3.4,12.3,4.1,14.7c0.1,0.3,0.2,0.5,0.3,0.8c0.2,0.5,0.3,1,0.5,1.6
		c0.7,2.5,1.3,5,1.8,7.6c0,0.2,0.2,0.3,0.4,0.2c1.5-0.2,2.9-0.5,4.3-0.8c0.2,0,0.3-0.2,0.3-0.4c-0.3-2.4-0.6-4.8-0.9-7.2
		c-0.1-1-0.2-2-0.3-3c-0.2-2.3-1.7-12.9-1.8-15.3C1184.8,687.5,1176.3,689.6,1176.3,689.8z"/>
	<path class="st12" d="M1181,718c0.2,0.6,0.6,0.9,1,1c0,0,0.1,0.1,0.2,0.1c0.1,0,0.1,0,0.2,0c0.2,0,0.5,0,0.8,0
		c7.8,0.3,15.7,0.5,23.5,0.6c0.2,0,0.3-0.1,0.4-0.3c0.2-4-4.3-5-7.3-6c-4.5-1.6-10-2.9-12.3-7.5c0-0.1-0.1-0.1-0.1-0.1
		c-0.1-0.1-0.2-0.2-0.3-0.2c-0.3,0-0.6,0.1-0.9,0.1c-1.2,0.1-2.4,0.2-3.5,0.4c-0.7,0.1-1.6,0-2.3,0.3c-0.1,0-0.2,0.1-0.2,0.1
		c-0.5,0.3-0.5,0.4-0.6,0.9c-0.2,1.1,0.3,2.7,0.5,3.7c0.2,1.3,0.4,2.6,0.6,3.9C1180.6,716,1180.7,717.1,1181,718z"/>
	<path class="st12" d="M1076.8,677c-1.2,2.3-5.1,12.4-6,14.8c-0.1,0.3-0.2,0.5-0.3,0.8c-0.2,0.5-0.4,1.1-0.6,1.6
		c-1,2.5-2.2,5-3.4,7.4c-0.1,0.2,0,0.3,0.1,0.4c1.2,0.7,2.5,1.3,3.7,2c0.2,0.1,0.3,0,0.4-0.2c1.2-2.2,2.5-4.4,3.8-6.6
		c0.5-0.9,1.1-1.8,1.6-2.7c1.3-2.1,6.8-11.8,8.1-13.9C1084.5,680.2,1076.8,676.8,1076.8,677z"/>
	<path class="st12" d="M1062.8,703.4c-0.2,0.6-0.1,1.1,0.1,1.5c0,0.1,0,0.1,0.1,0.2c0,0,0.1,0.1,0.1,0.1c0.2,0.2,0.3,0.4,0.6,0.5
		c5.6,5.1,11.3,10.1,17,15c0.1,0.1,0.3,0.1,0.4,0c2.6-3.2-0.1-6.8-1.7-9.5c-2.4-4.1-5.6-8.6-4.5-13.8c0-0.1,0-0.1,0-0.2
		c0-0.1,0-0.2-0.1-0.3c-0.2-0.2-0.5-0.3-0.7-0.5c-1-0.6-1.9-1.3-2.9-1.9c-0.6-0.4-1.2-1-1.9-1.2c-0.1,0-0.2,0-0.2-0.1
		c-0.5-0.1-0.7,0-1,0.4c-0.8,0.8-1.4,2.4-2,3.4c-0.7,1.2-1.4,2.4-2,3.7C1063.8,701.6,1063.1,702.5,1062.8,703.4z"/>
	<path class="st13" d="M1120.7,636.6c-1.7,2.4-3.1,5-4.2,7.8c-1.1,3-1.9,6.1-3,9.1c-2,5.1-4.9,9.9-8.6,14.1
		c-3.8,4.3-8.5,7.6-12.7,11.4c-2.4,2.2-4.4,4.5-6,7.3c-1.3,2.1-2.4,4.5-4.4,6.1c-1.4,1.1-2.7,1.5-4,1.4c-3.2-1.8-6.4-3.7-9.5-5.6
		c1.6-4.7,3.3-9.4,5.7-13.8c3-5.4,7.5-9.7,10-15.4c2.2-4.9,3.7-10.2,6.5-14.9c2.9-5,7.7-8.8,10.4-14c2.8-5.3,3.5-11.3,4-17
		c0.5-6.4,1-12.7,1.6-19.1c0.6-6.5,1.3-13,2.1-19.5c0.4-3.2,0.7-6.3,1.1-9.4c0.3-2.2,0.4-4.6,1.5-6.6c1.3-2.2,3.7-2.8,6-3
		c3.5-0.3,6.9-0.1,10.3,0.1c5.6,0.3,11.2,0.5,16.9,0.8c0.2-1.3,0.4-2.6,0.6-3.8c0.1-0.4,0.7-0.3,0.6,0.2c-0.2,1.2-0.4,2.5-0.6,3.7
		c1.4,0.1,2.8,0.1,4.2,0.2c0.4,0,0.4,0.7,0,0.6c-1.4-0.1-2.8-0.1-4.2-0.2c-1.6,11.8-0.3,23.6-1.3,35.5c-0.5,5.7-1.4,11.4-3.4,16.9
		c-1.9,5.2-4.8,9.9-8.4,14.2C1128.1,627.8,1124,631.9,1120.7,636.6z"/>
	<path class="st13" d="M1137.2,573.6c0.4,1.7,0.9,3.4,1.3,5.1c1.3,5.6,0.7,11.5,1.3,17.2c0.3,2.6,0.8,5.1,1.9,7.4
		c1.1,2.4,2.8,4.5,4.1,6.9c1.4,2.5,2,5.1,2.2,8c0.1,2.5,0,5,0.4,7.4c0.2,1.6,0.7,3.1,1.5,4.4c0.9,3.6,2.7,6.8,4.2,10.1
		c1.1,2.3,2.2,4.7,2.8,7.2c0.7,2.7,0.9,5.4,1,8.2c0.2,5,0.4,9.8,2.2,14.4c2,4.8,4.7,9.2,6.6,14.1c1.9,5,3.2,10.3,4,15.7
		c0,0.1,0.2,0.2,0.3,0.2c6-0.3,11.9-0.6,17.9-0.9c0.2,0,0.4-0.2,0.3-0.4c-1.6-5.5-2.5-11.2-2.7-17c-0.2-5.7,0.8-11.3,1.2-17
		c0.7-9-1.9-17.2-4.7-25.4c-1.5-4.4-3-8.8-4.1-13.3c-1.1-4.8-1.5-9.8-1.6-14.9c-0.1-4.8-0.1-9.6-0.5-14.4c-0.4-5-5.1-31.2-7.8-39.3
		c0.6,0.1-12.5-1.6-15-2.2c-4.9-1.1-9.8-2.6-14.5-4.4c-0.2-0.1-0.4,0.1-0.4,0.3c-0.5,6.2,0.2,12.2,1.4,18c-1.1,0.5-2.5,1.1-3.3,2
		C1136.8,571.8,1137,572.7,1137.2,573.6z"/>
	<path class="st11" d="M1097.1,485c-0.4,6.3-0.3,12.6,1,18.7c1.3,6.2,3.8,12.1,4.1,18.5c0.3,5.4-0.9,10.8-0.8,16.1
		c0,2.3,0.3,4.6,1.1,6.7c0.8,2.3,2.3,4.1,3.9,5.9c0.9,1,1.8,2.1,2.4,3.3c0.6,1.3,0.6,2.7,0.7,4.2c0.1,2,0.8,3.5,2.7,4.3
		c2.3,1,5.3,1,7.8,0.9c2.1-0.1,42.2,0.3,53.4,0.7c0.2,0,0.3-0.2,0.3-0.3c-0.3-5.5-0.6-11.2,1.5-16.5c1-2.4,2.5-4.7,3-7.2
		c0.4-2.4,0.1-4.9-0.4-7.3c-0.9-4.6-2.8-8.8-3.8-13.3c-1.2-4.9-1.3-10-1-15c0.4-9.1,1.3-18.2-0.8-26.9c-1.7-7.3-5.8-19.7-15.1-25.6
		c-15-9.6-42.7-10.4-52.2-1C1096.4,459.5,1097.8,473.9,1097.1,485z"/>
	<path class="st11" d="M1153.8,474.3c-0.7,13.8,3.2,26.9,5.6,40.2c1.2,6.6,1.5,13.3,2.3,20c0.6,4.6,1.7,11.4,6.1,13.8l0,0
		c-0.4,0.2-0.1,0.8,0.3,0.6c0.1-0.1,0.3-0.2,0.4-0.2c0,0,0,0,0,0c0.2,0.1,0.4-0.1,0.4-0.3c6.5-3.5,15.1-2.6,20.3-8.6
		c5.2-6,5.8-15.3,5.2-22.4c-0.8-8.5-3.8-16.4-7.6-23.8c-3.8-7.5-8.2-14.7-12.7-21.7c-4.2-6.5-8.6-12.6-14.2-17.9
		c-0.4-0.4-0.8-0.7-0.9-0.7C1158.6,452.8,1154.1,467.3,1153.8,474.3z"/>
	<path class="st11" d="M1082,525.6c2.8,3,6.5,5,10.1,7.1c4.2,2.4,8.5,4.7,12.9,6.9c4.1,2,8.2,3.9,12.3,5.7c0.4,0.2,1.8,1,2.8,1.1
		c-0.1,0.2-0.2,0.4-0.3,0.6c-0.2,0.4,0.4,0.5,0.6,0.2c1.4-3,1.2-6.1,0.6-9.2c-0.7-3.6-1.5-7.1-1.9-10.8c-0.7-7.1,0-14.2,0.2-21.3
		c0.1-6.4-0.5-12.8-1.6-19c-2.2-12.6-6.5-24.6-11-36.4c0.1-0.1,0.2-0.2,0.3-0.3c0.3-0.3-0.1-0.7-0.4-0.5
		c-8.2,6.4-13.9,14.6-18.3,23.8c-4.3,8.9-8.5,18-10.3,27.6C1076.5,509.3,1076.4,519.4,1082,525.6z"/>
	<path class="st13" d="M1134.9,515.6c-0.2,0-0.4-0.1-0.3-0.4c0.7-1.6,3.6-0.9,4.8-0.9c3.1,0,6.3,0,9.4,0.1c6.1,0,12.2,0.1,18.3,0.1
		c0.1-0.2,0.4-0.3,0.6,0c0,0,0,0,0,0.1c0.2,0.1,0.2,0.2,0.2,0.4c2.1,4.6,3.5,9.5,4,14.6c0.3,2.5,0.4,5,0.2,7.6
		c-0.1,2.3-0.2,4.9-1.3,7.1c-0.2,0.4-0.7,0-0.5-0.3c1.2-2.3,1.2-5.4,1.2-7.9c0.1-2.5-0.1-5-0.4-7.4c-0.6-4.7-1.9-9.2-3.9-13.4
		c-5.3,0-10.7-0.1-16-0.1c-2.7,0-5.4,0-8.2-0.1c-1.3,0-2.5,0-3.8,0c-0.7,0-3.2-0.4-3.9,0.2c0,0,0,0,0,0.1c1.5,4.2,2.3,8.7,2.3,13.3
		c0,4.3-0.3,9.6-2.5,13.5c-0.2,0.4-0.7,0-0.5-0.3c2.2-3.8,2.4-9,2.4-13.2C1137.1,524.1,1136.4,519.7,1134.9,515.6z"/>
	<path class="st14" d="M1118.6,417.8c0.1,1.6,0.3,3.1,0.6,4.6c0.3,1.3,0.6,2.5,1,3.8c0.3,1,0.7,2,1,3c0.2,0.5,0.4,1,0.5,1.5
		c0.2,0.5,0.4,1,0.6,1.4c0.6,1.2,1.3,2.3,2.4,3.1c1.3,0.9,3.8-0.9,5.1,0.1c5.6,4.4,10.2,4.8,11.6,4.4c2.8-0.8,4.1-3.2,5.5-6.9
		c1.6-4.1,1.6-8.2,1.2-12.4c0,0-1.3-17-2.8-18.1c-3.4-2.5-11.2-3.7-15.1-1.9c-3.7,1.7-7.4,3.8-9.5,7.5
		C1119.1,411.1,1118.5,414.5,1118.6,417.8z"/>
	<path class="st14" d="M1127.8,457c0,0.1,0.1,0.1,0.2,0.1c0,0,0.1,0,0.2,0c1.3-0.2,2.6-0.5,3.9-0.7c2.8-0.5,5.7-1,8.5-1.5
		c0.2,0,0.4-0.2,0.4-0.4c0-0.5,0-1,0-1.5c0-0.2,0-0.4,0-0.7c0-1-0.1-2-0.1-3c0-1.1-0.1-2.2-0.2-3.4c-0.1-1.2-0.1-2.3-0.2-3.5
		c0-0.3,0-0.5,0-0.8c-0.3-4.5-0.8-9-1.4-13.5c0.2-0.4,0.3-0.9,0.5-1.3c0.6,0.1,1.1,0.2,1.6,0.4c0.5,0.1,0.7-0.6,0.2-0.7
		c-0.5-0.1-1.1-0.2-1.6-0.3c0-0.1,0.1-0.2,0.1-0.3c0.2-0.4-0.5-0.6-0.7-0.1c0,0.1-0.1,0.2-0.1,0.2c-0.2-0.1-0.5-0.1-0.7-0.2l0,0
		c-0.6-0.1-1.2-0.3-1.7-0.4c-2.8-0.6-5.5-1.2-8.3-1.8c-0.7-0.1-1.4-0.3-2.1-0.4c-1.4-0.3-3.3-0.6-4.5,0.5c-0.5,0.4-0.6,1.1-0.6,1.8
		c0.1,0.8,0.3,1.6,0.4,2.2c0.5,2.7,1,5.4,1.5,8.2c0.4,2.4,0.9,4.7,1.3,7.1c0.4,1.9,0.7,3.9,1,5.9c0.3,1.4,0.6,2.9,1,4.2l0,0
		c0.2,0.8,0.5,1.6,0.9,2.4C1127.3,456,1127.6,456.5,1127.8,457z"/>
	<path class="st15" d="M1121.1,440.2c0.2,0.5,0.5,0.9,0.8,1.4c-0.8,2-0.8,4.1-0.9,6.2c-0.1,2.8-0.3,5.6-0.1,8.4
		c0.1,2.5,0.4,5,1.2,7.3c0.5,1.5,1.6,2.1,3.2,2.2c2.6,0.2,5.4-0.3,8.1-0.5c0.6-0.1,1.1-0.1,1.7-0.2c0,0.1,0,0.3,0.1,0.4
		c0.1,0.4,0.7,0.2,0.6-0.2c0-0.1,0-0.2-0.1-0.3c1.6-0.2,3.3-0.4,4.9-0.6c0,0.7,0,1.4-0.2,2.1c-0.1,0.4,0.5,0.6,0.6,0.2
		c0.2-0.8,0.3-1.6,0.3-2.4c1.6-0.3,3.4-0.7,4.3-2.3c1-1.7,0.5-3.8,0.2-5.5c-0.7-4.3-1.7-8.5-3.1-12.6c0.3-0.5,0.6-1.1,0.9-1.6
		c0.2-0.4-0.3-0.7-0.5-0.3c-0.2,0.4-0.4,0.8-0.6,1.2c-0.2-0.5-0.3-0.9-0.5-1.4c-0.1-0.4-0.7-0.1-0.6,0.3c0.2,0.6,0.4,1.2,0.6,1.8
		c-1.9,3.4-3.8,6.7-5.4,10.2c-0.2,0.5-0.4,0.9-0.6,1.4c-0.6-0.6-1.3-1.2-1.9-1.8c-3.9-3.8-8.4-7.5-11.4-12.1
		c0.1-0.3,0.3-0.6,0.4-0.9c0.2-0.4-0.3-0.7-0.5-0.3c-0.1,0.2-0.2,0.4-0.3,0.6c-0.2-0.3-0.4-0.6-0.5-1
		C1121.5,439.6,1120.9,439.9,1121.1,440.2z"/>
	<path class="st13" d="M1111.6,536.4c3.8,2.3,8,3.9,12.4,4.9c0.4,0.1,0.2,0.7-0.2,0.6c-4.5-1-8.7-2.6-12.6-5
		C1110.9,536.8,1111.3,536.2,1111.6,536.4z"/>
	<path class="st13" d="M1115.2,449.1c4.8,4.8,9.9,10,16.5,12.2c1.7,0.6,3.5,1,5.3,1.1c2.2,0.1,3.8-1,5.6-2.3c3.3-2.4,6.2-5.2,9-8.2
		c0.3-0.3,0.7,0.1,0.4,0.5c-2.9,3.3-6.2,6.2-9.8,8.8c-1.4,1-2.8,1.8-4.5,1.9c-1.8,0.1-3.6-0.3-5.3-0.8c-7.2-2.1-12.7-7.5-17.8-12.7
		C1114.4,449.2,1114.9,448.8,1115.2,449.1z"/>
	<path class="st13" d="M1168.3,488.6c2.7,6.4,3.2,13.6,1.6,20.6c-0.1,0.4-0.7,0.2-0.6-0.2c1.6-6.9,1-13.9-1.6-20.1
		C1167.6,488.5,1168.1,488.2,1168.3,488.6z"/>
	<path class="st12" d="M1145.2,597.4c1.3-3.1,2.6-6.2,3.9-9.2c0.2-0.4,0.8-0.2,0.6,0.2c-1.3,3.1-2.6,6.2-3.9,9.2
		C1145.6,597.9,1145,597.8,1145.2,597.4z"/>
	<path class="st12" d="M1114.9,415.4c0.5,1.1,1.1,1.8,1,3.1c0,0.7-0.2,1.5-0.1,2.2c0.3,1.6,1.8,2.6,2.6,3.9c0.9,1.4,1.4,3.1,1.9,4.7
		c0.4,1.2,0.9,3.2,1.9,4c0.9,0.7,1.4-0.4,2.3-0.4c0.2,0,0.4-0.2,0.3-0.4c-0.6-2.5-1.8-5.6-1.1-8.4c0.9-0.5,1.9-1,2.1-2
		c0.4-1.6-0.8-2.8-1-4.3c-0.2-2.3,2.1-2.6,2.1-4.6c0-0.4-0.1-0.8-0.2-1.1c3.1,0.3,6.5,1.4,9.7,0.8c1.3-0.2,1.9-0.8,2.7-1.8
		c0.6-0.9,0.9-1.1,1.9-0.8c0.8,0.2,1.5,0.4,2.3,0.4c1.3,0.1,3.9-0.6,3.6-2.2c1.3,0.3,2.9,0.4,3.6-1.1c0.7-1.5-0.2-3.4-1.1-4.5
		c-0.7-0.9-1.8-1.3-2.8-1.9c-1-0.6-1.9-1.4-2.9-2c-1.9-1.2-4-1.9-6.4-2c-2.3,0-4.7,0.5-6.9,1.4c-1.5,0.6-2.8,1.5-4.4,1.6
		c-1.2,0.1-2.3-0.2-3.5,0.3c-2.5,1-3.6,3.2-4,5.5c-2.3,0.7-3.9,2.7-4.3,5.1C1114,412.5,1114.3,414,1114.9,415.4z"/>
	<path class="st14" d="M1121.3,427.8c0,0,0.1,0.1,0.1,0.1c0.3,0.4,0.6,0.9,1,1.3c0.2,0.2,0.3,0.4,0.5,0.6c0.2,0.3,2,1.9,2.4,2
		c0.6,0.1-0.4-1.3,0-1.8c0.5-0.5,0.8-1.2,1.1-1.8c0.1-0.1,0.1-0.3,0.2-0.4c0.5-1.4,0.6-2.9,0.3-4.2c0-0.1-0.1-0.2-0.1-0.2
		c0-0.1,0-0.1-0.1-0.2c-0.1-0.2-0.2-0.3-0.4-0.4c-1.2-1.1-3.1-1.3-4.5,0c-0.7,0.6-1,1.3-1.1,2.1
		C1120.4,425.9,1120.7,426.9,1121.3,427.8z"/>
	<path class="st12" d="M1124.6,510.5c13.1-18.5,23.5-38.8,30.9-59.9c0-0.1,0.1-0.2,0.2-0.2c0.1,0,0.1-0.1,0.2-0.1
		c1,0,1.8,0.5,2.6,1.1c0.8,0.6,1.6,1.2,2.3,1.9c0.1,0,0.1,0.1,0.2,0.1c0,0,0,0,0,0c0.2,0.2,0.1,0.4-0.1,0.5
		c-7.4,21.1-17.8,41.3-30.9,59.8C1128.2,512.6,1126.4,511.5,1124.6,510.5z"/>
	<path class="st12" d="M1110.9,536.3c-2.9,3.1-5.9,6.2-9,9.2c-0.9-2.1-1.7-4.3-2.2-6.6c1.7-1.6,3.3-3.3,4.9-5
		C1106.5,535,1108.7,535.7,1110.9,536.3z"/>
	<path class="st13" d="M1106.2,501c0.1,0,0.1,0.1,0.2,0.1c3.7-5.2,7.6-10.8,8.8-17.1c1-5.4-0.2-11.2-4.5-14.5
		c-0.3-0.2,0-0.8,0.4-0.6c4.2,3.2,5.6,8.8,4.9,14.1c-0.9,6.7-5,12.8-9,18.3c3.2,1.9,6.4,3.7,9.7,5.4c0.4,0.2,0,0.7-0.4,0.6
		c-3.4-1.7-6.7-3.6-9.9-5.5c-0.1,0-0.2-0.1-0.3-0.2c-0.1-0.1-0.2-0.1-0.3-0.2C1105.5,501.3,1105.9,500.8,1106.2,501z"/>
	<path class="st12" d="M1092.6,534.9c0.1,0.9,0.7,1.6,1.1,2.3c0.6,1,1.2,1.9,1.8,2.8c1.3,2,2.6,3.9,4,5.8c1.2,1.5,2.4,3.8,4.1,4.7
		c1.1,0.6,2.2,0.2,3.1-0.8c1.6-1.9,2.7-4.5,3.8-6.6c0.8-1.6,2.6-4.1,1.9-5.9c-0.4-1-7.3-2.7-9.7-3.5c-2.4-0.7-5.1-1-7.7-0.7
		C1093.8,533.2,1092.5,533.5,1092.6,534.9z"/>
</g>
<g>
	<path class="st16" d="M139.2,511.8c5.6-19.2,10.1-47,9.4-54c0-0.2-0.2-0.3-0.3-0.2c-4.4,1.8-8.7,3.8-12.8,6.1c-0.1,0-0.1,0-0.2,0
		l-0.5,0.3c0-0.9-0.1-1.8-0.1-2.7c0-0.3-0.5-0.3-0.5,0c0.1,1,0.1,1.9,0.1,2.9c0,0-0.1,0.1-0.1,0.1c-0.2,0.1-0.1,0.4,0.1,0.4
		c0.1,9.7-5,34.9-5.4,37.8c-0.4,3.1-1.4,6-2.6,8.9c-2.3,5.7-12.8,35.9-12.8,35.9c-0.1,0.2,0,0.3,0.2,0.3c1.4,0.3,2.7,0.9,3.9,1.6
		c0.1,0.1,0.2,0,0.3-0.1c7.8-10.8,13.6-21.6,19.7-33.5C138.2,514.5,138.8,513.2,139.2,511.8z"/>
	<path class="st16" d="M155.1,680.7c-0.1-0.5-0.2-1-0.2-1.6c1.5-17.2,1.6-28.6,2-38.2c-0.3,0.1-10.8,6.4-12.4,6.8
		c1.9,14.1,3.6,26.2,4.5,32.8C151,680.6,153.1,680.7,155.1,680.7z"/>
	<path class="st17" d="M134,693.1c0.1,0.6,0.5,1.3,1,1.7c0.1,0.1,0.1,0.1,0.2,0.2c0,0,0,0.1,0.1,0.1c1.9,1.8,5.9-0.2,7.8-1.1
		c3.2-1.6,6.3-3.1,9.8-4c2.3-0.6,6.4-0.9,6.6-4.1c0,0,0,0,0-0.1c0.2-2.9-2.1-5.7-3.7-7.9c-0.1-0.2-0.3-0.1-0.4,0
		c-0.6,0.5-1.3,1-2,1.2c-1,0.3-1.8-0.1-2.6-0.5c-0.8-0.4-1.7-0.8-2.6-0.3c-0.8,0.4-1.1,1.3-1,2.1c0,0.4,0.1,0.7,0.2,1
		c0,0.2,0,0.4,0,0.5c0,0.3-0.1,0.6-0.4,1c0,0,0,0-0.1,0.1c-0.1,0.1-0.2,0.2-0.4,0.3c-0.4,0.4-1,0.7-1.4,1c-0.1,0-0.1,0.1-0.2,0.1
		c-0.1,0.1-0.2,0.2-0.3,0.2c-2.9,2.1-5.9,4.2-8.8,6.2C135,691.6,133.8,692.1,134,693.1z"/>
	<path class="st18" d="M135.3,695.1c0,0.1,0,0.1,0.1,0.1c1.9,1.8,5.9-0.2,7.8-1.1c3.2-1.6,6.3-3.1,9.8-4c2.3-0.6,6.4-0.9,6.6-4.1
		c0,0,0,0,0-0.1c-4.4,1.3-9,2.4-13.2,4.3c-2,1-4,2.1-6.1,3c-1.7,0.7-3.4,1-5.1,1.6C135.1,694.9,135.2,695,135.3,695.1z"/>
	<g>
		<path class="st19" d="M147.3,682.1c0.8,0.1,1.6,0.2,2.1,0.7c0.3,0.2,0.6-0.2,0.3-0.4c-0.7-0.6-1.6-0.7-2.5-0.8
			C147.3,681.7,147.3,681.9,147.3,682.1z"/>
		<path class="st19" d="M146.5,683.5c0.5,0.2,1,0.6,1.5,1c0,0,0,0,0,0c0,0,0,0,0.1,0.1c0.3,0.2,0.6-0.2,0.3-0.4
			c-0.4-0.4-0.9-0.8-1.5-1c0,0,0,0-0.1,0.1C146.7,683.3,146.6,683.4,146.5,683.5z"/>
		<path class="st19" d="M144.5,684.8c0.6,0.3,1.1,0.7,1.6,1.1c0.3,0.2,0.6-0.2,0.3-0.4c-0.4-0.4-0.9-0.7-1.4-1
			c-0.1,0-0.1,0.1-0.2,0.1C144.8,684.7,144.7,684.8,144.5,684.8z"/>
	</g>
	<path class="st20" d="M168.1,568c0.5,3.5,1.8,2.9,1.9,6.4c0.1,2.2,0,4.4,0.5,6.6c0.4,2,1.3,3.8,2.1,5.6c1.9,4.1,3,8.5,3.4,13
		c0.2,2.2,0,4.5,0.5,6.7c0.3,1.1,1.7,2.6,2.3,3.6c0.7-0.7,0.4-2,1.1-2.7c2.8-2.5,5.7-4,8.9-5.8c3-1.7,5.8-3.7,8.6-5.5
		c0.5-0.3,0.9-0.6,1.3-0.9c-0.8-2.3-1.5-4.7-1.7-7.1c-0.8-7,0-14.4-0.4-21.4c-0.4-7.4-0.4-14.7-1.4-22c-0.5-3.8-0.5-7.6-0.6-11.5
		c0-0.2,0-0.3,0-0.5c-0.1-3.3-0.2-6.6-0.8-9.8c-0.5-2.7-1-5.8-3-7.8c-1.9-1.9-4.7-2.3-7.3-2.4c-6.6-0.2-13.4,2.2-19,5.7
		c-1.2-0.2-2.6,0.1-3.8,0.2c-7.3,1-14.9-0.2-21.6-3.4c-0.3-0.1-0.5,0.3-0.2,0.4c0.5,0.3,1.1,0.5,1.6,0.7c0.1,10.9-3.3,21.3-4.4,32.1
		c-0.5,5.4-0.3,10.6,0.8,15.9c1.2,5.8,2.9,11.6,2.5,17.5c-0.4,5.3-2.1,10.3-3.1,15.4c-1,5.1-0.6,10,0.6,15
		c1.3,5.2,3.2,10.5,3.2,15.9c0,5.2-1.8,10.1-0.1,15.4c0.8,2.5,2.2,4.8,3.2,7.3c0.5,1.5,0.1,2.9,0,4.5c-0.1,1.4-0.4,2.8-0.1,4.2
		c0.2,1.2,0.9,2.1,1.6,3.1c0.8,1.3,1.5,2.7,1.9,4.1c0.9,3,0.9,6.2,0,9.2c0,0.2,0.1,0.3,0.3,0.3c1.7-0.1,5.1-0.3,6.8-0.4
		c1.1-0.1,2.5,0,3.1-1c0.5-0.8,0.2-1.9,0.1-2.8c-0.3-1.7-0.3-3.3,0-5c0.7-3.2,1.8-5.9,2.8-9c0.8-2.7,1.2-5.6,1.4-8.4
		c0.2-3.1,0.2-6.2,0.4-9.2c0.2-3.4,0.8-6.7,1.5-10c1.4-6.9,1.3-13.7,1.8-20.7c0.2-3.4,0.5-6.9,0.7-10.3c0.2-3.3,0-10.2-0.4-13.5
		C164.7,582.6,167.3,570.3,168.1,568z"/>
	<path class="st19" d="M196.1,459.7c-1.4-5-3.8-10-7.7-13.5c-4.6-4.1-10.9-5-16.8-5.5c-1.7-0.2-3.4-0.3-5.2-0.3
		c-0.2,0-0.2,0.4,0,0.4c0.4,0,0.7,0,1.1,0c0,0,0,0,0,0v0.1c-4-0.1-8,0.2-11.9,0.9c-3.7,0.7-7.5,1.7-10.8,3.7
		c-6,3.8-8.7,10.8-10.4,17.3c-0.3,2.5-0.3,5.2-0.6,7.7c-0.3,2.7-0.6,5.3-0.9,8c0,0,0,0,0,0c0,0.6,0,1.2,0,1.9
		c0.1,0.1,0.2,0.2,0.3,0.3c0.8-0.6,2.1-0.5,2.5,0.7c0.4,1.2,0.4,2.4,0.4,3.7c0.4,0.2,0.7,0.5,0.9,1c0.2,0.6,0.3,1.2,0.4,1.9
		c0.7-1,2.6-0.3,2.8,1.1c0.1,0.5,0.1,1,0.1,1.5c0.8-0.1,1.7,0.4,1.7,1.5c0.2,2.3,0.2,4.7,0.1,7c0,1.1,0,2.2,0,3.3
		c0,0.3-0.1,0.6-0.2,0.8c0,0.5-0.1,1-0.1,1.5c0,0,0,0,0,0c0,0,0,0,0,0c0,0.1,0,0.3,0,0.4c0,0.2-0.1,0.3-0.1,0.5
		c-0.1,2.8-0.1,5.7,0.5,8.4c0.5,2.7,2.6,3.6,5.1,4c3.4,0.5,6.9,0.9,10.3,1.3c7.1,0.9,14.2,1.8,21.3,2.6c3.6,0.4,7.2,0.9,10.9,1.3
		c1.2,0.1,2.8,0.6,3.9,0.2c1-0.4,1.1-1.4,1.2-2.4c0.2-7,0.4-14.1,1.1-21.1C197.2,486.7,199.7,472.8,196.1,459.7z"/>
	<path class="st16" d="M159.6,441.6c0.6,0.4,1.3,0.7,2,1c2.3,1,4.8,1.3,7.3,1.5c2.3,0.2,4.1,0.1,6.6-0.5c0-0.7,0.1-1.4,0.1-2.1
		c0.2-5.5,0.6-11.1,0.6-16.6c0-4.4-0.5-8.8-2.6-12.4c-0.2-0.3-0.6,0-0.5,0.3c0.5,0.8-13.7,11.2-13.7,12.7
		C159.4,430.8,159.9,436.3,159.6,441.6z"/>
	<path class="st16" d="M177.3,401.6c-3.5-6.5-11.9-10.7-19.2-6.7c-2.9,1.6-5.2,2.8-6.5,4.7c-1.2,1.8-1.6,3.9-1.9,6.3
		c-0.1,1.4-0.2,3-0.3,4.6l-0.2,2.5c-0.3,4.3-0.6,10.8,0.9,15.8c1.2,4.3,2.3,6.1,6.1,6.9c1.2,0.2,2.7,0.2,4.3,0
		c2.8-0.4,5.7-1.3,7.4-1.9c3.4-1.1,4.1-2.4,6-5.1c0,0,0.1-0.2,0.2-0.5c0.3-0.8,1-2.8,1.8-5.2C177.7,416.7,180,406.6,177.3,401.6z"/>
	<path class="st20" d="M181.4,400.9c-1.3-1.9-3.3-3.8-5.6-4.4c-0.8-0.3-1.7-0.3-2.6-0.7c-1.2-0.5-1.9-1.6-2.8-2.5
		c-0.6-0.6-1.3-1.2-2-1.6c-1.6-1-3.3-1.6-5.2-1.7c-3.4-0.3-7.7,1-8,5c-2.3-0.7-4.9-0.9-6.4,1.4c-1.2,1.9-1.3,4-0.1,5.4
		c-0.6-0.1-1.1,0-1.7,0.1c-0.6,0.1-1.4,0.4-1.5,1.1c-0.2,1.6,2,2.5,3.2,2.8c0.3,0.1,0.7,0.1,1,0.2c3.9,0.6,7.8-0.8,11.7-0.8
		c1.9,0,3.9,0.4,5.3,1.7c1.7,1.5,1.5,3.5,2.2,5.5c0.2,0.6,0.6,1.2,1.1,1.6c0.1,0.1,0.2,0.1,0.2,0.2c0.7,0.5,1.3,0.3,2,0.3
		c0,0,0.1,0,0.1,0c1.4,0.2,1.5,2.6,1.5,3.7c0,1.1-0.1,2.3-0.2,3.4c0,0,0,0.1,0,0.1c-0.2,2-0.6,4.2,0.1,6.2c0.1,0.2,0.1,0.4,0.2,0.6
		c0.4,1.1,1.2,2.1,2.3,1.6c0,0,0,0,0.1-0.1c0.3-0.7,1.6-4,2.5-7.4c0.5-1.1,1.1-2.1,1.4-3.3c0.2-0.6,0.3-1.3,0.4-1.9
		c0-0.9-0.2-1.9,0.1-2.8c0.4-1.7,1.5-3.2,2.1-4.8C183.9,406.7,183,403.4,181.4,400.9z"/>
	<path class="st16" d="M174.7,416.9c-0.2-1.5-1.3-3.3-3-2.3c-0.3,0.2,0,0.7,0.3,0.5c0.6-0.3,1-0.3,1.3,0c-0.2-0.1-0.4,0.1-0.3,0.3
		c0.2,0.5,0.3,0.9,0.3,1.4c0,0,0,0,0,0c0,0,0,0,0,0.1c0,0.1,0.1,0.2,0.2,0.2c0,0,0,0,0,0.1c-0.1,0.3,0,0.6,0.1,1c0,0.2,0,0.4,0,0.6
		c-0.1,0.7-0.3,1.4-0.5,2c-0.2,0-0.3,0.1-0.3,0.3c0,0.1,0.1,0.1,0.1,0.2c-0.1,0.3-0.2,0.5-0.3,0.8c0,0.1,0,0.1,0,0.1
		c0,0.1-0.1,0.2-0.1,0.4c-0.1,0.2,0.3,0.5,0.5,0.3C174.2,421.2,175,419.1,174.7,416.9z"/>
	<path class="st19" d="M166.9,403.5c-1.9-1-4-1.4-6.2-1.3c-0.4,0-0.4,0.6,0,0.6c2.1-0.1,4.1,0.3,5.9,1.2
		C167,404.1,167.3,403.7,166.9,403.5z"/>
	<path class="st19" d="M170.2,403.9c-0.6-1.3-1.7-2.3-3-2.7c-0.3-0.1-0.5,0.4-0.2,0.5c1.2,0.4,2.1,1.3,2.7,2.5
		C169.9,404.5,170.4,404.3,170.2,403.9z"/>
	<path class="st21" d="M200.6,464.1c-1-5.3,0.2-12.4-13.3-19.7c-1.1-0.6-2.2-0.9-3.4-1.2c-0.7-0.2-1.3-0.4-2-0.7
		c-0.1,0-0.2-0.1-0.4-0.1c-1.2-0.4-2.3-0.9-3.4-1.5c-0.1-0.1-0.2,0-0.3,0.1c-0.1-0.2-0.3-0.2-0.4,0c0,0.2-0.1,0.4-0.1,0.6
		c-0.7,4.1-2.5,7.7-4.5,11.2c-2.8,4.9-6.2,9.6-7.7,15.1c-1.5,5.4-1,10.9-1.4,16.5c0,0.1,0,0.1,0,0.2c-0.4,6-1.6,11.7-3.4,17.4
		c-0.1,0.4-0.3,0.8-0.4,1.3c-0.2,0.6-0.3,1.1-0.5,1.7c0,0,0,0,0,0c-0.1,0.3-0.2,0.7-0.2,1c-0.4,1.5-0.6,3-0.6,4.6c0,0.1,0,0.2,0,0.3
		v0c0,2.9,0.6,5.8,0.4,8.7c0,0.5-0.1,0.9-0.2,1.4c0,0.1,0,0.2,0.2,0.2c0.2,0,0.3,0,0.5,0c0.2,0,0.4,0,0.7,0c1.2,0,2.3-0.1,3.5-0.1
		c1.1,0,2.3,0,3.4,0.1c0.3,0,0.5,0,0.8,0c3,0.2,5.9,0.9,8.9,1.4c4.2,0.7,8.5,0.8,12.8,0.9c0.4,0,0.8,0,1.2,0c0.8,0,1.7,0,2.5,0
		c0.3,0,0.6,0,0.9,0c0.1,0,0.2-0.1,0.2-0.1c0.8-3.1,0.8-6.2,0.8-9.4c0-3.4,0-6.7,0.8-10C196.7,500.8,201.9,470.6,200.6,464.1z"/>
	<path class="st21" d="M160.4,519.7c1.3-3.1,1.8-6.4,1.5-9.8c0-0.2,0-0.4-0.1-0.7c0-0.2-0.1-0.5-0.1-0.7c-0.3-1.9-0.8-3.7-1.6-5.4
		c-0.2-0.4-0.3-0.7-0.5-1.1c-1.3-2.5-3.2-4.4-3.4-7.3c-0.2-2.7,0.4-5.5,0.6-8.1c0-0.2,0-0.4,0.1-0.6c0.2-2.6,0.3-5.2,0.3-7.7
		c-0.1-5.9-1-11.8-1-17.8c-0.1-6.2,1.3-12.2,2.9-18.1c0.1-0.4,0.2-0.7,0.3-1.1c0-0.1,0.1-0.2,0.1-0.4c0-0.1-2.1-0.1-5.2,0.5
		c-0.2,0-0.4,0.1-0.6,0.1c-0.1,0-0.1,0-0.2,0c-6,1.3-14.9,4.6-18.5,13.2c-0.3,0.7-0.5,1.4-0.7,2.2c-0.8,1.9-1.5,3.9-2.1,5.9
		c-1.1,3.5-2,7.1-2.9,10.6c-0.5,1.9-1.1,3.6-2.1,5.3c-0.8,1.5-1.7,3-2.4,4.6c-0.7,1.6-1.3,3.3-1.6,5.1c-0.2,1.2,0.7,1.6,1.7,2
		c0.1,0,0.2,0.1,0.3,0.1c2.9,1.4,6.1,2,9.1,2.9c1.3,0.4,2.6,0.8,3.8,1.3c0.4,0.2,0.7,0.3,1.1,0.5c0,0,0,0,0,0c0.5,1.5,1,2.9,1.2,4.5
		c0,0,0,0.1,0,0.1v0c0,0.1,0,0.1,0,0.2c0.3,2.5,0,4.9-0.4,7.3c-0.6,2.4-1.3,4.8-1.3,7.2c0,0.4,0,0.8,0.1,1.1
		c0.1,1.1,0.5,2.3,1.6,2.8c0.7,0.3,1.5,0.3,2.3,0.3c1.2,0.1,2.3,0.3,3.4,0.5c3.7,0.9,7.3,2.4,11.1,2.7c1,0.1,2.9,0.2,3.3-1.1
		c0.1-0.3,0-0.7-0.1-1.1C160.3,519.8,160.3,519.7,160.4,519.7z"/>
	<path class="st21" d="M159.6,439.4c-1.2,0.2-2.3,0.4-3.4,0.9c-0.6,0.3-1.4,0.6-1.9,1.1c-0.2,0.1-0.3,0.3-0.4,0.5
		c0,0.1-0.1,0.2-0.1,0.3c-0.5,1-0.6,2.3-0.9,3.4c-0.4,1.4-0.7,2.8-1.1,4.3c0,0.2,0.1,0.3,0.3,0.2c1.4-0.8,3.3-1.4,4.4-2.6
		c0.5-0.6,0.8-1.3,1.1-2c0.3-0.8,0.7-1.6,1-2.5c0.1,0,0.2,0,0.3-0.1c0.1-0.2,0.1-0.4,0.2-0.6c0.1-0.4,0.3-0.7,0.4-1.1
		c0.2-0.5,0.3-1,0.4-1.6C159.8,439.5,159.7,439.4,159.6,439.4z"/>
	<path class="st21" d="M183.9,443.1c0-0.2-0.2-0.4-0.4-0.5c-0.5-0.4-1.1-0.8-1.7-1.2c-1.1-0.8-2.3-1.7-3.6-2.2
		c-1.5-0.6-2,0.4-2.3,1.6c0,0.1-0.1,0.2-0.1,0.4c-0.1,0.5-0.2,1-0.2,1.4c0,0.2-0.1,0.3-0.1,0.4c-0.8,3.2-2.2,6.1-2.7,9.4
		c0,0.1,0,0.1,0.1,0.2c0,0,0,0,0,0c-0.1,0.1,0,0.4,0.2,0.3c0.2-0.1,0.4-0.1,0.6-0.2c0.1,0,0.3-0.1,0.4-0.2c1.9-0.8,3.6-2.2,5-3.7
		c0.5-0.5,1-1.1,1.5-1.6c0.2-0.2,0.4-0.5,0.7-0.7c0.2-0.2,0.3-0.4,0.5-0.6c0.5-0.6,0.9-1.1,1.4-1.7c0.2-0.2,0.5-0.5,0.6-0.9
		c0,0,0-0.1,0-0.2C184,443.2,183.9,443.1,183.9,443.1z"/>
	<path class="st19" d="M156,450.6c-1.2,1-2.5,1.9-3.9,2.8c-0.2,0.1-0.7,0.5-0.9,0.5c-0.8,0-0.6-0.8-0.6-1.3c0-0.7,0.1-1.4,0.1-2.2
		c0.3-3.1,1.4-6,2.9-8.7c0.1-0.2-0.2-0.4-0.3-0.2c-1.9,3.2-3,6.9-3.1,10.7c0,0.9-0.2,2.6,1.2,1.9c1.7-0.8,3.3-2.2,4.8-3.3
		C156.5,450.7,156.2,450.4,156,450.6z"/>
	<path class="st19" d="M144.9,451.9c0.1-0.2-0.2-0.4-0.3-0.2c-2.5,5.7-3.5,11.8-3,18c0.2,3.3,0.2,6.5-0.1,9.8
		c-0.3,3.3-0.7,6.7-0.3,10c0,0.2,0.4,0.2,0.4,0c-0.4-3.2,0-6.4,0.3-9.6c0.3-2.8,0.4-5.6,0.2-8.4c0.1,0,0.1-0.1,0.2-0.2
		c0.3-2.5,0.8-5,1.4-7.4c0.1-0.2-0.3-0.3-0.4-0.1c-0.6,2.1-1,4.3-1.3,6.4C141.5,464,142.3,457.8,144.9,451.9z"/>
	<path class="st19" d="M159.3,505c-0.2,0.2-0.1,0.5,0.1,0.7c0.2,0.2,0.5,0.3,0.7,0.1C160.5,505.5,159.7,504.4,159.3,505z"/>
	<path class="st19" d="M159.3,516.1c-0.2,0.2-0.1,0.5,0.1,0.7c0.2,0.2,0.5,0.3,0.7,0.1C160.5,516.6,159.7,515.5,159.3,516.1z"/>
	<path class="st22" d="M173.4,446.8c-2.3,0.8-4.7,0.8-7.1,0.5c-1.2-0.2-2.3-0.4-3.5-0.6c-1.1-0.2-2.3-0.5-3.2-1.2
		c-0.2-0.1-0.4,0.2-0.2,0.3c0.9,0.7,2,1,3.2,1.2c1.2,0.3,2.4,0.5,3.7,0.7c2.5,0.3,4.9,0.3,7.3-0.5
		C173.7,447.1,173.6,446.8,173.4,446.8z"/>
	<path class="st19" d="M182.7,443c0-0.3-0.5-0.3-0.5,0c0.1,2.6-0.8,5.1-1.9,7.4c-0.5,1-1,2.1-1.6,3c-1.2,1.9-3.2-0.1-4.2-1.1
		c-0.2-0.2-0.6,0.1-0.3,0.3c0.8,0.8,2.2,2.3,3.5,2.3c1.1-0.1,1.7-1.5,2.1-2.3C181.4,449.6,182.8,446.4,182.7,443z"/>
	<path class="st16" d="M219.5,663c-0.3-0.4-0.6-0.8-0.8-1.4c-5.5-16.4-10.1-26.9-13.6-35.8c-0.2,0.2-7.3,10.2-8.6,11.3
		c7.4,12.1,13.8,22.6,17.4,28.2C215.7,664.6,217.6,663.8,219.5,663z"/>
	<path class="st17" d="M205.1,682.9c0.4,0.5,1,0.9,1.7,1.2c0.1,0,0.2,0.1,0.3,0.1c0,0,0.1,0.1,0.1,0.1c2.5,0.9,5.3-2.5,6.7-4.1
		c2.3-2.7,4.5-5.4,7.3-7.6c1.9-1.5,5.5-3.4,4.4-6.4c0,0,0,0,0-0.1c-1-2.7-4.2-4.4-6.5-5.7c-0.2-0.1-0.3,0-0.4,0.2
		c-0.4,0.7-0.8,1.4-1.3,1.9c-0.8,0.7-1.7,0.6-2.6,0.6c-0.9-0.1-1.8,0-2.5,0.8c-0.5,0.7-0.5,1.6-0.1,2.3c0.2,0.3,0.4,0.6,0.5,0.8
		c0.1,0.2,0.2,0.3,0.2,0.5c0.1,0.3,0.1,0.6,0,1.1c0,0,0,0.1,0,0.1c-0.1,0.1-0.1,0.3-0.2,0.5c-0.3,0.5-0.6,1-0.9,1.5
		c0,0.1-0.1,0.1-0.1,0.2c-0.1,0.1-0.1,0.2-0.2,0.4c-1.8,3.1-3.7,6.2-5.5,9.3C205.4,681.1,204.5,682,205.1,682.9z"/>
	<path class="st18" d="M207.1,684.2c0,0,0.1,0.1,0.1,0.1c2.5,0.9,5.3-2.5,6.7-4.1c2.3-2.7,4.5-5.4,7.3-7.6c1.9-1.5,5.5-3.4,4.4-6.4
		c0,0,0,0,0-0.1c-3.5,3-7.3,5.8-10.3,9.3c-1.5,1.7-2.8,3.5-4.4,5.2c-1.2,1.3-2.7,2.3-4,3.5C206.9,684.1,207,684.1,207.1,684.2z"/>
	<g>
		<path class="st19" d="M212.9,667.4c0.7-0.2,1.5-0.5,2.2-0.3c0.3,0.1,0.5-0.4,0.1-0.5c-0.8-0.2-1.8,0-2.6,0.3
			C212.7,667.1,212.8,667.3,212.9,667.4z"/>
		<path class="st19" d="M212.7,669c0.6,0,1.2,0.1,1.7,0.3c0,0,0,0,0,0c0,0,0.1,0,0.1,0c0.3,0.1,0.5-0.4,0.1-0.5
			c-0.6-0.2-1.2-0.3-1.8-0.3c0,0,0,0.1,0,0.1C212.8,668.7,212.7,668.9,212.7,669z"/>
		<path class="st19" d="M211.4,671.1c0.6,0,1.3,0.2,1.9,0.3c0.3,0.1,0.5-0.4,0.1-0.5c-0.5-0.1-1.1-0.3-1.7-0.3
			c0,0.1-0.1,0.1-0.1,0.2C211.6,670.8,211.5,670.9,211.4,671.1z"/>
	</g>
	<path class="st20" d="M214.3,648.4c1.5-9.6-4.6-12.8-6.2-20c-1.6-7.1-1.9-14.5-4-21.5c-1.9-6.5-5.7-12.3-7.1-18.9
		c-5.4,3-11,5.6-16.8,8c-1.4,0.6-2.8,1.2-4.2,1.7c0.1,0.5,0.2,1.1,0.2,1.6c0.3,2.2,0.2,4.5,0.8,6.6c0.5,1.8,1.5,3.3,2.4,4.9
		c1,1.8,1.5,3.7,2.1,5.7c0.5,2.9,1.2,5.7,2.3,8.4c0.9,2.1,2,4,3.4,5.8c1.5,1.9,3.1,3.6,4.4,5.6c1.5,2.1,2.2,4.5,3,6.9
		c0.6,2,1.4,4,3.1,5.4c1,0.8,2.1,1.2,3.2,1.7c1.3,0.6,2.4,1.4,3.2,2.6c1.5,2.1,4.4,4.4,5,6.9c0,0.1,0.1,0.2,0.2,0.2
		c2,0,5.3-1.4,6.6-3.1c0.7-1,1-0.7,1-1.9C217,653.3,214,650.2,214.3,648.4z"/>
	<path class="st19" d="M203.7,635.8c-2.5-1.1-4.6-2.7-6.3-4.8c-0.2-0.2-0.6,0-0.4,0.3c1.8,2.2,4,3.9,6.5,5
		C203.7,636.3,203.9,635.9,203.7,635.8z"/>
	<path class="st19" d="M210.6,644.9c-1-1.1-2.1-2.1-3.4-3c-0.3-0.2-0.6,0.2-0.3,0.4c1.2,0.8,2.4,1.8,3.3,2.9
		C210.5,645.4,210.9,645.1,210.6,644.9z"/>
	<path class="st19" d="M188.4,531.1c-0.9-1.4-1-2.9-1.2-4.5c-0.1-1.1-0.3-2.1-0.4-3.2c0,0,0,0,0,0c-0.2,0-0.3,0-0.5,0
		c0.2,1.5,0.4,2.9,0.6,4.4c0.2,1.4,0.5,2.8,1.4,3.9c1.4,1.9,3.6,2.9,5.8,3.2c0-0.2,0-0.3,0-0.5C191.8,534.1,189.7,533.1,188.4,531.1
		z"/>
	<path class="st19" d="M155.9,660.4c-0.6-1.7-2.2-2.3-3.6-3.1c-1.9-1.2-2.5-3.2-3.8-5c-0.2-0.3-0.6,0-0.4,0.3
		c0.9,1.3,1.5,2.9,2.7,4.1c1.4,1.5,3.9,1.8,4.6,3.9C155.6,660.8,156,660.7,155.9,660.4z"/>
	<path class="st19" d="M169.9,516.3c-3.5-9.4-7.1-18.8-10.6-28.3c-1.7-4.6-3.5-9.2-4.8-14c-1.4-5-2.3-10.1-3-15.3
		c-0.7-5.6-1-11.3-1.1-17c0,0,0,0,0,0c0.6-0.1,1.3-0.3,1.8-0.3c0.7,0.1,0.4,1,0.4,1.6c0,1.4,0.1,2.9,0.2,4.3
		c0.3,2.8,0.7,5.6,1.1,8.4c0.8,5.2,1.6,10.3,2.6,15.4c2,10.1,15,40.7,15.7,42c0.5,0.9-0.2,1-0.9,2.1
		C171,515.7,170.4,516,169.9,516.3z"/>
	<path class="st19" d="M205.3,542.1c-0.3-2.6-0.6-5.2-1.1-7.7c-1-5.6-2.4-11.2-4.2-16.6c-0.5-1.4-0.9-2.8-1.4-4.1
		c-0.4-1.1-0.8-2.3-1.5-3.2c-0.9-1.2-1.7-2.8-4.6-2.2c-4.9,0.4-9.1,1.8-14,2.3c-0.4,0.1-0.9,0.1-1.3,0.2c-0.2,0-0.4,0.1-0.6,0.1
		c-2.7,0.5-5.5,1.7-6.6,4.4c-0.8,1.9-0.6,4-0.2,5.9c0.4,2.4,1.1,4.8,1.9,7.1c0.8,2.5,1.6,4.9,2.3,7.4c0.7,2.7,1.2,5.4,1.7,8.2
		c0.4,2.3,0.8,4.7,1.4,7c0.4,1.4,1,3,2.4,3.8c1.8,1.1,4.3,0.2,6.1-0.2c0.8-0.2,1.7-0.3,2.5-0.5c0.2,0,0.3-0.1,0.5-0.1
		c1.4-0.3,2.8-0.6,4.1-0.9c2.4-0.6,4.8-1.3,7.1-2.1c1.2-0.4,2.4-0.9,3.5-1.5c0.7-0.3,1.3-0.7,1.8-1.3c0.4-0.6,0.5-1.4,0.4-2.2
		C205.6,544.6,205.5,543.4,205.3,542.1z"/>
	<path class="st22" d="M200.3,521.3c-2.6,1.6-5.5,2.6-8.4,3.5c-3,1-6,1.9-9,2.9c-0.9-3.1-1.8-6.1-2.8-9.1c-0.7-2.1-1.2-4.3-2-6.4
		c-0.2-0.5-0.5-1.1-0.8-1.5c-0.2,0-0.4,0.1-0.6,0.1c1.3,1.1,1.7,3.9,2.1,5.3c0.7,2.2,1.4,4.5,2.1,6.7c1.4,4.7,2.8,9.4,4,14.2
		c1.4,5.6,2.5,11.2,3.2,16.9c0.2,0,0.3-0.1,0.5-0.1c-1.1-8.7-3.2-17.2-5.6-25.6c0,0,0,0,0,0c3.2-1,6.3-2,9.5-3.1
		c2.8-0.9,5.5-1.8,8-3.4C200.9,521.6,200.6,521.2,200.3,521.3z"/>
	<path class="st16" d="M210,539.8c-0.6,0.2-1.2,0.5-1.7,0.9c-0.6,0.4-1.3,1.3-2,1.5c-0.1-0.1-0.3-0.2-0.4,0c-0.9,2.3-2.1,5.6-3,8.1
		c0,0,0,0,0,0c0,0.1-0.1,0.3-0.1,0.4c0,0,0,0,0,0c0,0.1-0.1,0.2-0.1,0.3c-0.4,1.3-0.8,2.5-1,3.8c-0.3,1.4-0.2,2.4,0.5,3.6
		c0.4,0.7,0.9,1.4,1.4,2.1c0.4,0.5,0.7,1.3,1.2,1.7c0.6,0.5,1,0.1,1.2-0.5c0.3-1.2-0.5-2.2-1-3.2c-0.6-1.4-0.4-3.2-0.2-4.8
		c0.1,0.1,0.2,0.2,0.3,0.2c0.2,0.2,0.4,0.4,0.6,0.5c0.2,1.2,0.3,2.4,0.5,3.5c0.2,1.6,0.4,3.2,1,4.6c0.7,1.4,1.7,2.8,2.7,4
		c0.3,0.4,1.3,1.7,1.7,0.6c0.2-0.5-0.2-1-0.5-1.4c-0.4-0.7-0.9-1.5-1.3-2.2c-0.9-1.6-1.4-3.3-1.7-5.1c-0.1-0.9-0.2-1.8-0.4-2.8
		c0-0.3-0.1-0.6-0.1-0.9c0.2,0,0.4-0.1,0.6-0.1c0.2,1.7,0.5,3.5,0.9,5.2c0.3,1,0.6,1.8,1.4,2.6c0.9,0.9,1.9,1.6,2.9,2.3
		c0.1,0,0.2,0,0.2,0c0.9-1,0.1-2.1-0.6-2.9c-1.3-1.6-1.9-3.5-2.2-5.5c-0.1-0.8-0.2-1.6-0.3-2.4c0,0,0.1,0,0.1,0
		c0.1,0.6,0.2,1.1,0.4,1.7c0.3,1.3,0.5,2.7,1.1,3.9c0.5,1.1,1.4,2,2.3,2.8c0.4,0.4,1.2,1.3,1.8,1c0.7-0.4,0.4-1.3,0.1-1.8
		c-0.3-0.6-0.6-1.1-1-1.7c0.5,0.4,1.6,1.4,2.2,1.2c0.7-0.3,0.3-1.2,0.1-1.6c-0.6-1.3-1.1-2.5-1.5-3.9c-0.3-1.2-0.6-2.4-0.9-3.7
		c-0.1-0.3-0.1-0.7-0.2-1c-0.3-2.7-1-7.3-2.3-9.5C212.1,540,211.5,539.4,210,539.8z"/>
	<path class="st23" d="M212.4,551c0.3,2.8,0.7,5.5,2.1,8c0.1,0.2,0.5,0,0.3-0.2c-1.4-2.4-1.8-5.2-2.1-7.9
		C212.7,550.7,212.4,550.7,212.4,551z"/>
	<path class="st23" d="M210,551.2c0,0.5,0,1,0.1,1.5c0.1,0.2,0.4,0.2,0.4-0.1c-0.1-0.4-0.1-0.9-0.1-1.4
		C210.4,551,210,550.9,210,551.2z"/>
	<path class="st23" d="M206.9,552.2c0,0.5,0,1,0.1,1.5c0.1,0.2,0.4,0.2,0.4-0.1c-0.1-0.5-0.2-0.9-0.1-1.4
		C207.3,552,206.9,551.9,206.9,552.2z"/>
	<path class="st16" d="M213.1,509.8c-2.9-19.8-12.3-45.9-15.8-52c-0.1-0.1-0.3-0.2-0.4,0c-3.2,3.5-6.3,7.1-9.1,10.8
		c-0.1,0-0.1,0-0.2,0.1l-0.4,0.5c-0.4-0.8-0.8-1.6-1.2-2.4c-0.2-0.3-0.6,0-0.4,0.2c0.5,0.8,0.9,1.7,1.3,2.6c0,0-0.1,0.1-0.1,0.1
		c-0.1,0.2,0.1,0.4,0.3,0.3c4.1,8.8,11.8,32.8,12.7,35.5c0.9,3,1.2,6.1,1.4,9.2c0.3,6.1,5.3,32.5,5.3,32.5c0,0.2,4.8,0,4.8-0.1
		c2.6-13.1,1.4-19.8,1.9-33.2C213.3,512.7,213.3,511.2,213.1,509.8z"/>
	<path class="st21" d="M196.6,451.7c-3.8-2.8-6.7,6.1-9.4,7.6c-2.3,1.2-4.5,2.5-6.8,3.6c-0.1,0-0.2,0.1-0.3,0.1
		c-0.2,0.1-0.5,0.2-0.7,0.3c0,0-0.1,0-0.1,0.1c-1.5,0.7-3.1,1.3-4.7,1.7c-0.2,0.1-0.1,0.4,0.1,0.4c1.6-0.5,3.1-1,4.6-1.7
		c0.3,0.5,0.7,1,1,1.5c0.2,0.2,0.3,0.5,0.5,0.7c2.7,4.3,5.1,8.8,7,13.5c0.4,1,0.8,2.1,1.2,3.1c0.3,0.8,0.6,1.7,0.9,2.5
		c0.3,0.9,0.6,1.8,0.9,2.7c0.2,0.6,0.4,1.3,0.6,1.9c0.4,1.3,0.8,2.6,1.3,3.9c0.1,0.3,0.2,0.6,0.3,0.9c0.2,0.5,0.4,1,0.7,1.5
		c0.1,0.1,0.2,0.1,0.3,0.1c1.6-1.1,3.4-1.7,5.2-2.3c1.5-0.5,3.1-0.9,4.6-1.4c2.8-0.9,5.2-2.6,7.8-3.7c0.6-0.3,1.1-0.5,1.7-0.7
		c0.1,0,0.1-0.2,0.1-0.2c-1.2-3.7-2.9-7.2-4.7-10.7c-0.1-0.3-0.3-0.6-0.4-0.9c-0.3-0.5-0.6-1.1-0.8-1.6c-0.3-0.6-0.6-1.1-0.8-1.7
		c-1.3-2.6-2.5-5.3-3.6-8.1c0-0.1-0.1-0.2-0.1-0.3c-0.1-0.3-0.2-0.6-0.3-0.8C201.6,461.5,198.5,453,196.6,451.7z"/>
	<path class="st19" d="M186.5,469.5c-0.1-2.6,0.6-5,1.6-7.4c0.9-2,1.8-3.9,2.1-6.1c0-0.3-0.4-0.4-0.5-0.1c-0.3,2.4-1.5,4.5-2.4,6.7
		c-0.9,2.1-1.4,4.2-1.4,6.4c0,1.6,0.2,3.2,0.6,4.8c-2.3-2.6-3.6-5.8-3.9-9.3c0-0.3-0.5-0.3-0.5,0c0.3,3.9,2,7.5,4.7,10.3
		c0.1,0.3,0.2,0.7,0.3,1c0.8,2.5,1.9,4.9,1.8,7.5c0,0.3,0.5,0.3,0.5,0c0.1-2.2-0.6-4.3-1.3-6.4C187.2,474.6,186.6,472.1,186.5,469.5
		z"/>
	<path class="st19" d="M193.7,493.6c-0.4,0-1,0.1-1.4,0.1c-0.4-0.1-0.5-0.1-0.6-0.5c-0.1-0.3-0.1-0.6-0.1-0.9c-0.1-1-0.2-2-0.4-3.1
		c0-0.3-0.5-0.3-0.5,0l0.3,2.5c0.1,0.6,0.1,1.4,0.2,2c0.3,0.9,1.7,0.5,2.4,0.4C194,494.1,194,493.6,193.7,493.6z"/>
	<path class="st16" d="M122.9,539.5c-1.4-1-2.9-2-4.4-2.8c0.1-0.1,0.1-0.2,0.2-0.2c0.2-0.2-0.1-0.6-0.3-0.3
		c-0.1,0.1-0.2,0.3-0.4,0.4c-0.1,0-0.1,0.1-0.1,0.2c-2.4,3-4.7,6.1-6.6,9.4c-0.7,1.2-2.2,3.1-1.9,4.6c0.2,1.2,2.1,1.5,3,1.7
		c0.9,0.2,1.8,0.4,2.7,0.6c0.7,0.1,3.7-2.2,4.2-2.4c0.6-0.2,1.1,0.9,1.6,0.5c0.4-0.3,0.6-0.8,0.7-1.3c0.2-1,0.3-2.1,0.4-3.1
		c0.3-2.3,0.6-4.6,1-6.9C123.1,539.6,123,539.5,122.9,539.5z"/>
	<path class="st16" d="M121.9,542.7c0,0.6-0.1,1.2-0.1,1.8c-0.1-0.1-0.2-0.1-0.3,0c-1.3,0.8-2.5,1.7-3.5,2.9c0,0,0,0.1-0.1,0.1
		c-0.2,0.1-0.5,0.2-0.7,0.3c0,0-0.1,0-0.1-0.1c-1.3-1.9-3.9-1.3-6-1.2c-0.2,0-0.2,0.1-0.2,0.2c0,0-0.1,0-0.1,0.1
		c-1.1,1.8-2,3.7-2.8,5.7c-0.8,2-0.4,3.4,0.8,5.1c0,0.1,0.1,0.1,0.2,0.1c0,1.5,0.6,2.8,1.4,4.2c0,0.1,0.1,0.1,0.2,0.1
		c0,0.5,0.1,1,0.3,1.4c1.2,1.8,1.6-2.3,1.7-2.9c0.1-1.9,0.3-3.5,1.1-5.2c0.5-0.9,1-1.9,1.5-2.8c-0.1,0.3-0.2,0.7-0.3,1
		c-0.6,1.7-0.7,3.5-0.7,5.3c0,0.9,0,1.8,0.1,2.7c0,0.4,0,1.2,0.3,1.6c0.5,0.5,1,0,1.1-0.5c0.2-0.8,0.1-1.8,0.2-2.7
		c0.1-1,0.3-2.1,0.5-3.1c0.4-1.8,0.7-3.7,1.3-5.5c0.1-0.3,0.2-0.5,0.3-0.7c0.4,1.1,0.6,2.2,0.6,3.4c-0.1,1.3-0.4,2.6-0.3,3.9
		c0,0.1,0.1,0.3,0.2,0.2c1-0.1,1.2-1.3,1.6-2.1c0.6-1.3,1-2.7,1.3-4.1c0.6-3.1,0.6-6.3,0.9-9.4C122.5,542.3,122,542.3,121.9,542.7z"
		/>
	<path class="st23" d="M112.4,552c-1.2,3-1.9,6.2-2.1,9.4c0,0.3,0.5,0.3,0.5,0c0.2-3.2,0.9-6.3,2.1-9.3
		C113,551.8,112.5,551.7,112.4,552z"/>
	<path class="st23" d="M110.8,550.8c-0.7,1.7-1.6,3.4-1.6,5.3c0,0.3,0.5,0.3,0.5,0c0-1.8,0.9-3.4,1.6-5
		C111.3,550.8,110.9,550.6,110.8,550.8z"/>
	<path class="st19" d="M192.2,580.7c-1.5-3.9-3.8-7.4-6.9-10.3c-1.7-1.5-3.6-2.6-5.2-4.2c-1.8-1.7-3.1-3.9-3.7-6.3
		c-0.1-0.3-0.5-0.2-0.5,0.1c0.5,1.9,1.4,3.7,2.6,5.3c1.5,1.8,3.4,3,5.2,4.4c3.6,2.9,6.3,6.7,7.9,11
		C191.8,581.2,192.3,581,192.2,580.7z"/>
	<path class="st19" d="M191,586c-0.6-2.3-1.7-4.3-3.1-6.1c-0.2-0.2-0.5,0.1-0.3,0.3c1.4,1.7,2.4,3.7,3,5.9
		C190.7,586.4,191.1,586.3,191,586z"/>
</g>
<g>
	<path class="st9" d="M393.1,417.2c-0.4-5.6-4.5-10.3-10.4-9.9c-1.3,0.1-2.5,1.9-1.2,3c0.1,0.1,0.2,0.2,0.3,0.2
		c-0.8,0.1-1.5,0.6-1.4,1.6c0.2,1.9,0.5,3.6,1,5.5c0.7,2.9,0.8,4.9,0.1,7.8c-0.9,3.9-1.1,7.4,0.5,11.2c0.5,1.2,2.4,1,3,0
		C388.2,430.6,393.7,424.6,393.1,417.2z"/>
	<path class="st4" d="M362.7,421.8c0.2-4.1,1.1-9.8,4.6-12.5c3.4-2.6,9.5-2.1,12.7,0.5c3.2,2.5,4.7,7.1,5.1,11.2c0,0,0,0,0,0.1
		c1.4,0.2,2.4,1.6,2.4,3c0.1,2-2.2,4.7-3.6,5.8c-0.8,2.9-1.6,4.1-3.9,6.2c-2.8,2.5-10,3.9-13.3,0.7
		C363.2,433.2,362.4,426.4,362.7,421.8z"/>
	<polygon class="st4" points="373.3,448.3 386,448.7 386.5,422.4 373.6,422.1 	"/>
	<path class="st24" d="M389.7,400.5c-1.1-2.2-4.2-3.4-6.4-3.5c-4-0.2-8.8,0.4-12.3,0.6c-4.8,0.4-8.5,5.7-8.4,10.9
		c0,0,0.1,1.8,0.3,3.3c-1.4,2.1-2.7,4.1-4.1,6.2c-0.5,0.8-2.3,2.7-2.1,3.9c0.4,2.2,4.6,2.5,6.1,2.7c8.2,0.9,15.5-3.8,18.8-11.2
		c0,0,0-0.1,0-0.1c1.2,0,9.5-0.4,10.4-0.7C393,412.4,391.5,403.9,389.7,400.5z"/>
	<path class="st4" d="M339.6,569.7c0.2,0.8,1.5,0.8,1.7,0c0.8-3.6,4.3-6.6,3.7-10.4c0,0,0,0,0,0c4.1-8.1,8.9-62.6,9.1-66.8
		c0.1-1.9-3.1-2.6-4.8-2.6c0.2-0.7,0.4-1.4,0.6-2c1.1-3.7-4.7-5.3-5.8-1.6c-3.4,11.1-2.3,22.3-3.3,33.9c-3.2,11.7,0.3,24.6-1.4,36.7
		c-1.7,3.4-4.2,7.6-4.1,11.2c0.1,3.4,1.8,7.2,5.4,7.6c0.6,0.1,0.9-0.6,0.8-1.1c-0.1-0.7-0.2-0.6-0.5-1.1c-1-0.5-1.9-1.2-2.7-2.1
		c-0.8-1.8-0.6-3.5,0.4-5.1c0.4-0.7,0.9-1.3,1.5-1.9C339.5,566.1,339.2,567.8,339.6,569.7z"/>
	<path class="st25" d="M379.3,670.7c0-1,11.4-1.2,11.2,0.2c-0.9,6.1-2.8,15.4-2.9,21.5c0,0.8-1.1,4.7-2.7,4.2
		c-2.6-0.8-4.1-0.4-4.5-2.7C379.7,688.6,379.5,676.2,379.3,670.7z"/>
	<path class="st9" d="M381.6,694.8c1,0.2,2,0,3-0.3c0.9-0.3,1.9-1.1,2.9-1.4c1.6,1.5,10.1,5.8,11.9,6.6c1.6,0.8,3.8,1.7,2.8,4.2
		c-0.5,1.2-1.9,1.6-3.5,1.7c-3.6,0.1-7-0.3-10.3-0.5c-2.5-0.2-5.6,0-7.2-2c-1.5-1.9-1.2-5.5-1.2-8.8
		C380.5,694.5,381.1,694.7,381.6,694.8z"/>
	<path class="st25" d="M342,675c0.3-0.9-10.4-4.8-10.6-3.4c-1.2,6.1-2.4,15.4-4.3,21.3c-0.2,0.7-0.5,4.8,1.2,4.9
		c2.7,0.1,4,1,5.1-1.1C335.8,691.8,340.1,680.1,342,675z"/>
	<path class="st9" d="M333.4,694.8c-1,0.2-2,0-3-0.3c-0.9-0.3-1.9-1.1-2.9-1.4c-1.6,1.5-10.1,5.8-11.9,6.6c-1.6,0.8-3.8,1.7-2.8,4.2
		c0.5,1.2,1.9,1.6,3.5,1.7c3.6,0.1,7-0.3,10.3-0.5c2.5-0.2,5.6,0,7.2-2c1.5-1.9,1.2-5.5,1.2-8.8
		C334.5,694.5,333.9,694.7,333.4,694.8z"/>
	<path class="st9" d="M405.3,557.4c-0.1-9.1-1.9-16.4-2.7-23.1c-0.4-3.2-22.8-9.7-24.7-8.3c-1.3-2-12-1.6-12.5,1.7
		c-0.4,2.6-11.5-2.6-12.2,1.7c-2.4,15-8.9,54.5-14.8,89.9c-1,3.6-2.6,6.8-4.1,10.2c-1.6,3.8-1.8,7.7-1.9,11.8
		c-0.1,5.1-0.2,10.1-1.2,15.1c-0.9,4.5-2.6,8.7-3.6,13.1c-1,4.3-1.1,8.6-0.9,12.9c0.1,1.6,0,3.1,0.5,4.4c0.4,2,2.4,3.4,5.2,3.5
		c3.8,0.2,4.7-0.2,5.2-1c0.3-0.5,0.6-1.1,1-1.9c0.9-1.4,1.5-2.9,2-4.5c1.1-2.6,2.4-5.9,3.8-9.7c1.3-1.8,2.9-3.4,4.5-5.4
		c2-2.4,3.1-5,3.5-8.1c0.6-5,0.9-9.1,3.5-13.5c3.6-6.1,6.9-11.3,7.7-18.5c0.4-3.2,0.4-6.5,0.7-9.7c6-17,10.9-31.2,12.3-34.7
		c-1.1,11.4-1,34.3-0.4,56c-0.2,1.1-0.5,2.2-0.9,3.3c-1.4,4.5-2.8,8.7-1.6,13.4c0.7,2.7,2.1,5.4,2.1,8.2c0,2.8-1.4,5.4-1.8,8.1
		c-0.8,5.6,1.7,11.7,3,17.1c0.2,1,1.3,1.4,2.2,1.2c1,0.5,2.8,0.6,5.3,0.5c2.2-0.1,3.5-1,4.2-2.9c3.4-3.3,2.9-8.3,3.6-12.7
		c1.2-6.9,3.5-12.9,3.5-20.1c0-4-0.2-8,0.5-11.9c0.6-3.5,1.6-6.8,2.1-10.3c0.7-4.9,0.7-9.9,0.4-14.8
		C402.2,591.8,405.4,565.6,405.3,557.4z"/>
	<path class="st9" d="M414.9,470c-2.4-5.6-3.4-7.2-7-12.6c-6-8.9-20.3-9.7-29.9-9.7c-23.3,0-30.4,12-30.4,12s-1.6,2.5-3,8.3
		c-0.8,3.2,2.7,5.1,5,4c-0.5,1.2-1,2.4-1.5,3.5c-1.1,2.3,0.4,4.5,2.2,5c0,0.4,0.2,0.8,0.4,1.1c0.2,5.3,0.2,10.6-0.1,15.8
		c-0.4,6.7-2.2,40.6-0.9,43c2.2,4.3,27.2,1,33.5,0.3c6.2-0.6,20.3,6.5,20.6,1.6c0.5-8.5,3.6-43.3,3.7-44.5c0-0.2,0-0.4,0.1-0.8
		c0.4-0.1,0.8-0.2,1.1-0.4c4.8-1.7,10.1-3.8,11.7-8.9C421.2,485,417,475,414.9,470z"/>
	<path class="st9" d="M347.5,459.9c-4.7,8.5-6.3,17-8.3,26.8c-0.7,3.4-2.7,7.4-0.7,10.6c1.9,3.1,8.6,3.2,11.9,3.8
		c1.5,0.3,1.7-8,1.9-8.7c0.1-0.5,0.1-1-0.1-1.4c0.4-1.1,0.9-2.3,1.2-3.4c0.6-1.9-0.6-3.2-2.1-3.6c0.6-3.7,1.2-7.5,1.8-11.3
		c0.3-1.8-1.2-3.5-2.8-3.9c1.3-2.5,2.7-5,4-7.5C356.3,458,349.4,456.5,347.5,459.9z"/>
	<path class="st4" d="M420,487.6c-0.1-0.3-2.3,2.5-4.5,4.8c-3.2,3.4-8,4.4-8,4.4s0,6.1,1.3,12.9c0.2,0.9,0.4,1.8,0.6,2.6
		c-10.8,1.7-21.7,2.2-32.6,1.4c-0.7,0-1.6,0.4-1.9,1.1c-1.2,2.7,0.1,4.3,2.5,5.8c3.9,2.4,7.4,3.9,13,5.5c8.7,2.5,17.7,3.8,25.6,0
		c2.5-1.2,5.8-2.9,6.1-5.8C423.3,512,422.8,494.6,420,487.6z"/>
	<path class="st25" d="M399.6,450.9c0,0-0.4,0.7-0.5,1c-2.6,4.7-5.8,9-9,13.3c-3.4,4.6-6.9,9-10.7,13.3c-11.2,2.3-20.2,9.8-28,17.8
		c-3.4,3.5-5.7,6.8-5,11.8c0.5,3.7,0.3,10.3,4.5,11.9c4.1,1.5,10.1,0.7,14.3-0.1c4.9-1,9.5-3.3,12.8-7.1c6.9-7.8,7.6-18.4,5-28.1
		c4.6-5.2,8.9-10.6,13-16.1c3.2-4.3,6.3-8.7,9-13.3c0.2-0.3,0.5-0.9,0.5-0.9s-1.4-1.4-3-2.1C401,451.5,399.6,450.9,399.6,450.9z"/>
	<path class="st9" d="M371.1,497.6c-0.8-1.3-9.3,3.9-9.1,4.5c1.8,3.8,6.5,12.8,8.4,15.9c0.6,0.9,8.8-4.2,8.3-5.3
		C378.1,511,371.8,498.7,371.1,497.6z"/>
	<path class="st4" d="M380.9,514.1c-0.1-0.6-1-3.6-1.7-4.7c-0.7-1-1.4-2.5-2.8-2.7c-0.3,0-0.6,0.2-0.7,0.4c-0.5,0.9,0,1.4,0.3,2.2
		c0.3,0.8,0.3,1.1-0.1,1.3c-1.2-0.6-2.4-1.2-3.4-1.9c-1.1-0.8-1.6-2.3-2.7-3c-3.5-2.3-7.7,4-6.4,6.7c0.8,1.8,1.3,3.2,2.5,4.1
		c2.2,1.7,6.2,4.2,11.7,3.6c1.8-0.2,0.7,1.1,2.1-0.5c0.6-0.7,0.5-1.1,0.7-2C380.4,516.8,381,515.1,380.9,514.1z M378.3,516.9
		c-0.7,1.2-1.4,1.6-2.3,1.6c0.1-0.6-0.1-1.2-0.4-1.6c0.6-0.1,1.3-0.3,1.9-0.5c0.3,0.1,0.5,0.3,0.8,0.4
		C378.4,516.8,378.4,516.8,378.3,516.9z"/>
	<path class="st4" d="M367.1,448.7c6.2,6.2,16.8,5.6,23.1-0.3c-4.2-0.6-8.5-0.7-12.1-0.7C373.9,447.6,370.3,448,367.1,448.7z"/>
</g>
<path class="st26" d="M1015.2,459.2c-0.2-4.4,105.7-141.7,28.2-296.8"/>
<g>
	<g>
		<path class="st27" d="M342,444.2c0,0-0.5-0.7-1.4-2"/>
		<path class="st28" d="M337.7,437.9c-16.8-26.3-74.8-131.3-4.8-236.3"/>
		<path class="st27" d="M334.3,199.5c0.5-0.7,0.9-1.4,1.4-2.1"/>
	</g>
</g>
</svg>
