<?xml version="1.0" encoding="utf-8"?>
<!-- Generator: Adobe Illustrator 22.1.0, SVG Export Plug-In . SVG Version: 6.00 Build 0)  -->
<svg version="1.1" id="Layer_1" xmlns="http://www.w3.org/2000/svg" xmlns:xlink="http://www.w3.org/1999/xlink" x="0px" y="0px"
	 viewBox="0 0 1366 768" style="enable-background:new 0 0 1366 768;" xml:space="preserve">
<style type="text/css">
	.st0{fill:#141F48;}
	.st1{opacity:0.2;}
	.st2{opacity:0.72;}
	.st3{fill:#2CA7DF;}
	.st4{fill:#F9B092;}
	.st5{fill:#EC6650;}
	.st6{fill:#55251D;}
	.st7{fill:#EBE7F3;}
	.st8{fill:#713737;}
	.st9{fill:#1E2027;}
	.st10{fill:#574A9E;}
	.st11{fill:#0E2237;}
	.st12{fill:#2D2044;}
	.st13{fill:#585B93;}
	.st14{fill:#E28675;}
	.st15{fill:#F1E0D3;}
	.st16{fill:#EB8772;}
	.st17{fill:#F4E3D5;}
	.st18{fill:#C2A992;}
	.st19{fill:#1F2144;}
	.st20{fill:#5D3342;}
	.st21{fill:#E6F4F4;}
	.st22{fill:#545B95;}
	.st23{fill:#CD6C5A;}
	.st24{fill:#ED8351;}
	.st25{fill:#FFFFFF;}
	
		.st26{fill:none;stroke:#2CA7DF;stroke-width:2;stroke-linecap:round;stroke-linejoin:round;stroke-miterlimit:10;stroke-dasharray:5,5;}
	.st27{fill:none;stroke:#2CA7DF;stroke-width:2;stroke-linecap:round;stroke-linejoin:round;}
	.st28{fill:none;stroke:#2CA7DF;stroke-width:2;stroke-linecap:round;stroke-linejoin:round;stroke-dasharray:5.0603,5.0603;}
</style>
<g>
	<g>
		<path class="st0" d="M283.6,579c-0.5,0-0.9-0.4-0.9-0.9l-3.1-38.2l11.6-12.6l-11.4,6.8l-1.6-12.8l1.7,1c3.3,1.9,6.8,3.1,10.6,3.5
			l2,0.2l0.1-0.1l0.8,0c0.1,0,0.2,0,0.3,0c15,0,27.2-12.2,27.2-27.2c0-10.3-5.7-19.6-15-24.3l-0.4-0.2l-0.1-0.4
			c-3.6-15.7-17.3-26.6-33.3-26.6c-18.9,0-34.2,15.4-34.2,34.2c0,3.9,0.7,7.8,2.1,11.6l0.3,0.7l-0.7,0.4c-5.7,3.4-9.3,9.6-9.3,16.2
			c0,10.4,8.4,18.8,18.8,18.8c4.8,0,9.3-1.8,12.8-5.1l0.7-0.7l12.3,14.1l-2.3,41.5H0.2c-0.5,0,0-0.4,0-0.9s-0.5-0.9,0-0.9h270.3
			l2.2-38.9l-10.5-12.1c-3.7,3.2-8.5,5-13.4,5c-11.4,0-20.7-9.3-20.7-20.7c0-7,3.6-13.6,9.5-17.4c-1.3-3.8-1.9-7.6-1.9-11.5
			c0-19.9,16.2-36.1,36.1-36.1c16.8,0,31.2,11.3,35.1,27.7c9.6,5.1,15.6,14.9,15.6,25.7c0,16-13,29.1-29.1,29.1c-0.1,0-0.2,0-0.3,0
			l-11.7,12.7l3.1,37.4C284.5,578.5,284.2,578.9,283.6,579C283.6,579,283.6,579,283.6,579z M280.4,524.8l0.8,6.2l6.3-3.7
			C285.1,526.7,282.7,525.9,280.4,524.8z M274.5,529.7l-11.8-6.6l0.7-0.9c1.5-1.8,2.6-3.9,3.3-6.1l0.2-0.7l0.8,0.1
			c1.4,0.2,2.8,0.3,4,0.3l0.4,0l0.3,0.3c0.8,1,1.8,2,2.9,3l0.4,0.3L274.5,529.7z M265.5,522.5l7.4,4.2l0.8-6.6
			c-0.9-0.9-1.7-1.7-2.5-2.5c-1,0-1.9-0.1-3-0.2C267.6,519.2,266.7,521,265.5,522.5z"/>
	</g>
	<g>
		<path class="st0" d="M1365.1,579h-124.5l-6.4-78.2l20.4-22.1l0.7,0.4c6.1,3.6,12.7,5.5,19.5,5.5c21.3,0,38.6-17.3,38.6-38.6
			c0-17-11-31.7-27.4-36.8l-1-0.3l0.4-1c3.4-7.8,5.1-16.1,5.1-24.7c0-34.3-27.9-62.3-62.2-62.3c-33.5,0-60.8,26.3-62.1,59.8l0,0.7
			l-0.7,0.2c-21.1,4.4-36.4,23.2-36.4,44.8c0,25.3,20.5,45.8,45.8,45.8c7.3,0,14.4-1.8,21.3-5.5l0.7-0.4l25.8,29.5l-4.6,83.1h-78.9
			c-0.5,0-0.9-0.4-0.9-0.9s0.4-0.9,0.9-0.9h77.1l4.5-80.5l-24.3-27.8c-6.9,3.6-14.2,5.4-21.5,5.4c-26.3,0-47.7-21.4-47.7-47.7
			c0-22.2,15.6-41.7,37.2-46.5c1.7-34.2,29.7-60.9,64-60.9c35.4,0,64.1,28.8,64.1,64.2c0,8.4-1.6,16.7-4.8,24.5
			c16.6,5.5,27.7,20.8,27.7,38.2c0,22.3-18.2,40.5-40.5,40.5c-6.9,0-13.5-1.8-19.8-5.3l-18.8,20.4l6.2,75.6h122.7
			c0.5,0,0.9,0.4,0.9,0.9S1365.6,579,1365.1,579z M1154.4,579H285.3c-0.5,0-0.9-0.4-0.9-0.9s0.4-0.9,0.9-0.9h869.1
			c0.5,0,0.9,0.4,0.9,0.9S1154.9,579,1154.4,579z M1234.4,487l-5.2-41.6l1,0c1.5,0,3.2-0.1,4.9-0.3l1-0.1l0,1.1
			c0,11.6,5.3,22.5,14.5,29.9l1.1,0.9L1234.4,487z M1231.3,447.2l4.6,36.7l12.5-7.4c-8.7-7.5-13.8-18.1-14.2-29.4
			C1233.2,447.1,1232.2,447.2,1231.3,447.2z M1222.2,478.1l-23.1-12.9l1.3-0.9c7-4.8,12.6-11.5,16.1-19.3l0.3-0.7l0.7,0.1
			c2.4,0.4,4.9,0.7,7.6,0.8l1,0.1L1222.2,478.1z M1202.7,465l18,10.1l3.3-28c-2.1-0.1-4.1-0.4-6.1-0.7
			C1214.4,453.9,1209.2,460.3,1202.7,465z"/>
	</g>
</g>
</svg>
