<?xml version="1.0" encoding="utf-8"?>
<!-- Generator: Adobe Illustrator 22.1.0, SVG Export Plug-In . SVG Version: 6.00 Build 0)  -->
<svg version="1.1" id="Layer_1" xmlns="http://www.w3.org/2000/svg" xmlns:xlink="http://www.w3.org/1999/xlink" x="0px" y="0px"
	 viewBox="0 0 1366 768" style="enable-background:new 0 0 1366 768;" xml:space="preserve">
<style type="text/css">
	.st0{fill:#141F48;}
	.st1{opacity:0.2;}
	.st2{opacity:0.72;}
	.st3{fill:#2CA7DF;}
	.st4{fill:#F9B092;}
	.st5{fill:#EC6650;}
	.st6{fill:#55251D;}
	.st7{fill:#EBE7F3;}
	.st8{fill:#713737;}
	.st9{fill:#1E2027;}
	.st10{fill:#574A9E;}
	.st11{fill:#0E2237;}
	.st12{fill:#2D2044;}
	.st13{fill:#585B93;}
	.st14{fill:#E28675;}
	.st15{fill:#F1E0D3;}
	.st16{fill:#EB8772;}
	.st17{fill:#F4E3D5;}
	.st18{fill:#C2A992;}
	.st19{fill:#1F2144;}
	.st20{fill:#5D3342;}
	.st21{fill:#E6F4F4;}
	.st22{fill:#545B95;}
	.st23{fill:#CD6C5A;}
	.st24{fill:#ED8351;}
	.st25{fill:#FFFFFF;}
	
		.st26{fill:none;stroke:#2CA7DF;stroke-width:2;stroke-linecap:round;stroke-linejoin:round;stroke-miterlimit:10;stroke-dasharray:5,5;}
	.st27{fill:none;stroke:#2CA7DF;stroke-width:2;stroke-linecap:round;stroke-linejoin:round;}
	.st28{fill:none;stroke:#2CA7DF;stroke-width:2;stroke-linecap:round;stroke-linejoin:round;stroke-dasharray:5.0603,5.0603;}
</style>
<g>
	<g>
		<g>
			<path class="st0" d="M1235.8,131.8h-67.2l0-0.9c-0.3-7.6-6.6-13.6-14.2-13.6c-3.9,0-7.5,1.6-10.2,4.4l-0.9,0.9l-0.6-1.1
				c-3.5-6.4-10.1-10.4-17.4-10.4c-0.8,0-1.7,0.1-2.8,0.2l-0.9,0.1l-0.1-0.9c-2.3-17.2-17.2-30.2-34.6-30.2c-2.5,0-5.1,0.3-7.6,0.8
				l-0.7,0.2l-0.3-0.6c-5.5-10-16-16.2-27.3-16.2c-13.2,0-25,8.4-29.4,20.9l-0.3,0.9l-0.9-0.4c-3.1-1.3-6.4-2-9.8-2
				c-14,0-25.4,11.4-25.4,25.4c0,1.3,0.1,2.8,0.4,4.3l0.2,1.2l-1.2-0.1c-0.6,0-1.1-0.1-1.7-0.1c-9.9,0-18.4,6.8-20.5,16.4l-0.2,0.7
				h-81.3c-0.5,0-0.9-0.4-0.9-0.9s0.4-0.9,0.9-0.9h79.8c2.6-10.2,11.6-17.2,22.2-17.2c0.2,0,0.4,0,0.7,0c-0.2-1.2-0.2-2.3-0.2-3.4
				c0-15.1,12.3-27.3,27.3-27.3c3.3,0,6.5,0.6,9.6,1.7c4.9-12.7,17.1-21.2,30.8-21.2c11.8,0,22.8,6.3,28.6,16.6
				c2.4-0.5,4.8-0.7,7.3-0.7c18,0,33.5,13.2,36.4,30.9c0.7-0.1,1.4-0.1,2.1-0.1c7.6,0,14.5,3.9,18.4,10.3c3-2.6,6.7-4.1,10.7-4.1
				c8.3,0,15.2,6.3,16,14.5h65.4c0.5,0,0.9,0.4,0.9,0.9S1236.3,131.8,1235.8,131.8z"/>
		</g>
		<g>
			<path class="st0" d="M1039.6,147.3h-93.4c-0.5,0-0.9-0.4-0.9-0.9s0.4-0.9,0.9-0.9h93.4c0.5,0,0.9,0.4,0.9,0.9
				S1040.1,147.3,1039.6,147.3z"/>
		</g>
		<g>
			<path class="st0" d="M1026,159.4h-13.2c-0.5,0-0.9-0.4-0.9-0.9c0-0.5,0.4-0.9,0.9-0.9h13.2c0.5,0,0.9,0.4,0.9,0.9
				C1026.9,158.9,1026.5,159.4,1026,159.4z"/>
		</g>
		<g>
			<path class="st0" d="M1193.4,159.4h-96c-0.5,0-0.9-0.4-0.9-0.9c0-0.5,0.4-0.9,0.9-0.9h96c0.5,0,0.9,0.4,0.9,0.9
				C1194.4,158.9,1193.9,159.4,1193.4,159.4z"/>
		</g>
	</g>
	<g>
		<g>
			<path class="st0" d="M501.8,168.2H464l-0.3-0.2c-2.9-2.6-6.7-4-10.6-4l-0.3,0l-4.8,0.1l0.7-4.7c0.3-1.6,0.4-3.2,0.4-4.8
				c0-16.9-13.7-30.6-30.6-30.6c-11.8,0-22.6,6.9-27.6,17.5l-1.8,3.8l-3.7-2.1c-3.6-2-7.7-3-11.8-3c-12.1,0-22.5,9-24.2,21l-0.7,5.1
				l-4.7-1.9c-1.9-0.8-3.9-1.2-5.9-1.2c-4.1,0-8.2,1.7-11.1,4.7l-0.3,0.3H220.4c-0.5,0-0.9-0.4-0.9-0.9c0-0.5,0.4-0.9,0.9-0.9H326
				c3.2-3.2,7.7-5,12.2-5c2.3,0,4.5,0.4,6.6,1.3l2.5,1l0.4-2.7c1.8-12.9,13-22.6,26-22.6c4.4,0,8.8,1.1,12.7,3.3l2,1.1l1-2
				c5.3-11.3,16.9-18.6,29.3-18.6c17.9,0,32.4,14.6,32.4,32.5c0,1.7-0.1,3.4-0.4,5.1l-0.4,2.5l2.8-0.1c0,0,0,0,0,0
				c4.3,0,8.4,1.5,11.6,4.2h37.1c0.5,0,0.9,0.4,0.9,0.9C502.7,167.8,502.3,168.2,501.8,168.2z"/>
		</g>
		<g>
			<path class="st0" d="M372,177h-92.6c-0.5,0-0.9-0.4-0.9-0.9s0.4-0.9,0.9-0.9H372c0.5,0,0.9,0.4,0.9,0.9S372.5,177,372,177z"/>
		</g>
		<g>
			<path class="st0" d="M460.1,188.8h-39.6c-0.5,0-0.9-0.4-0.9-0.9c0-0.5,0.4-0.9,0.9-0.9h39.6c0.5,0,0.9,0.4,0.9,0.9
				C461,188.4,460.6,188.8,460.1,188.8z"/>
		</g>
		<g>
			<path class="st0" d="M425.2,197.5h-80.4c-0.5,0-0.9-0.4-0.9-0.9s0.4-0.9,0.9-0.9h80.4c0.5,0,0.9,0.4,0.9,0.9
				S425.7,197.5,425.2,197.5z"/>
		</g>
	</g>
	<g>
		<g>
			<path class="st0" d="M752.4,132.5h-33.2l-0.3-0.5c-1.9-3.5-5.6-5.7-9.6-5.7l-1.7,0l0.9-1.5c1.6-2.5,2.5-5.5,2.5-8.5
				c0-8.8-7.2-16-16-16c-5.2,0-10.1,2.5-13.1,6.8l-0.5,0.8l-0.8-0.5c-0.5-0.3-1-0.6-1.5-0.9c-4.6-2.5-9.9-3.1-14.9-1.6
				c-5,1.5-9.2,4.8-11.7,9.5c-1.9,3.4-2.7,7.3-2.3,11.2l0.1,1h-1c-3.9,0-7.5,2.1-9.4,5.4l-0.3,0.5h-92.2c-0.5,0-0.9-0.4-0.9-0.9
				c0-0.5,0.4-0.9,0.9-0.9h91.1c2.1-3.4,5.7-5.6,9.7-5.9c-0.2-3.9,0.7-7.8,2.6-11.2c2.7-5.1,7.3-8.7,12.8-10.4
				c5.5-1.6,11.3-1,16.4,1.7c0.3,0.2,0.6,0.3,0.9,0.5c3.4-4.3,8.6-6.9,14.1-6.9c9.8,0,17.8,8,17.8,17.9c0,2.9-0.7,5.7-2,8.2
				c3.9,0.5,7.3,2.7,9.4,6.1h32.1c0.5,0,0.9,0.4,0.9,0.9C753.3,132,752.9,132.5,752.4,132.5z"/>
		</g>
		<g>
			<path class="st0" d="M659,147.5h-53.9c-0.5,0-0.9-0.4-0.9-0.9s0.4-0.9,0.9-0.9H659c0.5,0,0.9,0.4,0.9,0.9S659.5,147.5,659,147.5z
				"/>
		</g>
		<g>
			<path class="st0" d="M701.7,147.5h-10.3c-0.5,0-0.9-0.4-0.9-0.9s0.4-0.9,0.9-0.9h10.3c0.5,0,0.9,0.4,0.9,0.9
				S702.2,147.5,701.7,147.5z"/>
		</g>
	</g>
</g>
</svg>
