<svg width="430" height="358" fill="none" xmlns="http://www.w3.org/2000/svg" xmlns:xlink="http://www.w3.org/1999/xlink"><path d="M194.18 58.3474c.559-.3452 1.263-.3268 1.827.0138.153.0921.312.1795.47.2624.163.0874.322.1657.485.2439.596.2762.997.8423 1.016 1.4913l.07 2.2231 7.324-.2255-.07-2.237c-.018-.6489.35-1.2381.923-1.5465.312-.1703.615-.3544.908-.5523.546-.3728 1.249-.4372 1.836-.1243l1.98 1.0495 3.467-6.384-1.98-1.0494c-.587-.3084-.923-.9251-.909-1.5787.005-.3544-.004-.7042-.037-1.054-.056-.649.238-1.275.792-1.6156l1.924-1.1783-3.853-6.163-1.92 1.1737c-.549.336-1.244.336-1.793 0-.164-.0967-.327-.1887-.494-.2762-.168-.0874-.341-.1749-.508-.2531-.587-.2716-.974-.8423-.993-1.4867l-.074-2.2231-7.325.2256.07 2.2139c.019.6397-.317 1.2381-.885 1.5465-.34.1841-.671.3866-.993.6075-.526.3682-1.221.3958-1.789.0967l-1.98-1.0494-3.467 6.3839 1.976 1.0494c.587.3084.922.9251.908 1.5833-.009.3544.005.7042.033 1.0587.056.6489-.238 1.2749-.797 1.6201l-1.919 1.1737 3.862 6.1538 1.915-1.1737zm1.51-10.7289c1.416-3.6545 5.899-4.9893 9.128-2.7202 2.199 1.5419 3.075 4.4324 2.11 6.9179-1.421 3.6499-5.889 4.9847-9.118 2.7202-2.199-1.5419-3.085-4.4278-2.12-6.9179z" fill="#FBFBFB"/><g clip-path="url(#clip0)"><path d="M371.47 123.457c3.904-9.527-.654-20.415-10.181-24.3196-9.527-3.9043-20.415.6538-24.319 10.1806-3.905 9.527.654 20.415 10.181 24.32 9.527 3.904 20.415-.654 24.319-10.181z" stroke="#04273F" stroke-miterlimit="10"/><path d="M391.306 107.98h-4.085c-.252 0-.491.05-.73.125-.792-3.092-2.023-6.008-3.607-8.6861.213-.1005.427-.2388.616-.4274l2.891-2.8913c.855-.8548.855-2.2502 0-3.105l-8.775-8.7746c-.854-.8548-2.25-.8548-3.105 0l-2.891 2.8914c-.176.176-.314.3897-.427.6159-2.678-1.5839-5.595-2.8159-8.687-3.6078.075-.2263.126-.4652.126-.7291v-4.0856c0-1.2194-.981-2.1999-2.2-2.1999h-12.42c-1.22 0-2.2.9805-2.2 2.1999v4.0856c0 .2514.05.4902.126.7291-3.093.7919-6.009 2.0239-8.687 3.6078-.101-.2262-.239-.4274-.427-.6159l-2.892-2.8914c-.855-.8548-2.25-.8548-3.105 0l-8.774 8.7746c-.855.8548-.855 2.2502 0 3.105l2.891 2.8913c.176.176.39.3143.616.4274-1.584 2.6781-2.816 5.5941-3.608 8.6861-.239-.075-.478-.125-.729-.125h-4.086c-1.219 0-2.199.993-2.199 2.2v12.42c0 1.219.98 2.2 2.199 2.2h4.086c.251 0 .49-.051.717-.126.792 3.092 2.023 6.009 3.607 8.687-.226.1-.427.238-.616.427l-2.891 2.891c-.855.855-.855 2.25 0 3.105l8.775 8.775c.854.855 2.25.855 3.105 0l2.891-2.891c.176-.176.314-.39.427-.616 2.678 1.583 5.607 2.803 8.7 3.595-.088.226-.139.478-.139.742v4.085c0 1.219.981 2.2 2.2 2.2h12.42c1.22 0 2.2-.981 2.2-2.2v-4.085c0-.264-.05-.503-.138-.742 3.092-.792 6.021-1.999 8.699-3.595.101.213.239.427.427.616l2.892 2.891c.855.855 2.25.855 3.105 0l8.774-8.775c.855-.855.855-2.25 0-3.105l-2.891-2.891c-.176-.176-.39-.314-.616-.427 1.584-2.678 2.816-5.595 3.608-8.687.226.075.465.126.729.126h4.086c1.219 0 2.199-.981 2.199-2.2v-12.42c.013-1.207-.967-2.2-2.187-2.2zm-37.084 29.567c-11.691 0-21.157-9.479-21.157-21.157 0-11.691 9.478-21.1572 21.157-21.1572 11.691 0 21.157 9.4782 21.157 21.1572 0 11.691-9.466 21.157-21.157 21.157z" fill="#04273F"/></g><path d="M420.684 134.829c-7.409-8.183-18.231-13.085-28.928-15.286-14.318-2.95-29.052-1.33-43.536-.956-15.858.416-32.008-2.741-42.122-15.909-11.946-15.5364-9.656-36.4724-18.355-53.3375-5.744-11.1742-13.736-21.2684-23.226-29.5348-9.448-8.2249-20.936-13.66657-33.089-16.49127-22.601-5.27555-51.404-4.40322-73.214 3.69703-12.611 4.69404-21.685 12.29574-19.437 26.41924 1.748 10.8835 18.022 26.0455 14.901 36.2642-1.166 3.7802-4.121 6.771-7.118 9.3465-24.265 21.0606-56.5226 24.1766-86.1992 32.9406-23.4749 6.938-48.6979 7.228-57.72991 31.654-3.70437 10.011-3.70437 21.102 1.33191 30.656 6.1601 11.673 18.0224 17.821 29.635 22.93 9.4066 4.154 26.2635 6.023 31.5912 16.076 11.0298 20.853-20.5197 34.893-32.3821 44.24-21.8516 17.197-6.4514 48.144 9.5315 63.099 19.7289 18.485 46.7417 25.38 72.7976 29.493 30.176 4.777 60.685 6.605 91.194 7.435 32.465.873 65.013-.249 97.229-4.444 26.846-3.49 66.179-5.816 85.159-28.164 6.784-8.017 9.49-18.859 5.411-28.787-4.579-11.133-15.234-15.993-25.348-21.892-5.12-2.991-9.948-6.522-12.778-11.88-2.539-4.777-3.08-10.427-2.289-15.744 1.831-11.963 9.323-21.642 18.521-29.119 19.396-15.785 47.117-25.173 55.4-51.219 3.496-11.091.874-22.846-6.951-31.487z" fill="#D1E0FF"/><path d="M96.125 231.197c-7.7119 2.775-18.0634-.805-21.154-8.732-1.2694-3.223-1.1313-7.093-3.4791-9.856-1.1145-1.325-2.6566-2.068-4.2656-2.613-2.731-.929-5.4304-1.61-7.8959-3.187-2.2618-1.453-4.4224-3.478-5.7264-5.846-1.7524-3.187-.5088-5.612.9345-8.558 1.6115-3.269 1.4735-6.265-.6576-9.273-2.5891-3.673-6.8421-5.727-9.5392-9.295-1.6057-2.131-2.5232-5.173-1.1366-7.667 1.2842-2.297 3.8533-2.361 6.116-2.797 2.0634-.397 4.4273-1.405 4.0058-3.959-.2341-1.369-1.2528-2.466-2.0166-3.538-1.653-2.28-2.0969-4.756.1843-6.841 4.7206-4.303 11.3608.714 12.667 5.686.6099 2.294.4121 4.528.2553 6.854-.1013 1.499-.198 3.161.5185 4.53 2.0252 3.899 7.3228 1.267 10.1254 3.981 3.243 3.137 1.6024 8.281 1.3365 12.156-.1869 2.899.1735 6.188 2.6982 8.062 2.946 2.164 6.7654 1.069 10.1216 1.483 11.2869 1.371 2.1124 17.015 9.8249 21.961 2.051 1.308 4.593 1.159 6.859 1.883 2.908.932 5.518 2.85 7.216 5.386 3.634 5.407 1.653 12.337-3.545 15.911-.445.306-.002 1.033.45.714 7.507-5.128 7.611-15.488.216-20.77-1.474-1.046-3.136-1.833-4.881-2.288-3.363-.881-6.6916-.799-8.223-4.514-1.7297-4.193-.1322-8.842-1.1933-13.153-.9003-3.692-3.5637-5.781-7.3409-6.037-2.2393-.158-4.5369.242-6.7566-.262-3.3012-.76-4.5688-3.644-4.6482-6.752-.1091-3.943 1.4622-7.822.0754-11.712-.4761-1.316-1.2523-2.501-2.4319-3.289-2.1339-1.458-4.5372-.649-6.8595-1.402-3.3103-1.086-2.783-4.433-2.5988-7.156.164-2.34.0725-4.67-.7373-6.889-1.327-3.628-4.6515-6.539-8.6139-6.749-3.0831-.183-6.4051 1.774-7.0012 4.979-.2252 1.257.1113 2.43.7613 3.514 1.1265 1.919 4.62 4.918 1.3778 6.757-3.1421 1.783-7.262.297-8.9643 4.393-1.5184 3.674.5392 7.305 3.1104 9.845 3.5843 3.545 10.8455 7.402 9.4102 13.49-.517 2.23-2.12 4.041-2.7007 6.256-.4749 1.805-.1613 3.536.6786 5.183 2.5203 4.903 7.5712 7.654 12.6334 9.216 3.8761 1.2 6.2217 2.732 7.3372 6.732.6184 2.209.8945 4.528 1.8979 6.615 3.7108 7.73 13.9435 11.195 21.8264 8.365.4925-.191.2496-.994-.271-.817z" fill="#FF7A00"/><path d="M56.7761 161.976c4.7858 29.009 24.121 54.047 49.5399 68.351.485.269.859-.483.395-.759-25.1307-14.138-44.3487-38.955-49.0899-67.638-.0841-.524-.9217-.493-.845.046z" fill="#FF7A00"/><path d="M60.0645 230.742s-7.2217-10.701-19.744-13.821c-12.5224-3.119-20.9931-10.511-22.8509-4.357-1.8579 6.155 14.5901 15.566 21.4758 16.655 6.8753 1.09 21.1191 1.523 21.1191 1.523zM81.5195 251.089s-8.0088-10.12-20.7306-12.288c-12.7218-2.157-21.7173-8.882-23.1133-2.612-1.3961 6.271 15.7133 14.413 22.6619 14.974 6.9487.571 21.182-.074 21.182-.074zM107.75 270.114s-9.111-9.126-21.9902-9.803c-12.8898-.666-22.5886-6.302-23.2603.085-.6718 6.387 17.2562 12.499 24.2259 12.245 6.9697-.254 21.0246-2.527 21.0246-2.527zM60.2744 230.383s6.0565-11.41 2.9915-24.036c-3.0649-12.626-.4933-23.613-6.7702-22.418-6.2768 1.195-6.9276 20.24-4.6814 26.891 2.2463 6.651 8.4601 19.563 8.4601 19.563zM81.8447 250.697s6.0565-11.41 2.9915-24.035c-3.0649-12.626-.4933-23.613-6.7702-22.419-6.2769 1.195-6.9276 20.24-4.6814 26.892 2.2462 6.651 8.4601 19.562 8.4601 19.562zM108.191 270.408s3.506-12.446-2.152-24.131c-5.668-11.685-5.479-22.968-11.3572-20.451-5.878 2.506-2.4876 21.265 1.1127 27.282 3.5898 6.017 12.3965 17.3 12.3965 17.3z" fill="#A4B2FD"/><path d="M37.3396 205.734s76.7194 91.132 116.7734 77.988" stroke="#A4B2FD" stroke-width=".8031" stroke-miterlimit="10" stroke-linecap="round" stroke-linejoin="round"/><path d="M44.4033 214.575s-.3674-12.933-9.2579-22.355c-8.8906-9.422-12.0815-20.24-16.9309-16.063-4.8599 4.177 3.9782 21.033 9.2054 25.686 5.2168 4.642 16.9834 12.732 16.9834 12.732z" fill="#A4B2FD"/><path d="M386.954 239.394c1.293-2.326 1.436-4.45 1.293-6.656-.132-1.861-.539-4.128 1.112-5.881 1.053-1.109 2.8-1.622 4.308-2.219 1.543-.62 2.883-1.383 3.984-2.29 1.113-.93 1.95-1.992 2.369-3.113.466-1.229.371-2.505.179-3.793-.395-2.47-1.1-4.497 1.149-6.275.993-.775 2.046-1.455 2.8-2.302.682-.751 1.172-1.586 1.411-2.493.491-1.801.108-3.865-2.189-5.857-2.058-1.789-4.953-2.946-7.681-2.994-3.817-.071-6.593 2.064-10.864 1.861-2.082-.095-4.14-.62-6.186-1.002-3.625-.668-7.155-.847-10.469.823-1.531.776-2.86 1.837-3.9 3.125-1.125 1.396-1.711 3.138-3.183 4.414-2.309 1.98-5.803 1.956-8.543 2.195-3.326.298-6.485 1.049-9.559 3.137-3.051 2.075-5.636 5.141-7.419 8.552-3.601 6.943-3.553 14.899-1.364 20.302 1.233 3.042 3.207 5.285 5.397 7.145 1.914 1.623 4.02 2.983 6.341 3.925.012.191.072.358.215.477 4.176 3.567 9.919 5.237 16.763 4.008 5.982-1.062 12.778-4.08 18.114-8.398 2.548-2.051 4.618-4.365 5.922-6.691z" fill="#91D1FF"/><path d="M403.023 199.542c-19.874 8.362-37.904 21.114-50.886 38.445-2.261 3.03-4.367 6.179-6.293 9.424-1.986 3.364-4.331 7.026-5.432 10.795-.108.382.419.584.622.262 1.914-3.029 3.242-6.465 5.037-9.566 1.663-2.887 3.482-5.69 5.408-8.41 3.697-5.188 7.873-10.019 12.431-14.481 7.837-7.646 16.751-14.17 26.251-19.622 4.211-2.409 8.542-4.652 12.921-6.739.072-.024.012-.131-.059-.108z" fill="#142A4A"/><path d="M391.714 195.809c-.275.083-.562.179-.837.262-.239.549-.419 1.133-.538 1.753-.407 2.064-.12 4.748 1.71 6.883.096.107.252.024.204-.071-1.233-2.374-1.759-4.641-1.28-6.847.143-.704.418-1.36.741-1.98zM382.598 210.576c.107.072.239-.047.143-.119-1.603-1.205-1.555-3.841-1.579-5.368-.036-1.825.263-3.59.825-5.26.347-1.026.802-1.98 1.328-2.863-.143-.024-.287-.048-.442-.071-.634 1.169-1.149 2.421-1.496 3.685-.479 1.754-.682 3.627-.514 5.523.119 1.372.155 3.495 1.735 4.473zM368.109 205.434c.24 3.877 1.639 8.386 5.026 11.118.107.083.299-.024.215-.132-1.28-1.622-2.501-3.232-3.29-5.117-.826-1.98-1.269-4.091-1.34-6.191-.072-2.147.215-4.282.825-6.298.275-.906.67-1.729 1.089-2.541-.347.108-.694.215-1.041.346-.287.728-.538 1.456-.742 2.159-.61 2.136-.873 4.39-.742 6.656zM360.918 209.24c.67 4.485 2.752 9.865 6.94 12.477.096.06.275-.024.191-.131-1.447-1.682-2.979-3.233-4.056-5.189-1.22-2.195-1.998-4.604-2.381-7.074-.239-1.562-.299-3.149-.227-4.735-.012.012-.024.024-.036.048-.203.179-.431.322-.658.465-.048 1.383.024 2.767.227 4.139zM351.466 216.825c.515 5.13 2.453 9.853 5.923 13.336.299.299.801-.238.526-.536-3.422-3.567-5.276-8.422-5.683-13.575-.203-2.636-.048-5.332.467-7.956.083-.453.203-.895.311-1.348-.072 0-.144.012-.204.012-.215.012-.419.036-.634.06-.12.525-.251 1.061-.347 1.598-.502 2.791-.634 5.642-.359 8.409zM351.681 237.282c.156.096.431-.131.299-.274-1.95-2.052-3.733-4.044-4.941-6.752-1.221-2.731-1.95-5.809-2.202-8.97-.251-3.244-.012-6.584.67-9.853.24-1.145.575-2.242.945-3.328-.37.144-.729.299-1.1.466-1.257 4.413-1.556 9.244-1.161 13.348.574 5.892 2.836 12.31 7.49 15.363zM347.206 242.89c.252.06.443-.31.216-.418-5.48-2.552-10.314-5.785-12.826-11.964-.754-1.872-1.209-3.817-1.448-5.809-.179.776-.335 1.551-.455 2.314 1.891 7.873 7.311 14.243 14.513 15.877zM396.968 202.475c-.252-.178-.515.012-.311.215 1.734 1.73 4.785 2.816 7.118 3.317.204.048.395.06.599.095.107-.143.215-.274.311-.417-.335-.048-.67-.084-1.005-.167-1.185-.251-2.405-.621-3.578-1.134-1.184-.525-2.117-1.181-3.134-1.909zM387.18 207.238c-.048-.084-.216-.06-.18.023.933 2.804 5.145 4.08 8.28 4.653 1.447.262 2.883.393 4.295.501v-.406c-1.125-.072-2.273-.179-3.434-.358-3.422-.525-7.322-1.586-8.961-4.413zM399.385 218.652c-2.417.06-4.93-.048-7.442-.37-4.75-.608-9.476-2.027-13.233-4.628-.204-.143-.503.06-.299.215 3.625 2.648 8.183 4.103 12.886 4.795 2.488.358 4.989.501 7.394.477.311 0 .634-.012.957-.012.06-.167.108-.334.143-.501-.119 0-.263.024-.406.024zM385.708 224.055c-5.587-.68-10.947-2.278-15.35-5.129-.204-.131-.491.096-.287.239 4.618 3.196 10.385 4.819 16.403 5.463 2.166.226 4.331.322 6.485.334.06-.024.119-.048.167-.072.323-.131.622-.274.922-.405-2.752.023-5.564-.096-8.34-.43zM387.539 233.608c-1.245.322-2.549.561-4.021.656-2.991.203-5.994.036-8.877-.298-5.624-.656-11.199-2.231-13.831-6.716-.084-.143-.311.012-.24.155 2.513 4.796 8.292 6.465 14.119 7.133 3.792.43 8.686.692 12.862-.19 0-.239 0-.489-.012-.74zM386.689 238.631c-.131.036-.251.084-.383.12-1.735.453-3.505.823-5.3 1.085-3.362.489-6.76.597-9.966.203-6.258-.751-11.259-3.519-15.459-7.264-.06-.048-.179.047-.119.107 3.876 4.27 9.248 7.05 15.649 7.801 3.267.394 6.76.239 10.194-.274 1.556-.239 3.302-.525 5.001-.931.132-.286.264-.56.383-.847zM371.34 251.621c-3.267.262-6.449.143-9.345-.501-2.692-.608-5.144-1.646-7.202-3.197-2.489-1.873-3.877-4.497-5.684-7.074-.047-.071-.191.012-.155.096 2.201 5.654 6.664 9.411 12.706 10.747 2.501.561 5.372.752 8.34.633.61-.239 1.208-.501 1.806-.764-.155.024-.311.048-.466.06z" fill="#142A4A"/><path d="M80.9229 246.93H348.152V58.9176c0-5.1525-4.19-9.3297-9.358-9.3297H90.2808c-5.1681 0-9.3579 4.1772-9.3579 9.3297V246.93z" fill="#22818C"/><path d="M80.9229 246.93H348.152V58.9176c0-5.1525-4.19-9.3297-9.358-9.3297H90.2808c-5.1681 0-9.3579 4.1772-9.3579 9.3297V246.93z" fill="url(#pattern0)" fill-opacity=".24"/><path d="M90.3701 207.059c0 2.209 1.7909 4 4 4H334.231c2.209 0 4-1.791 4-4V63.252c0-2.2092-1.791-4-4-4H94.3701c-2.2091 0-4 1.7908-4 4v143.807z" fill="url(#paint0_linear)"/><path d="M348.133 218.439H81.0121L51.7822 327.371H377.373l-29.24-108.932z" fill="#0C575F"/><path d="M348.133 218.439H81.0121L51.7822 327.371H377.373l-29.24-108.932z" fill="url(#pattern1)" fill-opacity=".24"/><path d="M91.1204 237.551h16.4136c.682 0 1.205.532 1.077 1.103l-1.591 7.113c-.099.443-.553.759-1.077.759H89.2528c-.7016 0-1.2253-.552-1.0672-1.133l1.8676-7.113c.1087-.434.5534-.729 1.0672-.729zM115.054 237.551h12.412l-1.651 8.975h-12.648l1.887-8.975zM133.67 237.551h12.402l-1.295 8.975-12.648.01 1.541-8.985zM152.278 237.551h12.412l-.949 8.975h-12.638l1.175-8.975zM170.886 237.551h12.411l-.593 8.975h-12.639l.821-8.975zM189.503 237.551h12.401l-.227 8.975-12.649.01.475-8.985zM338.429 237.551h-18.607l2.006 8.975h18.963l-2.362-8.975zM313.615 237.551h-12.411l1.65 8.975h12.649l-1.888-8.975zM295.009 237.551h-12.411l1.294 8.975 12.649.01-1.532-8.985zM276.392 237.551H263.98l.949 8.975h12.639l-1.176-8.975zM257.784 237.551h-12.411l.593 8.975h12.639l-.821-8.975zM239.168 237.551h-12.401l.237 8.975 12.638.01-.474-8.985zM208.11 237.551h12.412l.207 8.975H208.11v-8.975zM85.6569 253.217h25.9291l-1.472 9.26H83.6904l1.9665-9.26zM342.48 253.217h-32.056l1.828 9.26h32.659l-2.431-9.26zM304.022 253.217h-12.817l1.453 9.26h13.063l-1.699-9.26zM284.791 253.217h-12.816l1.096 9.26h13.054l-1.334-9.26zM265.562 253.217h-12.817l.731 9.26h13.064l-.978-9.26zM246.332 253.217h-12.816l.365 9.26h13.064l-.613-9.26zM81.7931 269.729h26.5029l-1.937 9.201H79.3721l2.421-9.201zM114.916 269.729h13.261l-1.571 9.201h-13.499l1.809-9.201zM134.798 269.729h99.39l.365 9.201H133.346l1.452-9.201zM240.817 269.729h13.252l.731 9.201h-13.498l-.485-9.201zM260.699 269.729h13.251l1.087 9.201h-13.488l-.85-9.201zM280.582 269.729h13.251l1.453 9.201h-13.498l-1.206-9.201zM300.454 269.729h13.261l1.809 9.201h-13.499l-1.571-9.201zM320.336 269.729h26.502l2.421 9.201h-26.986l-1.937-9.201zM227.132 253.217h-12.718v9.26h12.965l-.247-9.26zM207.902 253.217h-12.817l-.365 9.26h13.063l.119-9.26zM188.673 253.217h-12.817l-.731 9.26h13.064l.484-9.26zM169.453 253.217h-12.827l-1.097 9.26h13.064l.86-9.26zM150.223 253.217h-12.826l-1.453 9.26h13.064l1.215-9.26zM130.993 253.217h-12.816l-1.828 9.26h13.063l1.581-9.26zM91.7236 231.906l2.1048-8.019h6.0278l-1.9665 8.019h-6.1661zM105.885 223.887h12.045l-1.69 8.019h-12.253l1.898-8.019zM123.957 223.887h12.046l-1.374 8.019h-12.253l1.581-8.019zM142.022 223.887h12.055l-1.057 8.019h-12.253l1.255-8.019zM160.094 223.887h12.056l-.741 8.019h-12.263l.948-8.019zM178.169 223.887h12.045l-.415 8.019h-12.263l.633-8.019zM196.242 223.887h12.046l-.099 8.019h-12.263l.316-8.019zM214.315 223.887h12.046l.218 8.019h-12.264v-8.019zM232.389 223.887h12.045l.524 8.019h-12.253l-.316-8.019zM250.462 223.887h12.046l.84 8.019h-12.254l-.632-8.019zM268.535 223.887h12.046l1.156 8.019h-12.253l-.949-8.019zM286.609 223.887h12.046l1.472 8.019h-12.263l-1.255-8.019zM304.673 223.887h12.055l1.789 8.019h-12.263l-1.581-8.019zM322.746 223.887h12.056l2.105 8.019h-12.264l-1.897-8.019z" fill="#EEE"/><path d="M368.864 335.842H60.2903c-4.6938 0-8.5081-3.793-8.5081-8.483H377.373c0 4.69-3.815 8.483-8.509 8.483z" fill="#08464D"/><path d="M252.428 292.17c-.316-1.921-1.976-3.32-3.933-3.32h-67.827c-1.947 0-3.617 1.408-3.933 3.32l-4.239 25.565c-.406 2.424 1.472 4.621 3.933 4.621h76.306c2.46 0 4.328-2.197 3.932-4.621l-4.239-25.565z" fill="#34A1AD"/><path d="M293.882 72.1387h27.609v2.8177h-27.609v-2.8177zM266.214 93.3613h19.932v2.8177h-19.932v-2.8177z" fill="#E0E0E0"/><path d="M249.88 93.3613h13.231v2.8177H249.88v-2.8177z" fill="#1487E3"/><path d="M215.323 93.3613h31.938v2.8177h-31.938v-2.8177zM300.652 136.047h20.524v2.818h-20.524v-2.818z" fill="#E0E0E0"/><path d="M268.903 72.1387h19.605v2.8177h-19.605v-2.8177z" fill="#78C2FF"/><path d="M268.903 103.971h19.605v2.817h-19.605v-2.817z" fill="#1487E3"/><path d="M289.931 114.58h8.38v2.818h-8.38v-2.818z" fill="#E0E0E0"/><path d="M287.865 125.35h18.815v2.817h-18.815v-2.817z" fill="#78C2FF"/><path d="M259.059 125.35h25.969v2.817h-25.969v-2.817zM301.571 114.66h19.605v2.818h-19.605v-2.818zM309.545 125.35h11.631v2.817h-11.631v-2.817z" fill="#1487E3"/><path d="M275.009 114.66h10.969v2.818h-10.969v-2.818z" fill="#FF8761"/><path d="M301.651 93.3613h19.605v2.8177h-19.605v-2.8177zM293.311 103.971h27.945v2.817h-27.945v-2.817zM170.708 72.1387h19.605v2.8177h-19.605v-2.8177zM151.488 72.1387h13.123v2.8177h-13.123v-2.8177zM107.1 82.75h13.123v2.8176H107.1V82.75z" fill="#78C2FF"/><path d="M238.655 72.1387h24.971v2.8177h-24.971v-2.8177zM141.349 82.75h24.971v2.8176h-24.971V82.75zM171.982 93.3613h24.971v2.8177h-24.971v-2.8177zM204.494 103.971h24.971v2.817h-24.971v-2.817z" fill="#1487E3"/><path d="M151.073 93.3613h17.757v2.8177h-17.757v-2.8177z" fill="#78C2FF"/><path d="M195.215 72.1387h24.971v2.8177h-24.971v-2.8177zM234.029 103.971h14.645v2.817h-14.645v-2.817z" fill="#FF8761"/><path d="M224.899 72.1387h9.14v2.8177h-9.14v-2.8177zM254.485 103.971h9.141v2.817h-9.141v-2.817zM126.181 82.75h9.14v2.8176h-9.14V82.75z" fill="#E0E0E0"/><path d="M307.194 82.75h14.298v2.8176h-14.298V82.75zM272.034 136.115h11.295v2.818h-11.295v-2.818zM299.061 82.75h4.615v2.8176h-4.615V82.75z" fill="#1487E3"/><path d="M170.718 82.75h38.163v2.8176h-38.163V82.75z" fill="#E0E0E0"/><path d="M290.958 82.75h4.714v2.8176h-4.714V82.75z" fill="#FF8761"/><path d="M212.398 82.75h12.491v2.8176h-12.491V82.75z" fill="#1487E3"/><path d="M199.918 93.3613h12.49v2.8177h-12.49v-2.8177z" fill="#FF8761"/><path d="M228.2 82.75h26.571v2.8176H228.2V82.75z" fill="#1487E3"/><path d="M258.536 82.75h9.141v2.8176h-9.141V82.75z" fill="#78C2FF"/><path d="M289.308 93.3613h9.14v2.8177h-9.14v-2.8177zM287.489 136.115h9.141v2.818h-9.141v-2.818z" fill="#FF8761"/><path d="M271.166 82.75h15.929v2.8176h-15.929V82.75z" fill="#1487E3"/><path d="M162.251 177.38c2.736 0 4.956-2.214 4.956-4.941v-57.523H65.0641v57.523c0 2.727 2.2205 4.941 4.9561 4.941h92.2308z" fill="#fff"/><path d="M65.9528 115.8v56.637c0 2.232 1.8297 4.056 4.0679 4.056h92.2303c2.239 0 4.068-1.824 4.068-4.056V115.8H65.9528zm-1.7764-1.771H168.096v58.408c0 3.223-2.612 5.827-5.845 5.827H70.0207c-3.233 0-5.8443-2.604-5.8443-5.827v-58.408zM64.1754 109.708c0-3.224 2.6113-5.827 5.8444-5.827H162.25c3.233 0 5.845 2.603 5.845 5.827v4.321H64.1754v-4.321z" fill="#3370FF"/><path d="M83.0846 109.373c0 1.169.9415 2.108 2.114 2.108 1.1724 0 2.1139-.939 2.1139-2.108s-.9415-2.107-2.1139-2.107c-1.1725 0-2.114.938-2.114 2.107zM76.1443 109.372c0 1.169.9415 2.107 2.1139 2.107s2.1139-.938 2.1139-2.107c0-1.17-.9415-2.108-2.1139-2.108-1.1547 0-2.1139.938-2.1139 2.108z" fill="#fff"/><path d="M69.2029 109.372c0 1.169.9415 2.107 2.1139 2.107s2.1139-.938 2.1139-2.107c0-1.17-.9415-2.108-2.1139-2.108s-2.1139.938-2.1139 2.108z" fill="#FD4F23"/><g clip-path="url(#clip1)"><path d="M283.088 162.07h-51.989v37.133h51.989V162.07z" fill="#868FFF"/><g clip-path="url(#clip2)" fill="#fff"><path d="M238.858 182.273l10.945 4.779V182.8l-5.702-2.338 5.702-2.337v-4.213l-10.945 4.779v3.582zM259.864 170.967l-9.457 19.707h3.997l9.457-19.707h-3.997zM264.594 173.912v4.253l5.702 2.337-5.702 2.338v4.212l10.945-4.779v-3.582l-10.945-4.779z"/></g></g><path d="M338.417 185.836s1.015 14.268-1.772 15.975c-1.745 1.067-8.717 4.676-8.512 5.352.205.676 3.935 6.019 3.935 6.019s13.391-8.81 13.827-11.584c.419-2.712-.658-20.892-2.501-21.727-1.38-.632-2.111-.107-3.847 1.182-2.439 1.805-1.13 4.783-1.13 4.783z" fill="#D57A0D"/><path d="M339.974 289.642s.418 2.889.472 3.316c.053.436 4.629-.258 4.629-.258l.374-3.44c0 .009-4.906-.027-5.475.382z" fill="#fff"/><path d="M340.392 292.594s-1.451 1.742-2.858 2.498c-1.406.756-3.606 1.058-4.442 1.84-.597.569-2.182 3.005 3.65 2.952 5.832-.054 8.645.346 9.268-.587.624-.933-.899-6.899-.899-6.899s-1.38.498-4.719.196z" fill="#262626"/><path d="M317.048 289.642s.418 2.889.472 3.316c.053.436 4.629-.258 4.629-.258l.374-3.44c0 .009-4.905-.027-5.475.382z" fill="#fff"/><path d="M317.466 292.595s-1.451 1.742-2.858 2.498c-1.407.756-6.57 1.378-7.398 2.169-.597.569-1.594 2.845 6.606 2.632 5.832-.152 8.645.346 9.268-.587.623-.934-.908-6.899-.908-6.899s-1.291.525-4.71.187z" fill="#262626"/><path d="M338.326 215.473s4.301 6.827 3.98 12.997c-.32 6.17.383 12.766 1.033 19.211.721 7.192 2.68 22.146 2.787 25.995.107 3.849-.143 18.314-.143 18.314l-7.47-.054s-2.653-29.23-3.935-32.262c-1.282-3.04-6.553-24.999-6.766-27.426-.205-2.427 10.514-16.775 10.514-16.775z" fill="#191919"/><path d="M315.668 216.399s-1.701 16.784-2.128 20.562c-.428 3.779-.134 20.145-.348 22.51-.213 2.365 1.434 27.337 1.835 32.093l8.208-.053s.57-20.199.57-30.013c0-9.815 2.52-21.239 5.413-27.719 2.885-6.481 9.5-6.632 11.281-18.652 0 0-22.419-2.533-24.831 1.272z" fill="#191919"/><path d="M333.785 157.902s-5.128-3.423-8.725.24c-3.597 3.662-5.369 12.277-2.787 14.002 2.591 1.715 6.971 2.169 9.055-.161 2.083-2.329 4.309-5.894 4.852-8.489.543-2.596-1.095-4.499-2.395-5.592z" fill="#F9D4B9"/><path d="M324.009 172.731s.071 3.601-.329 4.365c-.401.765 7.488.791 7.488.791s.641-4.169 1.851-7.698c1.211-3.53-9.01 2.542-9.01 2.542z" fill="#F9D4B9"/><path d="M332.825 170.126s-.739.746-2.814-.098c-2.083-.845-4.042-4.339-4.87-4.863-.828-.525-.712-1.058-.712-1.058l-.757.693-.97-.169s1.478-2.364.409-3.716c-1.068-1.36 3.33-7.992 9.696-3.938 0 0 4.977 2.721 4.069 5.699-.917 2.96-2.511 6.223-4.051 7.45z" fill="#381C06"/><path d="M323.218 177.006s.027-1.467.695-1.609c.667-.143 7.345-.783 8.164-.463v1.708c-.009 0-1.585.969-8.859.364z" fill="#E2D2CA"/><path d="M324.829 163.031c.241-.48 1.879-1.627 2.003.044.125 1.672-1.602 3.467-2.261 3.121-.65-.338-.356-1.947.258-3.165z" fill="#F9D4B9"/><path d="M335.264 158.781s7.336 1.965-2.146 11.06l2.146-11.06z" fill="#381C06"/><path d="M269.735 197.722l7.47-.071c-.641-.374-1.692-1.049-1.46-1.36.329-.436 2.448.524 3.303.613.792.08 2.11-.018 3.116.347l2.359 1.005-2.163 2s-3.909.56-5.057.64c-1.861.134-7.55-2.08-7.648-2.418-.16-.605.08-.756.08-.756z" fill="#F9D4B9"/><path d="M313.459 179.034c4.754-.836 9.758-2.027 9.758-2.027l8.85-.364s8.128 1.786 11.325 3.227c.302.133.302 7.236 1.139 9.103l-2.653 5.592s-1.531 11.068-1.852 15.993c-.142 2.258 3.161 21.194 3.161 21.194s-3.544 1.04-9.589 1.707-21.137-.24-21.235-.951c-.097-.711 2.921-26.528 3.054-27.871.205-2.053-.596-11.53-.596-11.53-1.14 1.529-7.719 7.254-10.934 9.077-2.288 1.298-7.888.506-9.544.338-3.57-.365-13.444-1.067-13.64-1.423-.151-.213.57-3.805.98-3.938.373-.142 13.123-.774 16.319-.605 1.3.071 5.529-4.649 5.529-4.649s7.301-11.7 9.928-12.873z" fill="#F7941E"/><path d="M313.459 179.034c4.754-.836 9.758-2.027 9.758-2.027l8.85-.364s8.128 1.786 11.325 3.227c.302.133.302 7.236 1.139 9.103l-2.653 5.592s-1.531 11.068-1.852 15.993c-.142 2.258 3.161 21.194 3.161 21.194s-3.544 1.04-9.589 1.707-21.137-.24-21.235-.951c-.097-.711 2.921-26.528 3.054-27.871.205-2.053-.596-11.53-.596-11.53-1.14 1.529-7.719 7.254-10.934 9.077-2.288 1.298-7.888.506-9.544.338-3.57-.365-13.444-1.067-13.64-1.423-.151-.213.57-3.805.98-3.938.373-.142 13.123-.774 16.319-.605 1.3.071 5.529-4.649 5.529-4.649s7.301-11.7 9.928-12.873z" fill="url(#pattern2)" fill-opacity=".32"/><path d="M69.4253 73.9748c-4.8508-4.8362-12.7-4.8362-17.5508 0-4.8509 4.8361-4.8509 12.6615 0 17.4977 4.8508 4.8361 12.7 4.8361 17.5508 0 4.8509-4.8362 4.8509-12.6616 0-17.4977zm-.5156 15.7365c-.5825-.5141-1.2032-.9711-1.8525-1.3709.4297-1.4851.6875-3.1225.7448-4.8266h3.6477c-.1623 2.2943-1.0504 4.4458-2.54 6.1975zm-19.0596-6.1975h3.6477c.0573 1.7041.3151 3.3415.7448 4.8266-.6493.3903-1.27.8473-1.8525 1.3709-1.4896-1.7517-2.3777-3.9032-2.54-6.1975zm2.54-7.7778c.5825.5236 1.2032.9805 1.8525 1.3708-.4297 1.4852-.6875 3.1226-.7448 4.8267h-3.6477c.1623-2.2943 1.0504-4.4459 2.54-6.1975zm7.4672 1.5327c-1.2891-.0952-2.5304-.4094-3.6858-.933.6684-1.7231 1.9097-3.7889 3.6858-4.2935v5.2265zm0 1.5803v3.0845h-4.7744c.0573-1.4376.2578-2.8275.6016-4.0841 1.3082.5712 2.7119.9139 4.1728.9996zm0 4.6648v3.0845c-1.4609.0952-2.8646.4284-4.1824.9995-.3437-1.2661-.5443-2.6465-.6016-4.084h4.784zm0 4.6648v5.2264c-1.7761-.514-3.0174-2.5799-3.6858-4.2935 1.1554-.5236 2.3967-.8377 3.6858-.9329zm1.5852 0c1.2891.0952 2.5304.4093 3.6858.9329-.6684 1.7231-1.9097 3.789-3.6858 4.2935v-5.2264zm0-1.5803v-3.0845h4.7744c-.0573 1.4375-.2578 2.8274-.6016 4.084-1.3082-.5711-2.7119-.9139-4.1728-.9995zm0-4.6648V78.849c1.4609-.0952 2.8646-.4284 4.1824-.9996.3437 1.2662.5443 2.6465.6016 4.0841h-4.784zm0-4.6648v-5.2265c1.7761.5141 3.0174 2.5799 3.6858 4.2935-1.1554.5236-2.3967.8378-3.6858.933zm3.5521-4.4363c1.0122.4379 1.9576 1.0376 2.8074 1.7802-.401.3522-.8307.6759-1.27.9615-.401-.971-.9071-1.9135-1.5374-2.7417zm-10.2173 2.7417c-.4392-.2856-.8689-.6093-1.27-.9615.8403-.7426 1.7857-1.3423 2.7978-1.7802-.6302.8282-1.1363 1.7707-1.5278 2.7417zm0 14.299c.3915.9711.8976 1.9231 1.5278 2.7513-1.0121-.4379-1.9575-1.0377-2.8073-1.7802.4106-.3618.8307-.6855 1.2795-.9711zm11.7452 0c.4488.2856.8689.6093 1.27.9615-.8499.7426-1.7952 1.3424-2.8074 1.7803.6398-.8283 1.1459-1.7707 1.5374-2.7418zm1.2795-7.9396c-.0573-1.7041-.3151-3.3415-.7448-4.8267.6493-.3903 1.27-.8472 1.8525-1.3708 1.4896 1.7516 2.3777 3.9032 2.54 6.1975H67.802z" fill="#303C55"/><path d="M95.2309 164.944c1.3757-.839 3.575.164 3.575.164-.7598-1.065-3.5335-.716-3.5335-.716 5.5236-1.172 6.6766 2.35 6.7716 2.68 4.007-3.606 10.421 4.079 10.421 4.079l-9.206 12.164s-.839-1.935-1.948-1.331c-1.7304.942-5.074-2.871-4.0055-7.885.1158-.541.2553-1.037.4082-1.491-.3592.157-.7673.283-1.1487.283-1.0062 0-2.5273-2.56-2.7321-3.421-.2048-.86.0223-3.686 1.398-4.526z" fill="#333"/><path d="M121.561 217.901c5.831-2.141 11.447-12.087 11.447-12.087l-1.839-1.283c-1.531 2.234-8.422 6.522-8.422 6.522-.157-1.882-.386-3.59-.668-5.137-1.913-10.512-6.288-13.627-7.463-14.288-.19-.108-.297-.149-.297-.149s.005.076.014.223c.016.317.055.954.115 1.827.456 6.509 2.241 26.162 7.113 24.372z" fill="#F9D4B9"/><path d="M93.3816 228.634c2.8805-6.441 4.2577-8.261 4.3067-10.288.0386-1.602-.7539-3.33-2.2943-7.57-.3621-.999-.6129-2.027-.7673-3.065-1.2169-8.172 3.5231-17.007 6.4693-17.609.819-.216 2.209-3.168 2.192-7.924l.369.072 6.203 1.225s-.141 1.947-.145 3.78c-.005 1.529.089 2.977.435 3.159.446.04.711.067.711.067s5.173 7.162 5.608 13.823c.435 6.661-4.142 9.555.034 22.866 4.266 13.596-24.7123 5.023-23.1214 1.464z" fill="#F9D4B9"/><path d="M109.864 183.477s-.141 1.947-.145 3.78c-3.471-.097-5.307-3.255-6.058-5.005l6.203 1.225z" fill="#FDB07C"/><path d="M103.018 181.579s-1.819-2.866-2.256-5.316c-.311-1.749.582-8.235 7.119-7.3 0 0 1.898.186 3.683 1.388 1.419.955 3.469 3.018 1.177 8.677l-.595 1.912-9.128.639z" fill="#333"/><path d="M111.023 185.214s-8.215.135-8.221-4.965c-.006-5.102-1.07-8.519 4.175-8.821 5.245-.302 6.266 1.643 6.683 3.345.417 1.701-.502 10.274-2.637 10.441z" fill="#F9D4B9"/><path d="M100.656 290.431c2.066 8.196 5.178 14.479 5.178 14.479l2.708-.188s-1.328-6.3-1.252-14.811c.053-5.951.792-12.985 3.15-19.699 8.104-23.076 6.796-39.87 6.796-39.87l-15.241 1.777-.71.083c-.064 6.979-.243 16.452-.402 23.861-.139 6.663-.263 11.655-.263 11.655-2.9306 6.291-1.8665 15.171.036 22.713z" fill="#0C0025"/><path d="M91.9121 289.123c.877 9.324 4.7355 15.353 4.7355 15.353l1.2941.938s1.2243-6.569 2.0913-14.384c.825-7.428 1.957-15.289 3.238-17.687 5.083-9.515 6.613-45.437 6.613-45.437l-15.4535-.763c-1.5538 2.604-2.232 6.876-2.3923 11.734-.4066 12.259 2.4843 28.246 2.9161 30.557 0 .001 0 .003.0015.006.0342.179-.0178.355-.1009.516-3.0749 6.066-3.5201 13.008-2.9428 19.167z" fill="#1F0655"/><path d="M105.018 178.169c-3.452.885-4.948-.037-4.948-.037s2.648-2.096 3.197-5.757c0 0 1.515-4.77 7.384-1.179.539-.46 1.496-.793 2.765.738 1.904 2.301.209 6.368.209 6.368-.782.092-.966-2.583-1.375-3.882-.302-.956-1.29-1.931-1.792-2.381-.164.606-1.82 6.321-5.943 8.221 0 0 1.9-1.681 3.296-4.013-.798.907-1.739 1.651-2.793 1.922z" fill="#333"/><path d="M81.3452 237.32c.6263-.393 1.2303-1.602 1.4469-2.067 1.91-4.74 4.1108-13.934 4.8395-15.626.2656-.617.7731-3.525 1.4395-7.272 1.1961-6.723 2.8968-16.149 4.6005-19.884.2048-.447.7909-.828 1.5582-1.148 2.3195-.966 6.2832-1.37 6.2832-1.37l-2.0701 8.939-.6069 2.622s-1.8432 6.476-3.2723 11.768c-.6901 2.556-1.2822 4.837-1.5226 5.976-.7391 3.501-8.8745 16.957-8.8745 16.957h-.003l.0015.002s-.2463.164-.5342.982c-.2879.82-2.5882 5.161-3.5736 5.161-.9854 0-1.1917-1.475-1.3965-2.416-.2062-.944.9038-2.132 1.6844-2.624zM131.168 204.53c-.001-.253-.212-3.911.441-4.679.653-.767 1.987-1.861 2.406-1.827.42.034 2.06 2.206 1.567 3.872-.493 1.665-2.575 3.918-2.575 3.918l-1.839-1.284z" fill="#F9D4B9"/><path d="M128.174 200.056l3.802 1.137c.126.037.259-.034.296-.16l2.173-7.228c.037-.125-.034-.259-.16-.296l-3.802-1.136c-.126-.037-.26.034-.297.16l-2.173 7.227c-.038.126.034.258.161.296z" fill="#575B9F"/><path d="M129.161 200.35l3.448 1.029c.225.067.461-.059.527-.282l2.068-6.876c.066-.223-.06-.458-.284-.525l-3.449-1.03c-.224-.066-.46.059-.527.283l-2.067 6.875c-.067.224.061.459.284.526z" fill="#373480"/><path d="M91.9111 289.125c.8771 9.324 4.7355 15.353 4.7355 15.353l1.3179 1.196s1.2005-6.827 2.0675-14.643c-.9145.066-4.9391.213-8.1209-1.906z" fill="#F9D4B9"/><path d="M95.5315 213.56c-.9141.245-3.8614.796-7.2346-1.057 1.392-6.771 3.3702-16.264 5.3529-20.025.0964-.182.2641-.352.4882-.512-.0133-.015-.0193-.024-.0193-.024 1.858-1.346 5.6542-1.76 5.6542-1.76s1.1691 5.175 1.9101 5.851c.739.676 11.463 1.782 11.709.554.236-1.174-2.789-5.738-3.014-6.141-.012-.017.487.037.487.037 1.222.16 2.085.283 2.706.39 1.219.208 1.962.728 2.034.807 1.444 1.091 4.836 4.438 6.163 12.502 0 0-1.677 2.294-4.041 2.97-.063.018-.125.032-.189.049.411 6.835 2.934 18.21 2.026 24.789-.874 6.327-14.223 4.708-16.871 4.122-1.813-.401-3.2169-2.311-4.2186-5.712-.331 2.377-1.076 5.166-2.744 5.338-2.7291.281-3.8585-.188-4.1879-1.221-.095-.297-.1232-.711-.0965-1.231.1781-3.555 2.8894-11.928 4.0855-19.726z" fill="#296AAA"/><path d="M95.5315 213.56c-.9141.245-3.8614.796-7.2346-1.057 1.392-6.771 3.3702-16.264 5.3529-20.025.0964-.182.2641-.352.4882-.512-.0133-.015-.0193-.024-.0193-.024 1.858-1.346 5.6542-1.76 5.6542-1.76s1.1691 5.175 1.9101 5.851c.739.676 11.463 1.782 11.709.554.236-1.174-2.789-5.738-3.014-6.141-.012-.017.487.037.487.037 1.222.16 2.085.283 2.706.39 1.219.208 1.962.728 2.034.807 1.444 1.091 4.836 4.438 6.163 12.502 0 0-1.677 2.294-4.041 2.97-.063.018-.125.032-.189.049.411 6.835 2.934 18.21 2.026 24.789-.874 6.327-14.223 4.708-16.871 4.122-1.813-.401-3.2169-2.311-4.2186-5.712-.331 2.377-1.076 5.166-2.744 5.338-2.7291.281-3.8585-.188-4.1879-1.221-.095-.297-.1232-.711-.0965-1.231.1781-3.555 2.8894-11.928 4.0855-19.726z" fill="url(#pattern3)" fill-opacity=".64"/><path d="M100.654 290.431c2.066 8.195 5.178 14.479 5.178 14.479l2.708-.188s-1.328-6.3-1.252-14.812c-.919.462-2.815.931-6.634.521z" fill="#DFB18F"/><path d="M104.274 307.172h1.729c.579-.09 1.006-.258 1.602-.336.902-.118 1.317.25 1.399.336.012.01.016.018.016.018h7.346c.186-.264.008-.873-.166-1.322-.117-.304-.372-.535-.687-.627-.779-.225-2.315-.425-3.721-1.694-.791-.713-3.821-2.62-3.821-2.62l-.016-.003c-.067.001-.383.097-1.762 1.257-.712.598-1.926-.844-1.926-.844s-.229.188-.398.538c-.136.277-.236.656-.157 1.125.11.659-.243 1.886-.527 2.715-.171.503-.316.859-.316.859s-.083.413 1.405.598z" fill="#CF7203"/><path d="M103.869 301.874c.413.29 1.284.861 1.863.936.78.103 2.239-1.883 2.239-1.883l-.016-.003c-.067.001-.383.097-1.762 1.258-.712.597-1.926-.845-1.926-.845s-.229.186-.398.537zM104.273 307.172h1.729c.579-.091 1.006-.258 1.602-.336.902-.118 1.317.25 1.399.336.012.01.016.017.016.017h7.346c.186-.263.008-.872-.166-1.321-.223-.198-.286.858-.41 1.027-.123.169-5.992.062-6.33-.185-.339-.245-1.357-.676-2.774-.337-1.233.294-3.051-.46-3.501-.66-.171.503-.316.86-.316.86s-.083.414 1.405.599z" fill="#422103"/><path d="M95.0454 307.172h1.7289c.5788-.09 1.0077-.258 1.6013-.336.9023-.118 1.3178.25 1.4009.336.0104.01.0163.018.0163.018h7.3462c.185-.264.007-.873-.166-1.322-.118-.304-.373-.535-.688-.627-.779-.225-2.315-.425-3.72-1.694-.791-.713-3.8214-2.62-3.8214-2.62l-.0163-.003c-.0668.001-.3829.097-1.7616 1.257-.7123.598-1.9262-.844-1.9262-.844s-.2286.188-.3978.538c-.1365.277-.2359.656-.1573 1.125.1099.659-.2433 1.886-.5268 2.715-.1707.503-.3161.859-.3161.859s-.0846.413 1.4039.598z" fill="#F7941E"/><path d="M94.6387 301.874c.4125.29 1.2836.861 1.8624.936.7806.103 2.2394-1.883 2.2394-1.883l-.0163-.003c-.0668.001-.3829.097-1.7616 1.258-.7123.597-1.9262-.845-1.9262-.845s-.2271.186-.3977.537zM95.0454 307.172h1.7289c.5788-.091 1.0077-.258 1.6013-.336.9023-.118 1.3178.25 1.4009.336.0104.01.0163.017.0163.017h7.3462c.185-.263.007-.872-.166-1.321-.223-.198-.287.858-.41 1.027-.123.169-5.993.062-6.331-.185-.3383-.245-1.3563-.676-2.7736-.337-1.2332.294-3.0511-.46-3.5008-.66-.1707.503-.3161.86-.3161.86s-.0846.414 1.4039.599z" fill="#422103"/><path d="M91.4453 233.286c1.8328-.611 4.1865-2.234 7.0121-5.875 7.4806-9.639.6352-20.967-.282-21.178-.9171-.212-2.6445 7.328-2.6445 7.328-1.1962 7.799-3.9075 16.171-4.0856 19.725z" fill="#094077"/><path d="M91.4453 233.286c1.8328-.611 4.1865-2.234 7.0121-5.875 7.4806-9.639.6352-20.967-.282-21.178-.9171-.212-2.6445 7.328-2.6445 7.328-1.1962 7.799-3.9075 16.171-4.0856 19.725z" fill="url(#pattern4)" fill-opacity=".32"/><path d="M134.343 198.27s-1.2-1.086-2.18-.059c-.979 1.027.371 2.86 1.36 3.298.988.436 1.316.683 1.316.683l-.496-3.922z" fill="#F9D4B9"/><path d="M109.418 182.187s.142.601 1.641.509c0 0 1.26-.077 1.222-.738 0 0-1.222-.471-2.863.229z" fill="#fff"/><g clip-path="url(#clip3)"><path d="M379.543 35.4492h-26.309v18.8482h26.309V35.4492z" fill="#606BF1"/><path d="M364.241 39.5184c-.846 0-1.127.2313-1.127.8673v2.8388c0 1.1101-.455 1.4454-1.225 1.6593.765.2024 1.225.5377 1.225 1.6362v2.8388c0 .636.293.8673 1.127.8673v1.243c-2.134 0-2.743-.688-2.743-2.1218v-2.6885c0-.769-.202-1.0696-.897-1.0696v-1.4165c.695 0 .897-.3122.897-1.0812v-2.6942c0-1.4455.603-2.1219 2.743-2.1219v1.243zM371.279 40.3973v2.6884c0 .769.201 1.0812.915 1.0812v1.4165c-.714 0-.915.2949-.915 1.0696v2.6885c0 1.4338-.604 2.1219-2.743 2.1219v-1.2431c.834 0 1.127-.2313 1.127-.8672v-2.8388c0-1.0928.455-1.4339 1.225-1.6362-.765-.214-1.225-.5551-1.225-1.6594v-2.8388c0-.636-.282-.8672-1.127-.8672v-1.2373c2.139 0 2.743.6764 2.743 2.1219z" fill="#F1F2F2"/></g><path d="M101.315 151.349h-9.4836l-1.5203 4.486H83.832l9.1938-25.396h7.1672l9.193 25.396h-6.551l-1.52-4.486zm-1.5929-4.775l-3.149-9.297-3.1129 9.297h6.2619zM132.997 138.615c0 1.471-.337 2.822-1.013 4.052-.676 1.206-1.713 2.182-3.113 2.93-1.4.748-3.137 1.121-5.212 1.121h-3.837v9.117h-6.19v-25.396h10.027c2.027 0 3.74.35 5.14 1.05 1.399.699 2.449 1.664 3.149 2.894.699 1.23 1.049 2.64 1.049 4.232zm-9.809 3.184c1.183 0 2.063-.278 2.643-.832.579-.555.868-1.339.868-2.352s-.289-1.797-.868-2.351c-.58-.555-1.46-.832-2.643-.832h-3.366v6.367h3.366zM143.857 130.439v25.396h-6.19v-25.396h6.19z" fill="#04273F"/><defs><pattern id="pattern0" patternContentUnits="objectBoundingBox" width="1" height="1"><use xlink:href="#image0" transform="matrix(.00025 0 0 .00025 -.0072882 0)"/></pattern><pattern id="pattern1" patternContentUnits="objectBoundingBox" width="1" height="1"><use xlink:href="#image0" transform="matrix(.00025 0 0 .00075 0 -.587773)"/></pattern><pattern id="pattern2" patternContentUnits="objectBoundingBox" width="1" height="1"><use xlink:href="#image0" transform="matrix(.0003 0 0 .0003 -.113784 0)"/></pattern><pattern id="pattern3" patternContentUnits="objectBoundingBox" width="1" height="1"><use xlink:href="#image0" transform="matrix(.00048 0 0 .00034 -.455474 0)"/></pattern><pattern id="pattern4" patternContentUnits="objectBoundingBox" width="1" height="1"><use xlink:href="#image0" transform="matrix(.00089 0 0 .00034 -1.27509 0)"/></pattern><clipPath id="clip0"><path fill="#fff" transform="translate(314.938 77.1055)" d="M0 0h78.5686v78.5686H0z"/></clipPath><clipPath id="clip1"><rect x="231.099" y="162.07" width="51.9892" height="37.1332" rx="8" fill="#fff"/></clipPath><clipPath id="clip2"><path fill="#fff" transform="translate(238.858 170.967)" d="M0 0h36.6801v19.7077H0z"/></clipPath><clipPath id="clip3"><rect x="353.234" y="35.4492" width="26.309" height="18.8482" rx="4" fill="#fff"/></clipPath><linearGradient id="paint0_linear" x1="90.3674" y1="135.156" x2="338.229" y2="135.156" gradientUnits="userSpaceOnUse"><stop stop-color="#171F2F"/><stop offset=".486" stop-color="#263148"/><stop offset="1" stop-color="#151D2E"/></linearGradient></defs></svg>