<svg xmlns="http://www.w3.org/2000/svg" width="446" height="238" fill="none" viewBox="0 0 446 238">
  <path fill="#EE4D2D" d="M378.873 128.337h.126c.877-.041 1.588-.794 1.588-1.714v-.14-.111c0-8.673-6.785-15.686-15.157-15.686-8.373 0-15.158 7.027-15.158 15.686 0 .641.042 1.296.112 1.924v.028l.027.167a15.272 15.272 0 003.845 8.296l.015.014c2.326 2.565 5.488 4.308 8.985 4.963l.042.014.223.042c.112.014.237.042.404.07 4.611.557 8.707-.112 12.162-1.854.85-.433 1.616-.907 2.285-1.409.209-.167.404-.321.571-.46.083-.07.153-.14.195-.181.78-.809.836-1.088.362-1.827a92.637 92.637 0 00-1.365-2.119 7.871 7.871 0 00-.362-.516c-.056-.083-.056-.083-.098-.125l-.028-.028c-.431-.53-.724-.586-1.198-.167a5.469 5.469 0 00-.251.208c-3.329 2.97-7.885 3.918-12.426 2.97a13.21 13.21 0 01-2.368-.864c-2.843-1.436-4.863-3.974-5.448-6.929l-.042-.238h.237l22.722-.014zm-22.499-5.688c1.198-3.918 4.834-6.539 9.069-6.539 4.054 0 7.9 2.747 9.237 6.525l.098.265h-18.474l.07-.251zM343.332 128.337h.125c.878-.041 1.589-.794 1.589-1.714v-.14-.111c0-8.673-6.785-15.686-15.158-15.686-8.372 0-15.157 7.027-15.157 15.686 0 .641.042 1.296.111 1.924v.028l.029.167a15.251 15.251 0 003.845 8.296l.013.014c2.327 2.565 5.489 4.308 8.986 4.963l.042.014.223.042c.111.014.236.042.404.07 4.611.557 8.707-.112 12.162-1.854.85-.433 1.616-.907 2.285-1.409.209-.167.404-.321.571-.46.083-.07.153-.14.195-.181.78-.809.836-1.088.362-1.827a92.637 92.637 0 00-1.365-2.119c-.14-.209-.251-.376-.362-.516-.056-.083-.056-.083-.098-.125l-.028-.028c-.432-.53-.724-.586-1.198-.167a4.975 4.975 0 00-.251.208c-3.329 2.97-7.885 3.918-12.426 2.97a13.249 13.249 0 01-2.369-.864c-2.842-1.436-4.862-3.974-5.447-6.929l-.042-.238h.237l22.722-.014zm-22.513-5.688c1.198-3.918 4.834-6.539 9.069-6.539 4.054 0 7.899 2.747 9.237 6.525l.097.265h-18.473l.07-.251zM293.6 110.633a15.69 15.69 0 00-9.947 3.542l-.321.265v-2.872c0-.767-.167-.935-.933-.935h-3.58c-.781 0-.934.154-.934.935v45.704c0 .753.168.934.934.934h3.58c.766 0 .933-.181.933-.934v-19.06l.321.265a15.695 15.695 0 009.947 3.541c8.679 0 15.714-7.027 15.714-15.685.014-8.673-7.035-15.7-15.714-15.7zm0 25.92a10.268 10.268 0 01-10.268-9.983v-.53c.14-5.549 4.695-9.983 10.268-9.983 5.67 0 10.267 4.587 10.267 10.248 0 5.66-4.597 10.248-10.267 10.248zM256.514 110.717c-8.833 0-15.994 7.026-15.994 15.685 0 8.658 7.161 15.685 15.994 15.685 8.832 0 15.993-7.027 15.993-15.685.014-8.672-7.147-15.685-15.993-15.685zm0 25.919c-5.768 0-10.449-4.587-10.449-10.248s4.681-10.248 10.449-10.248c5.767 0 10.448 4.587 10.448 10.248s-4.681 10.248-10.448 10.248zM220.57 110.674c-3.19 0-6.269 1.018-8.832 2.914l-.307.237v-21.22c0-.697-.237-.934-.933-.934h-3.762c-.766 0-.933.18-.933.934v48.409c0 .739.181.934.933.934h3.762c.696 0 .933-.237.933-.934v-15.811c0-5.312 3.998-8.951 9.139-8.993 5.029-.042 9.139 3.75 9.139 9.035v15.769c0 .795.139.934.933.934h3.762c.794 0 .933-.139.933-.934v-15.825c-.027-7.976-6.687-14.515-14.767-14.515zM167.937 133.334c-.543.836-.78 1.171-.905 1.366-.433.627-.377.92.278 1.464 1.518 1.227 3.469 2.51 4.792 3.151 3.665 1.785 7.635 2.733 11.828 2.817 2.717.139 6.116-.503 8.652-1.632 4.583-2.035 7.509-6.023 8.024-10.917.836-7.933-4.346-12.897-17.707-16.899-6.213-1.993-9.139-4.656-9.139-8.365.181-4.099 3.999-7.167 9.153-7.362 4.152.014 7.816 1.102 11.41 3.416.766.46 1.115.377 1.616-.293.056-.097.223-.334.906-1.31.641-.906.85-1.213.905-1.31.432-.81.362-1.116-.404-1.674-.766-.544-2.925-1.66-4.151-2.147-3.428-1.366-6.966-2.022-10.491-1.952-8.024.167-14.279 5.368-14.697 12.2-.265 4.922 2.243 8.895 7.495 11.823 1.477.767 6.84 2.803 9.362 3.528 7.132 2.077 10.852 5.911 10.086 10.429-.696 4.099-5.015 6.832-11.075 7.027-4.389-.098-8.819-1.701-12.664-4.573-.014-.014-.112-.084-.293-.223-.251-.182-.251-.182-.292-.21-.78-.543-1.24-.487-1.728.21-.083.097-.668 1.004-.961 1.436z"/>
  <path fill="#EE4D2D" fill-rule="evenodd" d="M138.706 152.892c4.319-.111 7.816-3.611 8.178-7.933l.028-.516 3.051-61.627v-.097a1.808 1.808 0 00-1.811-1.813h-19.63c-.473-12.743-9.626-22.894-20.841-22.894-11.215 0-20.354 10.15-20.827 22.894H67.197a1.811 1.811 0 00-1.784 1.813v.14l2.787 61.389.041.767c.432 4.266 3.539 7.71 7.788 7.863l62.357.014h.32zm-31.025-89.344c8.164 0 14.823 7.71 15.143 17.358H92.552c.306-9.648 6.965-17.358 15.129-17.358zm15.506 65.475c-.557 4.559-3.33 8.212-7.635 10.038-2.396 1.018-5.614 1.562-8.163 1.394-3.971-.153-7.704-1.115-11.145-2.872-1.227-.627-3.065-1.882-4.472-3.053-.363-.293-.404-.488-.168-.823.126-.195.362-.529.878-1.296.752-1.102.85-1.227.933-1.367.237-.362.627-.404 1.017-.097.042.027.042.027.07.055.07.042.07.042.209.168.153.111.237.181.279.209 3.705 2.886 8.038 4.559 12.399 4.726 6.074-.083 10.434-2.788 11.214-6.957.864-4.587-2.758-8.547-9.849-10.75-2.215-.697-7.816-2.914-8.847-3.513-4.848-2.831-7.118-6.525-6.798-11.113.488-6.344 6.422-11.07 13.903-11.098 3.344 0 6.687.683 9.892 2.022 1.142.474 3.162 1.575 3.859 2.091.404.293.487.641.251 1.004-.126.21-.349.558-.795 1.269v.014c-.599.934-.613.962-.752 1.185-.237.348-.515.39-.933.125-3.427-2.286-7.245-3.444-11.424-3.527-5.21.097-9.111 3.179-9.376 7.389-.07 3.793 2.8 6.568 8.972 8.673 12.58 3.987 17.372 8.686 16.481 16.104z" clip-rule="evenodd"/>
</svg>
