<svg xmlns="http://www.w3.org/2000/svg" width="120" height="56" fill="none" viewBox="0 0 120 56">
  <path fill="#141F47" d="M13.808.658H0v54.564h13.808V.658zM44.702.72L16.787 55.133h16.054l14.535-28.338C53.089 15.655 44.702.72 44.702.72z"/>
  <path fill="#2CA7DF" d="M53.211 17.304c.32 3.725-.06 7.657-1.886 11.216-1.29 2.518-2.741 5.34-4.207 8.202l9.438 18.404h16.055L53.218 17.317l-.007-.013z"/>
  <path fill="#141F47" d="M119.986 55.112L100.98 27.527 118.846.72h-14.324L89.255 23.622V.72H75.59v54.413h13.666v-10.01l4.302-6.45 10.456 16.46H120l-.014-.02z"/>
</svg>
