<svg xmlns="http://www.w3.org/2000/svg" width="446" height="238" fill="none" viewBox="0 0 446 238">
  <path fill="#008CEB" fill-rule="evenodd" d="M189.586 142.349c5.99.429 12.97-4.224 15.429-6.881 8.548-9.249 8.754-22.624.149-32.31-3.202-3.606-10.726-7.59-15.487-7.03h-17.236v46.163l17.186.058h-.041zm-7.426-10v-26.278a61.892 61.892 0 018.103 0 12.558 12.558 0 015.882 2.277c9.901 6.765 5.776 22.896-6.047 23.976a59.233 59.233 0 01-7.938.025zM340.896 142.432h9.827v-9.951h19.497l.057 9.901h9.827V125.98c0-4.951.412-11.122-.825-15.602a19.49 19.49 0 00-18.688-14.337 19.49 19.49 0 00-18.845 14.13c-1.32 4.423-.874 10.767-.874 15.677 0 5.544-.058 11.122 0 16.666l.024-.082zm9.835-19.959c-.057-4.125-.495-8.539 1.444-11.716a9.588 9.588 0 013.545-3.51 9.592 9.592 0 014.83-1.251 9.73 9.73 0 018.316 4.802c1.915 3.301 1.461 7.426 1.411 11.683l-19.546-.008zM228.521 142.423h9.794c0-2.079-.264-8.44.091-9.95h19.422l.066 9.942h9.81c-.049-5.511 0-11.015 0-16.501 0-4.703.437-11.436-.825-15.611a19.5 19.5 0 00-18.694-14.306 19.493 19.493 0 00-18.839 14.116c-1.311 4.291-.866 10.85-.866 15.627 0 5.512-.124 11.164 0 16.659l.041.024zm9.802-19.95c-.066-4.125-.487-8.597 1.452-11.708a9.66 9.66 0 0113.158-3.51 9.671 9.671 0 013.534 3.51c1.922 3.301 1.46 7.492 1.427 11.692l-19.571.016zM284.94 114.156l-.14 6.873c0 5.776-.281 16.559 0 21.254h9.604c.222-3.3-.347-26.741.255-27.491 0-4.555 4.761-8.796 9.563-8.812a9.59 9.59 0 016.7 2.673c1.221 1.114 3.094 3.655 3.061 6.221.445.256.09 24.752.231 27.467h9.612l-.075-28.011c.24-2.195-1.08-5.586-1.93-7.302a19.435 19.435 0 00-17.346-10.999 19.44 19.44 0 00-17.53 10.702c-.825 1.691-2.211 5.173-2.005 7.425z" clip-rule="evenodd"/>
  <path fill="#008CEB" d="M110.057 164.115c24.885 0 45.058-20.173 45.058-45.058 0-24.884-20.173-45.057-45.058-45.057C85.173 74 65 94.173 65 119.057c0 24.885 20.173 45.058 45.057 45.058z"/>
  <path fill="#FEFEFE" d="M136.311 119.247v12.681c0 .826-.355.999-1.048.595a23.031 23.031 0 00-2.887-1.469 19.575 19.575 0 00-9.481-1.262 45.41 45.41 0 00-10.263 2.574c-3.301 1.114-6.535 2.318-9.901 3.251a27.572 27.572 0 01-8.598 1.13 18.256 18.256 0 01-9.075-2.83 2.237 2.237 0 01-1.081-1.997v-24.917c0-.404 0-.883.363-1.089.363-.206.734.132 1.048.338a17.323 17.323 0 0010.024 2.97 26.716 26.716 0 007.492-1.394c3.432-1.064 6.749-2.475 10.124-3.672a61.245 61.245 0 018.061-2.475 17.507 17.507 0 0113.803 2.55 3.028 3.028 0 011.444 2.698v12.376l-.025-.058z"/>
</svg>
