<svg xmlns="http://www.w3.org/2000/svg" width="446" height="238" fill="none" viewBox="0 0 446 238">
  <path fill="#42B549" d="M328.391 100.938h7.428v36.025h-.508a6.92 6.92 0 01-6.92-6.922v-29.103zm-62.661 36.648c-4.775 1-9.75.177-13.949-2.307a18.4 18.4 0 01-8.896-11.029c-3.007-9.845 3.16-20.812 13.072-23.473a18.259 18.259 0 0114.102 1.784c7.436 4.161 10.142 10.591 9.673 18.874l-29.988-.062a10.293 10.293 0 005.482 7.691c2.984 1.669 5.729 2.069 8.274 1.277 2.83-.884 5.121-3.192 6.99-5.384l6.136 4.438c-2.492 4.484-5.906 7.122-10.896 8.191zm5.675-22.942a8.94 8.94 0 00-4.829-5.845c-6.444-3.6-12.78-.539-15.733 5.822l20.562.023zm101.754 2.107a8.463 8.463 0 00-3.338-7.014 11.843 11.843 0 00-7.558-2.384c-6.729 0-11.05 5.26-11.05 11.744 0 6.245 4.575 11.459 10.98 11.459 4.445 0 6.829-2.607 9.366-5.845v9.345a20.676 20.676 0 01-4.298 2.645 14.829 14.829 0 01-5.721.993c-10.704 0-17.77-8.86-17.77-19.066 0-5.261 1.637-9.606 4.929-12.998 3.491-3.592 8.058-5.384 13.664-5.384 10.626 0 18.224 6.099 18.224 17.12v19.597h-.523a6.92 6.92 0 01-6.921-6.922l.016-13.29zm-37.771-20.073a4.18 4.18 0 01-3.26 1.276 4.256 4.256 0 01-4.086-2.709 4.246 4.246 0 01-.289-1.705 4.15 4.15 0 014.375-4.345 4.255 4.255 0 014.065 2.661c.216.535.322 1.107.31 1.684a4.56 4.56 0 01-1.115 3.138zm-20.984 35.524c-3.414 3.669-7.805 5.492-13.134 5.492-5.613 0-10.196-1.939-13.679-5.83-3.276-3.682-4.911-8.278-4.906-13.79 0-9.729 7.513-17.858 17.386-17.858a20.818 20.818 0 0110.465 2.638v8.083c-2.684-1.815-6.044-3.546-9.366-3.546-6.92 0-11.049 4.769-11.049 11.537 0 6.768 4.36 11.675 11.188 11.675a9.714 9.714 0 007.689-3.5c2.03-2.307 3.076-5.73 3.076-10.306V91.709a6.922 6.922 0 016.92-6.922h.516v33.141c-.016 5.837-1.7 10.613-5.106 14.274zm-80.493.269a16.636 16.636 0 01-12.264 5.223 19.73 19.73 0 01-10.435-2.723v-7.968c2.676 1.815 6.044 3.553 9.366 3.553 6.92 0 11.049-4.768 11.049-11.536s-4.267-11.675-11.195-11.675a9.6 9.6 0 00-7.567 3.346c-2.099 2.415-3.183 5.868-3.183 10.436v31.479h-.523a6.922 6.922 0 01-6.921-6.922v-25.726c0-10.929 6.683-19.742 18.155-19.742 5.66 0 10.266 1.938 13.756 5.829 3.276 3.636 4.911 8.232 4.906 13.79a17.32 17.32 0 01-1.277 6.846 17.313 17.313 0 01-3.867 5.79zM114.095 110.575a10.354 10.354 0 00-7.851-3.222c-6.836 0-10.934 4.991-10.934 11.598 0 6.606 4.198 11.605 10.934 11.605 6.736 0 10.942-5.083 10.942-11.605a11.531 11.531 0 00-3.091-8.376zm73.126 0a10.354 10.354 0 00-7.851-3.222c-6.836 0-10.934 4.991-10.934 11.598 0 6.606 4.191 11.605 10.934 11.605 6.744 0 10.935-5.083 10.935-11.605a11.607 11.607 0 00-3.084-8.376zm5.383 21.835a19.083 19.083 0 01-26.359 0 17.87 17.87 0 01-5.521-13.459 18.762 18.762 0 0111.479-17.237 18.751 18.751 0 0120.347 3.839 17.835 17.835 0 015.559 13.413 17.87 17.87 0 01-5.521 13.444h.016zm-38.393-22.796a45.764 45.764 0 01-2.53 3.93 10.296 10.296 0 01-1.938 2.007c5.16 1.669 7.09 5.246 7.09 10.583v10.829h-.523a6.92 6.92 0 01-6.921-6.922v-3.153c0-3.453-1.538-5.799-5.205-5.799h-6.744v15.874h-.515a6.92 6.92 0 01-6.921-6.922V91.709a6.922 6.922 0 016.921-6.922h.523v29.088h2.191c2.415 0 4.006-.823 4.914-2.385l6.213-10.552h8.458l-5.013 8.676zm-34.749 22.796a18.458 18.458 0 01-13.218 5.284 18.314 18.314 0 01-13.149-5.284 17.86 17.86 0 01-5.528-13.459 18.388 18.388 0 0118.677-18.735 18.409 18.409 0 0113.18 5.337 17.85 17.85 0 015.559 13.413 17.873 17.873 0 01-5.521 13.444zm-43.168 4.553c-7.274 0-10.88-4.953-10.88-11.86V98.9a6.922 6.922 0 016.92-6.922h.523v8.96h12.549v7.153H72.849v17.843c0 3.03 1.353 3.846 4.252 3.846h8.305v7.144l-9.112.039z"/>
</svg>
