<svg xmlns="http://www.w3.org/2000/svg" width="120" height="69" fill="none" viewBox="0 0 120 69">
  <path fill="#fff" d="M13.808 0H0v54.564h13.808V0zM44.702.062L16.787 54.475h16.054l14.535-28.338C53.089 14.997 44.702.062 44.702.062z"/>
  <path fill="#2CA7DF" d="M53.211 16.645c.32 3.725-.06 7.657-1.886 11.217-1.29 2.517-2.741 5.339-4.207 8.201l9.438 18.405h16.055L53.218 16.659l-.007-.014z"/>
  <path fill="#fff" d="M119.986 54.454L100.98 26.868 118.846.062h-14.324L89.255 22.964V.062H75.59v54.412h13.666V44.465l4.302-6.45 10.456 16.46H120l-.014-.021z"/>
  <g>
    <path fill="#fff" d="M1.135 60.056v8.504H0v-8.504h1.135zM2.913 62.245h1.088v.99c.362-.618 1.19-1.081 2.14-1.081 1.518 0 2.434.87 2.434 2.883v3.523H7.488v-3.347c0-1.41-.554-2.07-1.723-2.07-1.156 0-1.771.723-1.771 2v3.417h-1.08v-6.315zM12.8 62.146c.882 0 1.846.393 2.256 1.221v-3.803h1.087v8.989h-1.087v-1.13c-.444.828-1.374 1.221-2.27 1.221-1.71 0-2.981-1.242-2.981-3.256 0-1.986 1.306-3.242 2.995-3.242zm.191 5.495c1.36 0 2.12-.976 2.12-2.232 0-1.29-.807-2.245-2.106-2.245-1.279 0-2.065.92-2.065 2.28 0 1.284.745 2.197 2.051 2.197zM17.511 65.396c.014-1.895 1.34-3.25 3.262-3.25 1.948 0 3.309 1.362 3.309 3.25 0 1.908-1.347 3.255-3.296 3.255-1.969 0-3.282-1.375-3.275-3.255zm3.275-2.232c-1.313 0-2.133.968-2.133 2.246 0 1.235.773 2.231 2.14 2.231 1.347 0 2.14-.99 2.14-2.196.007-1.305-.82-2.28-2.147-2.28zM28.8 68.651c-.896 0-1.84-.393-2.277-1.22v1.129h-1.087v-8.996h1.087v3.803c.41-.828 1.381-1.22 2.27-1.22 1.69 0 2.995 1.256 2.995 3.248-.007 2.014-1.272 3.256-2.988 3.256zm-.226-5.487c-1.306 0-2.106.954-2.106 2.245 0 1.256.76 2.232 2.12 2.232 1.313 0 2.065-.906 2.065-2.197 0-1.36-.786-2.28-2.078-2.28zM38.913 65.788h-4.896c.185 1.306 1.142 1.839 2.27 1.839.883 0 1.642-.323 2.031-.653v1.074c-.485.316-1.107.596-2.085.596-1.983 0-3.364-1.186-3.357-3.29.013-2.05 1.346-3.2 3.063-3.2 1.586 0 2.933.989 2.981 3.255v.38h-.007zm-4.91-.849h3.823c-.157-1.277-.896-1.782-1.88-1.782-1.122.007-1.826.632-1.942 1.782zM40.055 67.023c.567.457 1.395.632 2.085.632.711 0 1.142-.19 1.142-.73 0-.407-.212-.758-1.634-1.235-.985-.358-1.71-.863-1.71-1.824 0-1.15.999-1.684 2.202-1.712.745-.014 1.463.196 1.949.526v1.06a3.842 3.842 0 00-1.97-.583c-.485 0-1.052.127-1.052.674 0 .428.383.722 1.429 1.08 1.306.457 1.914.969 1.914 1.98 0 1.2-.916 1.767-2.331 1.767-.848 0-1.498-.189-2.017-.533v-1.102h-.007zM45.053 62.245h.875l.294-1.396h.794v1.396h1.928v.933h-1.928v3.361c0 .99.478 1.102.84 1.102.41 0 .876-.14 1.142-.316v.94c-.362.253-.93.386-1.38.386-.944 0-1.676-.456-1.676-1.817l-.014-3.663h-.875v-.926zM58.366 66.743h-3.658l-.615 1.817h-1.21l3.063-8.504h1.135l3.131 8.504h-1.21l-.636-1.817zm-.355-1.025l-1.498-4.28-1.463 4.28h2.96zM61.34 62.245h1.088v.828c.349-.632.882-.92 1.538-.92.342 0 .657.106.828.211v1.06c-.274-.19-.643-.246-.944-.246-.882 0-1.43.597-1.43 1.544v3.838h-1.086v-6.315h.007zM65.355 62.245h.875l.294-1.396h.793v1.396h1.928v.933h-1.928v3.361c0 .99.479 1.102.84 1.102.411 0 .876-.14 1.143-.316v.94c-.363.253-.93.386-1.381.386-.944 0-1.676-.456-1.676-1.817l-.013-3.663h-.876v-.926zM70.606 59.564h1.087v3.712c.314-.561 1.19-1.13 2.188-1.13 1.477 0 2.393.87 2.393 2.884v3.523h-1.087v-3.347c0-1.41-.554-2.07-1.69-2.07-1.189 0-1.804.884-1.804 2v3.417h-1.087v-8.989zM80.15 64.603c.602 0 1.177.119 1.724.358v-.162c0-1.116-.602-1.642-1.676-1.642-.84 0-1.675.358-2.085.758v-1.074c.479-.42 1.306-.694 2.222-.694 1.69 0 2.653.835 2.64 2.743v3.663h-1.088v-.722c-.307.392-1.066.813-2.153.813-1.204 0-2.154-.722-2.154-1.964-.007-1.306 1.046-2.077 2.57-2.077zm-.061 3.15c.773 0 1.381-.316 1.791-.87v-1.038a3.184 3.184 0 00-1.586-.407c-.984 0-1.6.463-1.6 1.186 0 .82.67 1.13 1.395 1.13zM90.872 63.67l3.131 4.883h-1.326l-2.571-3.992-1.135 1.312v2.673h-1.135v-8.49h1.135v4.23l3.685-4.23h1.347l-3.131 3.613zM95.131 62.245h1.088v.828c.348-.632.882-.92 1.538-.92.342 0 .656.106.827.211v1.06c-.273-.19-.642-.246-.943-.246-.882 0-1.43.597-1.43 1.544v3.838h-1.087v-6.315h.007zM105.265 65.788h-4.896c.185 1.306 1.142 1.839 2.271 1.839.882 0 1.641-.323 2.03-.653v1.074c-.485.316-1.107.596-2.085.596-1.983 0-3.364-1.186-3.357-3.29.013-2.05 1.347-3.2 3.063-3.2 1.586 0 2.933.989 2.981 3.255v.38h-.007zm-4.909-.849h3.822c-.157-1.277-.896-1.782-1.88-1.782-1.122.007-1.826.632-1.942 1.782zM108.834 64.603c.602 0 1.176.119 1.723.358v-.162c0-1.116-.602-1.642-1.675-1.642-.841 0-1.675.358-2.085.758v-1.074c.478-.42 1.305-.694 2.222-.694 1.689 0 2.653.835 2.639 2.743v3.663h-1.087v-.722c-.308.392-1.067.813-2.154.813-1.203 0-2.154-.722-2.154-1.964 0-1.306 1.053-2.077 2.571-2.077zm-.055 3.15c.773 0 1.382-.316 1.792-.87v-1.038a3.184 3.184 0 00-1.586-.407c-.985 0-1.6.463-1.6 1.186 0 .82.67 1.13 1.394 1.13zM113.087 67.023c.567.457 1.395.632 2.085.632.712 0 1.142-.19 1.142-.73 0-.407-.212-.758-1.634-1.235-.985-.358-1.709-.863-1.709-1.824 0-1.15.998-1.684 2.201-1.712.746-.014 1.464.196 1.949.526v1.06a3.841 3.841 0 00-1.969-.583c-.486 0-1.053.127-1.053.674 0 .428.383.722 1.429 1.08 1.306.457 1.914.969 1.914 1.98 0 1.2-.916 1.767-2.331 1.767-.848 0-1.498-.189-2.017-.533v-1.102h-.007zM118.687 60.554c0-.372.294-.674.656-.674.363 0 .657.302.657.674 0 .386-.294.687-.657.687-.362 0-.656-.301-.656-.687zm1.197 1.69v6.316h-1.088v-6.315h1.088z"/>
  </g>
</svg>
