<svg width="458" height="308" viewBox="0 0 458 308" fill="none" xmlns="http://www.w3.org/2000/svg">
<path d="M11.7224 263.506C11.7224 263.506 -8.04821 129.679 79.2892 94.7285C79.2892 94.7285 102.932 84.7685 132.283 86.7605C161.531 88.7525 197.404 82.0521 227.365 51.9005C257.327 21.7488 314.193 -2.9702 350.473 0.289444C386.753 3.54909 410.499 27.7248 412.333 48.7314C414.269 69.7379 409.072 88.9336 424.868 98.3504C440.664 107.767 463.186 112.928 455.543 153.855C447.9 194.781 440.766 235.436 415.288 263.506H11.7224Z" fill="#DFF1F3"/>
<path d="M427.814 305.9C407.686 307.942 386.683 306.191 366.653 306.191C332.329 306.191 298.103 306.191 263.779 306.191C225.566 306.191 187.255 306.191 149.042 306.191C127.845 306.191 106.551 306.191 85.3537 306.191C70.3796 306.191 55.211 306.191 40.2369 307.067C34.5973 307.358 28.666 307.358 23.5125 305.219C19.8176 303.663 16.4144 300.746 14.7614 297.051C12.7195 292.287 16.4144 288.398 15.0531 283.73C14.2752 280.91 11.1637 278.966 8.73288 277.702C1.63476 274.104 -2.64356 265.061 1.82923 257.769C3.87116 254.463 7.27436 252.129 10.9693 250.865C18.6508 248.142 27.3047 248.142 35.3751 248.142C42.9594 248.142 50.5437 249.115 58.128 249.115C89.8265 249.115 121.525 249.115 153.223 249.115C191.728 249.115 230.233 249.115 268.738 249.115C302.77 249.115 336.802 249.115 370.737 249.115C382.502 249.115 394.268 249.115 406.13 249.115C410.117 249.115 414.104 249.115 418.09 249.115C422.466 249.115 429.078 248.726 430.536 254.268C431.898 259.422 425.188 263.408 424.702 268.464C423.438 282.466 451.539 276.632 451.928 292.579C452.025 296.176 449.594 299.482 446.58 301.427C443.566 303.372 439.968 304.247 436.37 304.83C433.551 305.219 430.731 305.608 427.814 305.9Z" fill="#6699BE"/>
<rect x="36.0557" y="256.699" width="389.91" height="23.3363" rx="11.6681" fill="#4C7FA6"/>
<path d="M391.096 248.313H393.138V203.196H391.096V248.313Z" fill="#110809"/>
<path d="M410.02 257.769C410.02 251.06 398.254 248.337 392.323 248.337C385.322 248.337 374.626 250.865 374.626 257.769" stroke="#110809" stroke-width="2" stroke-miterlimit="10"/>
<path d="M392.129 259.519V248.434" stroke="#110809" stroke-width="2" stroke-miterlimit="10"/>
<path d="M371.709 259.422C371.709 260.978 372.974 262.339 374.627 262.339C376.182 262.339 377.544 261.075 377.544 259.422C377.544 257.866 376.279 256.505 374.627 256.505C372.974 256.505 371.709 257.769 371.709 259.422Z" fill="#110809"/>
<path d="M389.309 259.422C389.309 260.978 390.573 262.339 392.226 262.339C393.782 262.339 395.143 261.075 395.143 259.422C395.143 257.866 393.879 256.505 392.226 256.505C390.573 256.505 389.309 257.769 389.309 259.422Z" fill="#110809"/>
<path d="M406.811 259.422C406.811 260.978 408.075 262.339 409.728 262.339C411.284 262.339 412.645 261.075 412.645 259.422C412.645 257.866 411.381 256.505 409.728 256.505C408.075 256.505 406.811 257.769 406.811 259.422Z" fill="#110809"/>
<path d="M396.018 187.954V154.7C396.018 148.963 400.685 144.296 406.422 144.296H417.896C423.633 144.296 428.3 148.963 428.3 154.7V191.844C428.3 200.012 421.591 206.721 413.423 206.721H396.213H375.988C375.015 206.721 374.238 205.943 374.238 204.97C374.238 203.998 375.015 203.22 375.988 203.22H380.655C389.212 203.318 396.018 196.414 396.018 187.954Z" fill="#F7FAE6"/>
<path d="M241.61 111.042C241.123 110.167 240.832 109.194 240.54 108.222C239.665 105.11 239.665 101.61 237.817 98.8875C236.845 98.9847 236.456 100.249 236.359 101.221C236.067 104.819 236.359 108.514 236.651 112.111C236.748 112.986 236.845 113.959 237.137 114.834C237.526 115.806 238.206 116.584 238.887 117.362C240.151 118.918 243.554 124.752 245.791 123.974C247.346 123.391 248.027 119.793 247.541 118.432C246.86 116.39 245.402 115.709 243.943 114.348C242.971 113.375 242.193 112.209 241.61 111.042Z" fill="#F5A784"/>
<path d="M277.197 261.172C277.1 261.269 277.003 261.464 276.906 261.561C275.253 263.214 271.752 262.922 269.419 262.922C266.113 262.922 262.807 262.922 259.598 262.436C258.528 262.241 257.459 261.95 256.778 261.172C255.222 259.324 257.75 257.769 259.112 257.477C260.57 257.088 262.126 256.991 263.585 256.796C265.043 256.505 266.599 256.116 267.668 255.143C268.543 254.365 269.224 253.296 269.516 252.129C269.808 250.865 269.613 249.407 270.585 248.531C271.363 247.754 273.016 247.754 274.086 248.24C275.35 248.92 276.225 250.184 276.711 251.546C277.489 253.588 277.295 255.921 277.489 258.06C277.489 259.033 277.684 260.297 277.197 261.172Z" fill="#110809"/>
<path d="M265.043 198.164C265.14 197.581 265.238 197.094 265.335 196.511C266.404 190.288 268.544 184.551 270.099 178.523C272.141 170.16 274.28 161.895 277.003 153.728C278.17 150.422 279.045 146.143 280.698 143.129C282.254 140.309 284.393 140.504 287.699 141.184C289.546 141.573 291.491 141.962 292.852 143.226C293.727 144.102 294.213 145.268 294.7 146.338C297.325 152.658 298.394 158.492 298.881 165.104C299.27 169.674 298.297 173.077 297.13 177.258C295.866 182.023 295.964 186.399 293.144 190.774C291.296 193.691 288.768 196.316 287.699 199.622C286.629 202.928 286.726 206.429 285.657 209.735C284.684 212.652 283.323 215.374 282.059 218.194C280.698 221.403 280.503 224.903 280.406 228.404C280.114 237.058 279.725 245.712 279.434 254.365C275.447 253.49 271.363 252.712 267.377 251.837C266.793 251.74 266.21 251.546 265.918 251.157C265.529 250.671 265.529 249.99 265.626 249.407C266.307 238.808 265.043 228.209 264.557 217.611C264.071 211.291 264.071 204.679 265.043 198.164Z" fill="#414141"/>
<path d="M316.577 265.158C316.48 265.256 316.383 265.45 316.286 265.547C314.633 267.2 311.132 266.909 308.799 266.909C305.493 266.909 302.187 266.909 298.978 266.422C297.908 266.228 296.839 265.936 296.158 265.158C294.602 263.311 297.131 261.755 298.492 261.464C299.95 261.075 301.506 260.977 302.965 260.783C304.423 260.491 305.979 260.102 307.049 259.13C307.924 258.352 308.604 257.282 308.896 256.116C309.188 254.852 308.993 253.393 309.966 252.518C310.743 251.74 312.396 251.74 313.466 252.226C314.73 252.907 315.605 254.171 316.091 255.532C316.869 257.574 316.675 259.908 316.869 262.047C316.966 263.019 317.064 264.186 316.577 265.158Z" fill="#110809"/>
<path d="M272.141 89.8446C271.947 89.7474 271.752 89.7474 271.558 89.6501C269.905 89.0667 268.738 87.6082 268.155 86.0525C267.571 84.4967 267.474 82.6493 267.571 80.9963C267.668 79.7322 267.766 78.4682 267.668 77.1069C267.571 75.8428 267.279 74.4816 267.571 73.2175C268.446 70.0088 272.336 69.6198 275.155 69.7171C278.461 69.8143 282.254 71.759 284.004 74.5788C284.976 76.1345 285.268 78.0792 284.49 79.635C283.907 80.9963 282.642 81.8714 281.281 82.4548C283.226 84.6912 285.171 86.8303 287.115 89.0667C288.865 91.0114 291.005 92.8589 291.685 95.4842C292.074 97.04 290.032 97.4289 289.254 96.3593C288.768 95.6787 288.088 94.998 287.31 94.4146C287.115 95.6787 286.24 96.3593 285.171 96.3593C285.073 97.4289 283.907 98.304 282.837 97.9151C278.85 96.4565 277.489 91.4976 273.405 90.1363C273.016 90.0391 272.627 89.9418 272.141 89.8446Z" fill="#F5A784"/>
<path d="M285.948 103.263C285.365 101.124 282.448 96.7483 283.517 94.8036C284.392 93.1506 286.532 92.5672 288.282 92.8589C290.129 93.1506 291.685 94.2202 293.144 95.2898C301.603 101.513 308.215 110.167 312.59 119.696C313.466 121.738 314.341 123.877 314.535 126.113C314.73 128.447 314.243 130.78 313.66 133.114C311.326 143.032 309.09 153.047 306.756 162.965C304.325 164.035 301.408 161.993 300.436 159.562C299.464 157.034 299.95 154.311 300.339 151.589C300.825 148.283 301.311 145.074 301.7 141.768C302.089 138.17 302.381 134.281 300.728 131.072C299.95 129.711 298.88 128.447 298.394 126.891C298.102 125.919 298.2 124.849 297.811 123.877C297.033 121.64 294.505 120.279 293.046 118.432C291.296 116.098 289.546 113.181 288.379 110.556C287.504 108.222 286.629 105.694 285.948 103.263Z" fill="#0672BA"/>
<path d="M272.238 120.571C272.238 116.876 271.266 113.278 270.002 109.875C268.835 106.472 266.891 103.263 266.015 99.7625C265.918 99.2764 265.821 98.6929 265.918 98.2068C266.113 97.3317 266.793 96.7483 267.571 96.1648C272.238 92.9561 279.142 91.4976 284.782 91.6921C292.949 92.081 298.978 99.1791 299.853 107.055C300.339 111.236 299.659 115.515 298.783 119.696C297.908 123.877 296.839 127.961 296.547 132.142C296.353 135.059 296.547 137.878 296.644 140.795C296.742 143.518 297.325 146.435 294.408 147.699C287.407 150.908 279.92 149.158 276.128 142.254C274.378 139.045 273.6 135.448 272.919 131.85C272.141 128.058 272.238 124.266 272.238 120.571Z" fill="#0672BA"/>
<path d="M247.054 115.806C250.069 118.723 253.083 121.543 256.097 124.46C256.972 125.335 257.945 126.21 259.014 126.794C259.986 122.807 260.667 118.723 261.737 114.737C262.709 111.139 262.417 107.444 263.098 103.749C263.39 101.999 263.973 100.638 264.945 99.3736C265.918 98.2068 266.404 96.651 267.862 95.8732C268.251 95.6787 268.64 95.5815 269.029 95.387C269.904 94.9008 270.682 93.9285 271.752 93.9285C271.946 93.9285 272.141 94.0257 272.238 94.1229C272.335 94.2202 272.433 94.3174 272.433 94.5119C272.724 95.1925 272.627 95.9704 272.724 96.651C272.724 98.1095 272.919 99.8598 273.599 101.221C274.28 102.485 274.863 103.555 275.35 104.916C276.419 108.125 277.197 111.528 277.003 115.028C276.905 117.362 275.641 118.529 274.863 120.668C274.086 123.002 273.891 125.432 273.405 127.863C272.335 133.114 269.807 138.17 266.015 142.06C265.432 142.74 264.751 143.324 263.876 143.615C257.361 145.657 252.111 137.198 248.61 133.114C244.915 128.933 241.512 123.391 239.762 118.14C241.317 116.487 242.97 114.931 244.721 113.57C245.401 114.25 246.276 115.028 247.054 115.806Z" fill="#0672BA"/>
<path d="M289.546 135.35C290.616 134.864 291.782 134.573 292.949 134.475C293.63 134.378 295.283 133.892 295.964 134.378C296.644 134.864 296.839 136.712 297.228 137.587C298.492 140.018 300.436 141.962 302.187 143.907C305.006 146.921 307.534 150.227 309.674 153.728C310.938 155.672 312.104 157.812 312.493 160.048C313.466 165.007 310.646 169.382 310.549 174.244C310.451 179.203 313.271 183.676 314.244 188.44C315.605 195.539 312.98 202.831 313.077 210.124C313.174 213.819 313.952 217.514 314.633 221.208C316.772 233.363 316.675 245.712 316.675 257.963C313.952 257.671 311.132 257.38 308.41 257.185C307.437 257.088 306.368 256.991 305.59 256.407C305.006 256.018 304.52 255.435 304.131 254.754C298.783 246.587 300.534 236.572 298.492 227.334C296.839 219.944 295.283 212.652 293.727 205.262C293.144 202.539 292.171 199.817 291.491 196.997C290.227 191.649 289.546 186.399 287.99 181.051C286.24 175.119 284.101 168.799 283.323 162.771C283.129 161.312 278.559 143.713 276.808 144.782C281.378 141.962 284.879 137.295 289.546 135.35Z" fill="#686868"/>
<path d="M264.362 74.4816C263.001 73.2175 262.029 71.5645 262.709 69.6199C263.39 67.5779 265.821 66.3139 267.863 66.7028C269.419 66.9945 270.683 68.0641 272.238 68.3558C274.961 69.0365 277.975 67.3835 280.698 68.0641C281.865 68.3558 282.934 69.1337 283.712 70.106C284.49 71.1756 284.782 72.4397 285.559 73.5092C286.726 75.1622 288.768 75.9401 290.616 76.6207C292.171 77.2042 294.797 77.7876 295.672 79.3433C296.255 80.4129 296.547 81.6769 296.353 82.8438C296.255 83.3299 296.158 83.8161 296.158 84.3023C296.255 85.4691 297.228 86.3442 297.908 87.2193C299.367 89.0668 299.95 91.7893 298.881 93.9285C298.103 95.387 296.741 96.3594 295.38 97.04C294.408 97.5262 293.338 98.0123 292.171 98.1096C288.379 98.4985 284.587 97.4289 281.865 94.6091C279.628 92.3727 278.461 89.2612 278.461 86.0525C278.461 84.4967 278.753 82.7465 277.586 81.6769C276.711 80.8018 275.642 80.7046 275.35 79.3433C275.155 78.371 275.739 77.3014 275.155 76.4263C274.766 75.7456 273.989 75.2595 273.211 75.065C272.141 74.7733 270.974 74.9678 269.905 75.2595C267.863 75.6484 266.21 75.9401 264.46 74.4816C264.46 74.5788 264.46 74.5788 264.362 74.4816Z" fill="#3C2101"/>
<path d="M274.572 80.9963C274.572 80.7046 274.669 80.3157 274.669 80.024C274.669 79.7323 274.572 79.3433 274.669 79.0516C274.864 78.371 275.739 77.9821 276.42 78.1765C277.1 78.371 277.684 78.9544 278.073 79.5378C278.85 80.8019 278.85 82.8438 277.197 83.5244C276.031 84.0106 274.572 82.7465 274.475 81.4825C274.572 81.288 274.572 81.0936 274.572 80.9963Z" fill="#F5A784"/>
<path d="M271.071 83.6216C270.877 84.205 270.585 84.6912 270.099 84.9829C269.613 85.2746 268.932 85.2746 268.543 84.8857C268.349 84.6912 268.252 84.4967 268.154 84.3022C268.057 84.0105 267.96 83.6216 267.96 83.3299V83.2327C267.96 83.2327 267.96 83.3299 267.96 83.2327" fill="white"/>
<path d="M139.513 27.0313C139.61 25.2811 139.319 23.5309 139.222 21.8779C139.222 21.0028 139.124 20.2249 138.93 19.3498C138.93 19.1553 138.833 18.9608 138.735 18.7664C138.541 18.4747 138.249 18.3774 137.957 18.183C137.277 17.8913 136.499 17.5995 135.916 17.9885C135.721 18.0857 135.527 18.3774 135.429 18.5719C134.554 19.8359 134.165 21.2945 133.874 22.753C133.679 23.7253 133.776 25.9617 132.901 26.4479C133.387 26.1562 132.61 22.2668 131.443 22.6557C131.151 22.753 130.957 23.0447 130.957 23.3364C130.957 23.6281 130.957 23.9198 131.054 24.2115C131.345 26.3507 130.081 28.4898 130.179 30.7262C130.276 32.1847 130.957 33.546 131.151 34.9073C131.346 36.3658 131.54 38.0188 131.443 39.4773C131.346 40.5469 131.443 44.0473 130.276 44.6307C131.832 43.8529 133.679 43.5612 135.332 44.0473C135.624 42.0054 136.013 39.8663 136.304 37.8243C136.499 36.463 136.693 35.1018 137.277 33.8377C137.957 32.0875 139.221 30.4345 139.61 28.4898C139.416 27.9064 139.513 27.5175 139.513 27.0313Z" fill="#F5A784"/>
<path d="M110.245 257.574C110.44 257.769 110.634 257.866 110.829 258.061C113.163 259.714 115.982 260.394 118.608 261.269C119.969 261.756 123.956 262.825 122.108 264.964C120.261 267.103 116.177 266.617 113.746 266.423C111.121 266.228 108.495 265.645 105.87 265.839C104.217 265.937 102.564 266.326 100.911 266.034C95.1741 265.159 98.0912 257.185 98.0912 253.296C98.0912 249.504 97.9939 245.712 98.9663 242.017C99.3552 240.364 100.23 238.614 101.786 238.128C102.758 237.739 104.411 238.03 105.384 238.419C106.551 238.905 106.842 239.878 107.134 241.045C108.204 244.837 108.495 248.921 108.398 252.81C108.398 253.782 108.301 254.657 108.69 255.532C109.079 256.31 109.565 256.991 110.245 257.574Z" fill="#111314"/>
<path d="M91.8683 76.9125C91.9655 77.107 91.9655 77.3987 92.0627 77.5932C92.3544 78.4683 92.2572 79.4406 92.3544 80.413C92.5489 82.066 92.5489 83.7189 92.8406 85.2747C93.2295 87.3166 98.5774 96.6511 100.522 96.5539C102.759 96.5539 104.412 87.5111 104.12 85.3719C103.634 82.4549 102.078 76.7181 102.078 76.6208C101.397 74.8706 100.328 73.1204 98.5774 72.2453C96.73 71.3702 94.2019 71.5646 92.2572 71.7591C91.9655 71.7591 91.5766 71.8563 91.3821 72.0508C90.8959 72.4397 90.9931 73.2176 91.0904 73.801C91.3821 74.9678 91.5766 75.9402 91.8683 76.9125Z" fill="#F5A784"/>
<path d="M100.814 61.1606C99.3555 60.5772 96.8275 62.7163 95.1745 63.1053C93.6187 63.6887 91.2851 64.3693 90.3127 65.6334C88.2708 68.3559 89.2432 72.537 91.0906 75.2596C91.3823 75.7458 92.063 76.9126 92.4519 77.3987C95.2717 80.8019 99.6473 80.6075 101.786 79.8296C104.315 78.8573 105.481 76.5236 105.481 73.4121C105.481 72.8287 105.287 71.0785 105.19 70.4951C104.898 67.0919 102.467 61.744 100.814 61.1606Z" fill="#F5A784"/>
<path d="M102.759 55.0349C102.467 55.1321 102.078 55.3266 101.884 55.521C100.231 56.4934 98.1886 56.4934 96.2439 56.8823C93.4241 57.3685 90.5071 58.827 89.0486 61.4523C87.2011 64.5638 88.3679 68.5505 89.3403 71.8564C89.4375 72.0509 89.4375 72.3426 89.5347 72.5371C90.7016 74.6762 92.2573 72.8288 92.4518 71.273C92.549 70.2034 92.4518 69.2311 92.6462 68.1615C93.0352 65.8279 95.2716 63.8832 97.6052 64.0777C99.8416 64.2721 102.467 63.5915 103.537 61.4523C104.412 59.7021 104.606 57.6602 103.925 55.8127C103.828 55.521 103.731 55.3266 103.537 55.1321C103.342 54.8404 103.05 54.9376 102.759 55.0349Z" fill="#1E1E1E"/>
<path d="M105.287 68.8422C105.287 68.9394 105.287 69.0366 105.287 69.2311C105.19 69.2311 105.092 69.1339 104.995 69.1339C103.828 67.5781 103.731 65.4389 102.564 63.8832C102.078 63.2025 101.397 63.2025 100.911 62.6191C100.328 61.8413 100.717 60.2855 101.495 59.7993C102.175 59.3132 103.245 59.4104 103.828 60.091C104.023 60.2855 104.12 60.5772 104.217 60.7717C104.801 62.3274 104.898 64.0777 104.995 65.7306C105.092 66.703 105.384 67.8698 105.287 68.8422Z" fill="#1E1E1E"/>
<path d="M92.2575 73.9956C92.063 74.3845 91.6741 74.7735 91.2851 74.9679C90.7989 75.1624 90.3128 75.1624 89.9238 74.8707C89.2432 74.4818 88.757 73.1205 88.6598 72.4398C88.5625 71.7592 88.8543 70.9813 89.4377 70.5924C91.3824 69.0366 93.1326 72.2454 92.2575 73.9956Z" fill="#F5A784"/>
<path d="M105.968 68.6476C105.968 68.7448 105.968 68.7448 105.968 68.6476C105.968 69.0365 106.065 69.4255 105.968 69.8144C105.87 70.2033 105.676 70.5923 105.384 70.7868C104.703 71.1757 103.731 70.3978 103.439 69.8144C103.05 69.0365 103.05 68.0642 103.439 67.2863C103.731 66.8001 104.315 66.314 104.898 66.4112C105.287 66.5084 105.579 66.8001 105.773 67.1891C105.968 67.578 105.968 67.9669 105.968 68.3559C105.968 68.4531 105.968 68.5504 105.968 68.6476Z" fill="#F5A784"/>
<path d="M115.302 88.289C115.107 87.9001 114.621 87.8029 114.135 87.7056C112.871 87.4139 111.607 87.025 110.343 86.636C109.176 86.2471 108.106 85.7609 106.842 85.4692C106.551 85.372 106.259 85.372 105.87 85.2748C105.676 85.1775 105.384 85.0803 105.189 84.9831C104.8 84.7886 104.314 84.5941 103.925 84.3997C104.12 85.7609 103.925 87.3167 103.05 88.3863C101.883 89.8448 99.7442 90.331 97.994 90.0393C96.341 89.8448 94.6881 88.8724 93.9102 87.3167C93.5212 86.4416 93.0351 85.5665 92.6461 84.5941C91.9655 84.4969 90.507 84.8858 90.118 84.9831C88.7567 85.2748 87.4927 85.5665 86.1314 85.9554C84.0895 86.4416 82.0476 87.025 80.1029 87.6084C77.9637 89.3586 80.2001 92.3729 79.9084 93.7342C79.0333 97.7208 79.5195 146.046 79.5195 146.046L112.093 145.56C112.288 142.643 112.482 139.726 112.676 136.809C113.065 130.489 113.454 124.071 113.746 117.751C114.038 111.625 114.427 105.597 114.524 99.471C114.524 98.3042 114.524 97.1374 114.524 95.9706C114.524 94.9982 114.427 94.1231 114.524 93.248C114.524 93.1508 114.524 93.1508 114.524 93.0535C114.718 91.6922 115.302 90.331 115.302 88.8724C115.399 88.7752 115.399 88.4835 115.302 88.289Z" fill="#0672BA"/>
<path d="M117.149 156.062C116.955 153.339 116.858 150.616 116.663 147.894C116.566 145.755 116.371 143.616 115.302 141.865C113.843 139.434 109.565 137.101 107.037 135.74C103.439 133.795 98.9665 134.864 95.855 137.198C92.549 139.629 90.5071 143.518 89.1458 147.408C87.0067 153.825 86.8122 160.923 88.4652 167.438C89.3403 170.938 91.3822 174.828 91.4795 178.523C91.5767 182.898 89.8265 186.69 91.6739 191.066C92.6463 193.302 94.202 195.15 95.1744 197.386C96.7301 200.789 96.5357 204.679 96.4384 208.471C95.855 223.251 95.2716 238.03 94.6882 252.81H110.926C112.19 244.253 113.357 235.697 114.427 227.14C115.399 219.264 116.274 211.388 117.052 203.512C118.413 187.566 117.927 172.008 117.149 156.062Z" fill="#414141"/>
<path d="M56.6696 255.824C56.5723 256.116 56.5723 256.408 56.6696 256.699C56.864 257.574 58.1281 258.158 58.7115 258.936C59.7811 260.297 61.5313 260.686 63.1843 260.88C64.74 261.075 67.8515 260.88 68.7266 262.533C68.9211 262.825 68.9211 263.214 68.9211 263.506C68.5322 267.687 61.3368 266.714 58.517 266.52C55.8917 266.325 53.3636 266.131 50.7383 266.034C46.9461 265.742 43.6401 264.186 45.0014 259.811C45.2931 258.936 45.6821 258.061 46.071 257.185C47.0433 255.046 48.0157 252.907 49.0853 250.768C49.8632 249.018 50.7383 247.17 52.294 245.906C54.0442 244.35 58.517 243.67 59.4894 246.587C59.7811 247.559 59.4894 248.629 59.1004 249.698C58.6143 250.962 58.2253 252.324 57.7391 253.588C57.4474 254.171 56.864 255.046 56.6696 255.824Z" fill="#111314"/>
<path d="M100.522 138.073C100.425 137.295 100.328 136.42 99.8416 135.934C99.4526 135.448 98.772 135.253 98.2858 134.864C96.8273 133.698 97.5079 133.017 94.9798 132.725C93.1324 132.433 91.2849 132.433 89.4375 132.628C86.2287 133.017 82.8255 134.184 80.5891 136.615C76.6025 140.893 74.755 147.019 74.1716 152.756C73.3938 160.437 74.3661 168.313 73.3938 175.995C72.8104 180.565 71.6435 184.94 70.8657 189.51C70.4767 192.038 70.185 194.664 69.0182 196.997C68.2403 198.553 67.0735 199.914 66.0039 201.373C61.4339 207.887 61.4339 215.763 58.8086 223.056C55.7943 231.515 50.3492 242.795 47.0432 251.157C47.6266 251.351 48.0156 251.546 48.3073 251.643C49.5713 252.226 50.8354 252.713 52.0994 253.199C54.6275 254.171 57.0584 255.435 59.392 256.602C65.0316 246.879 73.2965 234.432 79.1306 224.904C84.8674 215.472 90.7015 207.207 93.9103 196.317C99.2581 177.55 102.37 157.52 100.522 138.073Z" fill="#686868"/>
<path d="M100.814 120.376C100.911 120.085 100.911 119.793 101.008 119.501C101.884 114.542 102.37 109.486 102.759 104.527C102.953 101.999 103.148 99.471 103.245 96.9429C103.342 94.8037 103.731 92.7618 103.925 90.6226C104.023 88.7752 104.217 86.8305 105.481 85.372C105.578 85.372 105.676 85.372 105.773 85.372C109.273 84.5941 112.288 81.3854 114.719 77.9821C115.107 77.7877 115.496 77.7877 115.885 77.8849C116.566 78.1766 116.955 78.9545 117.149 79.7324C117.636 82.066 117.149 84.4969 117.344 86.9277C117.441 89.0669 117.733 90.8171 117.733 92.9563C117.636 95.2899 118.024 97.5263 117.052 99.7627C115.885 102.291 116.08 104.916 116.177 107.736C116.663 123.391 117.83 138.948 119.289 154.506C119.386 154.797 118.9 154.992 118.608 154.992C114.719 155.186 110.926 154.895 107.037 154.506C106.356 154.408 105.578 154.408 104.995 154.02C104.412 153.728 104.023 153.242 103.731 152.658C101.689 149.45 101.689 145.755 101.495 142.06C101.203 137.684 101.008 133.406 100.717 129.03C100.619 127.377 100.328 125.627 100.425 123.974C100.231 122.807 100.522 121.543 100.814 120.376Z" fill="#141F47"/>
<path d="M76.0189 118.918C74.6577 129.419 72.713 139.921 71.4489 150.422C71.3517 151.394 70.7683 152.853 71.6434 153.534C72.1296 153.922 72.713 154.02 73.2964 154.117C77.4775 154.798 81.6585 155.187 85.8396 155.187C89.0484 155.187 93.6184 155.77 96.4382 154.02C99.1608 152.367 99.8414 148.866 100.23 145.755C100.911 141.379 101.494 137.101 101.689 132.725C101.786 130.683 101.786 128.641 101.494 126.6C101.203 124.558 101.397 122.418 101.105 120.377C100.911 119.015 100.425 117.654 99.9386 116.293C98.0912 111.139 96.5354 105.889 95.2714 100.541C94.0073 95.3873 93.3267 90.1366 92.3543 84.8859C92.3543 84.8859 92.3543 84.7887 92.2571 84.7887C92.2571 84.7887 92.1599 84.7887 92.0626 84.7887C90.4096 84.7887 88.7567 85.1776 87.1037 85.2749C85.5479 85.3721 83.9922 85.2749 82.4364 85.3721C80.8807 85.5666 79.3249 86.15 78.3526 87.3168C76.7968 89.2615 76.894 92.2758 76.9913 94.7066C77.0885 96.943 77.4775 99.0822 77.4775 101.319C77.283 107.347 76.6996 113.181 76.0189 118.918Z" fill="#141F47"/>
<path d="M61.9198 169.674C61.9198 167.827 60.9475 166.077 59.9751 164.424C59.8779 164.229 59.6834 164.035 59.5862 163.84C59.3917 163.743 59.1 163.646 58.9055 163.743C58.8083 163.84 58.7111 163.938 58.6138 164.035C57.447 165.882 58.5166 166.757 59.6834 168.021C60.0723 168.508 60.5585 169.091 60.364 169.674C60.2668 169.966 59.9751 170.258 59.6834 170.452C59.2945 170.841 59.0028 172.397 60.0723 171.911C61.1419 171.522 61.9198 170.841 61.9198 169.674Z" fill="#F5A784"/>
<path d="M62.1146 175.217C62.1146 173.758 62.3091 171.911 61.2395 170.744C60.3644 169.772 58.7114 169.48 57.3501 169.285C53.7524 168.994 52.3912 171.133 51.905 174.342C51.8077 175.217 53.0718 175.314 53.2663 174.536C53.4607 173.467 53.558 172.202 54.4331 171.425C55.3082 170.452 56.6695 170.55 57.9335 170.647C59.1976 170.841 60.3644 171.133 60.7533 172.494C61.045 173.369 60.8506 174.439 60.9478 175.314C60.8506 176.286 62.1146 176.092 62.1146 175.217Z" fill="#111314"/>
<path d="M60.6561 162.673C60.4616 163.549 60.1699 164.424 60.0727 165.396C59.8782 166.757 60.2672 168.021 60.4616 169.285C60.5589 170.258 60.7534 171.619 59.8782 172.397C59.4893 172.786 58.9059 172.883 58.3225 172.883C56.6695 172.883 55.1138 171.911 54.4331 170.452C53.9469 169.48 53.8497 168.41 53.7525 167.244C53.558 164.229 55.3082 161.701 56.475 158.979C56.7667 158.298 57.2529 157.131 58.0308 156.839C59.1004 156.353 60.0727 157.034 60.5589 158.006C61.0451 159.076 61.0451 160.34 60.8506 161.409C60.8506 161.896 60.7534 162.285 60.6561 162.673Z" fill="#F5A784"/>
<path d="M74.6578 205.068L32.9442 199.817C32.458 199.72 32.0691 199.234 32.0691 198.748L35.3751 172.689C35.4723 172.203 35.9585 171.814 36.4446 171.814L78.1583 177.064C78.6444 177.162 79.0334 177.648 79.0334 178.134L75.7274 204.193C75.7274 204.776 75.2412 205.165 74.6578 205.068Z" fill="#0E398A"/>
<path d="M78.7417 178.134L56.2805 186.496C56.0861 186.593 55.7944 186.593 55.5999 186.399L35.8613 172.689C35.2779 172.3 35.6668 171.425 36.3475 171.522L78.5472 176.87C79.2279 176.967 79.4223 177.939 78.7417 178.134Z" fill="#141F47"/>
<path d="M56.5723 186.107C56.6695 185.329 55.4055 185.135 55.3083 185.913C55.3083 186.69 55.211 187.468 55.0166 188.246C54.9193 189.024 56.1834 189.219 56.2806 188.441C56.4751 187.663 56.5723 186.885 56.5723 186.107Z" fill="#141F47"/>
<path d="M76.3108 88.4835C71.7408 91.9839 68.7265 97.5263 67.7541 103.263C67.4624 104.819 67.3652 106.472 66.7818 107.93C66.1984 109.292 65.3233 110.458 64.4482 111.723C62.1145 115.223 60.4616 119.112 59.7809 123.293C59.003 127.961 59.2947 132.822 58.3224 137.49C56.6694 145.463 54.5303 152.95 53.8496 161.118C54.6275 161.312 62.6007 162.771 62.5035 163.257C63.7675 159.756 65.0316 156.256 66.1984 152.755C67.0735 149.936 68.3376 147.602 69.4071 144.879C71.1574 140.796 70.4767 135.837 72.9076 132.142C73.8799 130.683 75.144 129.516 76.2136 128.155C79.3251 123.877 78.8389 117.848 81.4642 113.181C82.9227 110.556 85.1591 108.514 86.5204 105.888C88.854 101.221 87.59 95.8733 86.7149 90.9143C86.0342 87.0249 83.9923 84.5941 79.9085 86.4415C78.5472 86.9277 77.3804 87.7056 76.3108 88.4835Z" fill="#141F47"/>
<path d="M103.342 124.169C103.342 124.947 102.759 125.53 101.981 125.53C101.203 125.53 100.619 124.947 100.619 124.169C100.619 123.391 101.203 122.807 101.981 122.807C102.759 122.71 103.342 123.391 103.342 124.169Z" fill="#111314"/>
<path d="M103.342 132.725C103.342 133.503 102.759 134.087 101.981 134.087C101.203 134.087 100.619 133.503 100.619 132.725C100.619 131.947 101.203 131.364 101.981 131.364C102.759 131.267 103.342 131.947 103.342 132.725Z" fill="#111314"/>
<path d="M129.012 36.7548C127.553 40.8386 127.456 46.1865 126.678 50.4648C126.387 51.8261 126.192 53.1874 125.609 54.4514C124.831 56.2017 123.567 57.5629 122.692 59.3132C121.039 62.5219 121.136 66.4113 119.872 69.8145C117.83 75.2596 112.579 78.8573 109.954 84.0107C107.231 89.2614 107.134 95.9706 107.815 102.194C108.107 104.43 108.398 106.569 108.787 108.611C109.76 113.862 118.997 103.749 120.455 102.194C125.317 97.0402 129.693 91.2061 131.346 84.2052C131.832 82.2605 132.026 80.2186 132.415 78.2739C132.804 76.1347 133.485 74.0928 133.971 72.0509C136.207 63.397 138.347 53.868 138.152 44.9225C138.055 42.4916 137.958 39.9635 137.958 37.5326C135.041 37.4354 132.026 37.2409 129.012 36.7548Z" fill="#141F47"/>
<path d="M90.6042 84.8858C90.507 85.4692 90.4097 87.1222 90.4097 87.3167C90.3125 88.4835 90.2153 89.5531 90.0208 90.7199C89.8263 92.9563 89.5346 95.0955 89.3402 97.3318C89.3402 97.7208 89.2429 98.1097 89.2429 98.4987L93.5212 99.6655L90.2153 103.652L100.911 119.987C100.036 115.806 99.1608 111.528 98.2857 107.347C97.4106 103.458 96.341 99.5682 95.3687 95.7761C94.3964 92.0812 93.5212 88.289 92.5489 84.5941C91.8683 84.5941 91.2848 84.6913 90.6042 84.7886C90.7014 84.6913 90.7014 84.7886 90.6042 84.8858Z" fill="#0E398A"/>
<path d="M107.037 90.4283C106.745 88.678 106.55 86.9278 106.356 85.1776C105.481 85.1776 104.703 84.8859 103.925 84.4969C103.925 85.0804 103.828 86.8306 103.731 87.1223C103.633 88.0946 103.536 89.067 103.439 90.0393C103.147 91.8868 102.758 93.637 102.369 95.4844C101.689 99.1794 101.689 103.069 101.494 106.861C101.397 109 101.3 111.236 101.203 113.376C101.203 114.445 101.105 115.515 101.105 116.682C101.105 117.265 101.008 117.848 101.008 118.432C101.008 118.724 101.105 119.599 100.911 119.89L107.62 103.652L103.925 99.6655C104.022 99.7628 105.967 99.0821 106.162 99.0821C106.648 98.9849 107.134 98.7904 107.62 98.6932C107.912 98.596 108.203 98.596 108.203 98.4015C108.301 98.1098 108.009 97.2347 107.912 96.943C107.717 94.7066 107.328 92.5674 107.037 90.4283Z" fill="#0E398A"/>
<path d="M343.122 261.463C342.928 261.95 342.636 262.436 342.247 262.922C339.914 265.839 335.635 266.131 332.232 267.686C330.676 268.367 328.44 270.506 329.996 272.256C331.065 273.521 333.691 273.326 335.149 273.229C340.205 272.84 345.262 272.256 350.22 271.381C350.707 271.284 351.193 271.187 351.485 270.895C352.068 270.409 352.068 269.631 352.165 268.951C352.36 264.38 352.36 259.713 352.262 255.143C352.262 255.143 345.942 254.949 345.359 255.24C343.997 255.824 344.192 256.893 344.095 258.157C343.803 259.422 343.609 260.491 343.122 261.463Z" fill="#110809"/>
<path d="M381.725 267.395C381.336 267.784 380.947 268.173 380.363 268.464C378.127 269.826 375.793 270.895 373.362 271.868C371.515 272.548 369.473 273.229 368.403 274.882C365.973 278.577 371.029 279.549 373.46 279.355C378.516 278.966 383.572 278.382 388.531 277.507C389.017 277.41 389.503 277.313 389.795 277.021C390.378 276.535 390.378 275.757 390.476 275.076C390.67 270.506 390.67 265.839 390.573 261.269C390.573 261.366 384.155 260.977 383.572 261.366C382.502 262.047 382.989 263.505 382.989 264.575C382.891 265.645 382.502 266.617 381.725 267.395Z" fill="#110809"/>
<path d="M382.697 168.216C382.114 162.965 380.461 157.131 378.419 152.366C378.127 151.686 377.641 149.936 376.766 149.838C376.279 149.741 374.724 151.005 374.238 151.2C373.168 151.686 372.098 151.977 371.029 152.366C368.598 153.047 366.07 153.533 363.736 154.408C361.889 155.089 358.777 156.256 357.999 158.103C356.833 160.631 355.763 163.257 354.791 165.882C353.916 168.216 352.554 170.744 352.165 173.272C351.776 175.411 351.776 177.453 351.096 179.592C348.179 188.343 342.928 196.414 340.983 205.456C340.206 209.346 339.914 213.235 339.817 217.222C339.33 232.196 340.011 248.045 341.081 263.019H353.916C354.304 260.2 354.693 256.407 355.082 253.588C355.569 250.476 355.957 247.267 357.027 244.35C357.61 242.6 358.388 240.947 358.875 239.197C360.333 233.946 358.972 228.015 361.597 223.153C362.18 221.986 363.056 220.917 363.736 219.75C364.806 217.805 365.389 215.666 365.875 213.527C367.334 207.207 368.404 200.595 371.418 194.761C373.168 191.455 375.502 190.288 378.03 187.954C379.974 186.107 381.53 182.217 382.114 179.592C382.794 175.8 383.086 172.008 382.697 168.216Z" fill="#141F47"/>
<path d="M326.301 84.3995C325.62 82.6493 325.815 80.8019 326.009 79.0516C326.301 76.5235 326.204 73.9954 325.815 71.4673C325.718 70.7867 325.62 70.0088 325.231 69.4254C324.745 68.5503 323.189 67.578 322.217 68.3558C321.828 68.6475 321.634 69.0365 321.439 69.4254C320.953 70.3978 320.37 71.4673 320.467 72.5369C320.564 73.6065 320.856 74.7733 320.467 75.8429C320.078 76.8152 319.592 75.6484 319.495 75.1623C319.397 74.6761 318.814 73.5093 318.133 73.801C317.453 74.0927 318.036 76.2318 318.231 76.8152C318.911 79.1489 320.175 81.1908 320.467 83.6217C320.661 84.8857 320.564 86.1497 320.661 87.4138C320.856 89.553 321.634 91.5949 322.023 93.734C322.314 95.1926 322.412 96.7483 322.509 98.2068C322.509 98.9847 322.606 99.7626 322.606 100.54C322.801 102.096 323.189 103.555 323.481 105.013C323.87 106.569 324.356 108.222 324.745 109.778C325.134 111.236 325.62 112.5 326.106 113.959C327.176 116.973 328.537 119.209 330.482 121.738C332.329 124.071 333.594 127.474 336.997 127.474C338.747 127.474 340.886 126.794 342.539 126.308C344.581 125.724 346.526 124.752 348.276 123.488C351.096 121.446 353.332 118.432 354.304 115.028C354.693 113.862 354.888 112.598 354.596 111.528C353.721 108.416 350.123 108.028 347.498 108.416C345.942 108.611 344.484 108.903 342.928 109.097C341.47 109.292 339.525 110.75 338.65 108.903C336.705 104.722 333.885 100.832 331.649 96.7483C329.899 93.5396 328.732 90.0391 327.273 86.6359C326.884 85.858 326.593 85.0802 326.301 84.3995Z" fill="#F5A784"/>
<path d="M398.449 174.147C399.227 167.146 397.185 159.853 392.907 154.214C390.184 150.713 386.489 147.796 382.114 147.31C366.264 145.56 367.917 174.439 368.793 183.87C369.473 191.455 370.737 198.942 371.223 206.429C371.612 211.679 371.126 216.93 371.223 222.084C371.223 227.431 373.363 232.779 374.432 238.03C374.918 240.169 377.641 258.935 378.613 268.27H392.129C394.268 251.643 395.824 234.919 396.699 218.097C396.991 212.36 397.282 206.526 397.38 200.789C397.477 194.858 396.116 189.024 396.893 182.995C397.185 180.078 398.06 177.161 398.449 174.147Z" fill="#283B83"/>
<path d="M361.403 104.235C359.069 103.652 356.152 104.235 354.11 104.624C350.804 105.208 347.596 106.472 344.387 107.444C344.192 107.541 343.998 107.541 343.901 107.639C343.706 107.736 343.512 107.833 343.317 107.833C343.317 108.222 343.317 108.611 343.22 109C343.901 115.028 344.873 121.057 345.748 127.085C352.166 124.46 357.805 119.89 361.403 113.959C361.889 113.181 362.472 111.917 362.861 110.556C362.861 110.167 362.861 109.875 362.861 109.486C362.667 107.736 361.889 105.986 361.403 104.235Z" fill="#E26C2D"/>
<path d="M356.152 160.437C359.556 159.562 352.166 131.461 351.68 128.836C350.902 125.141 350.221 121.543 350.027 117.751C349.929 115.32 350.027 112.792 351.485 110.847C352.36 109.583 353.721 108.708 355.083 107.93C361.986 103.555 368.015 97.9151 376.572 97.5261C377.058 97.5261 377.544 97.5261 378.03 97.7206C378.905 98.1095 379.489 99.0819 379.878 99.957C381.919 104.43 382.697 109.194 384.739 113.57C386.878 118.043 388.24 122.418 389.504 127.183C391.935 137.003 394.171 146.824 395.241 156.936C393.977 154.311 380.072 157.325 377.058 157.714C369.96 158.395 363.056 159.367 356.152 160.437Z" fill="#E26C2D"/>
<path d="M380.655 101.027C382.211 102.777 382.989 105.499 383.572 107.93C384.933 114.445 386.295 120.96 386.198 127.572C386.1 131.461 385.517 135.35 384.933 139.24C383.864 146.241 382.794 153.242 381.725 160.242C381.239 163.743 380.655 167.243 380.169 170.744C379.877 172.494 379.975 175.606 378.71 177.064C378.03 177.842 376.863 178.036 375.793 178.134C370.737 178.717 365.681 179.009 360.528 179.106C359.847 176.481 361.889 173.758 364.417 172.689C366.945 171.619 369.765 172.008 372.487 172.3C371.71 163.548 371.029 154.895 370.251 146.143C369.376 140.018 370.737 133.6 369.376 127.474C368.015 121.446 367.626 115.223 367.14 109C366.945 106.958 366.848 104.819 367.917 103.069C368.89 101.61 370.64 100.832 372.293 100.152C374.043 99.4709 375.891 98.693 377.738 99.082C379.002 99.4709 379.975 100.152 380.655 101.027Z" fill="#F5A784"/>
<path d="M366.653 125.238C373.654 123.974 380.752 123.488 387.753 123.779C387.364 118.432 386.684 113.181 385.517 107.93C384.836 104.722 383.961 101.416 381.53 99.2764C377.349 95.5815 368.404 96.5538 366.459 102.193C364.028 108.805 365.389 118.626 366.653 125.238Z" fill="#E26C2D"/>
<path d="M365.584 95.8732C365.778 97.1372 366.945 102.777 367.042 103.944C367.237 105.986 364.708 116.001 362.861 116.487C360.819 117.07 356.832 109.097 356.638 107.055C356.346 104.235 356.249 98.4985 356.249 98.4012C356.832 90.7197 364.708 90.7197 365.584 95.8732Z" fill="#F5A784"/>
<path d="M353.332 83.6216C354.596 82.6493 357.513 84.0106 359.069 84.0106C360.624 84.1078 363.055 84.1078 364.222 85.0802C366.847 87.1221 367.042 91.2059 366.07 94.2202C365.875 94.7064 365.583 96.0677 365.389 96.5538C363.639 100.443 359.555 101.416 357.416 101.221C354.79 101.027 353.137 99.0819 352.262 96.2621C352.068 95.776 351.873 94.0257 351.776 93.5396C351.095 90.2336 351.971 84.594 353.332 83.6216Z" fill="#F5A784"/>
<path d="M350.512 77.4959C351.679 76.718 353.332 76.5236 354.401 77.3987C355.666 78.2738 356.152 79.3434 357.805 79.2461C359.36 79.1489 360.43 78.4683 362.083 79.1489C364.708 80.1212 366.264 83.0383 366.653 85.6636C366.847 87.6083 366.75 90.1364 366.556 92.1783C366.459 92.2756 366.167 92.47 366.07 91.9838C365.875 91.0115 365.875 89.8447 365.486 88.9696C365.292 88.4834 364.903 88.0945 364.319 87.9972C363.833 87.9972 363.347 88.1917 363.055 87.9C362.861 87.7055 362.861 87.5111 362.764 87.3166C362.472 86.3442 361.597 85.5664 360.527 85.3719C358.096 84.983 355.957 85.8581 353.624 85.8581C349.734 85.8581 346.525 80.7046 350.026 77.7876C350.22 77.7876 350.415 77.5931 350.512 77.4959Z" fill="#110809"/>
<path d="M351.193 91.9838C351.193 92.47 351.29 92.3728 351.484 92.1783C352.359 89.8447 351.582 85.8581 353.332 85.4691C353.429 85.4691 353.818 83.9134 353.429 84.0106C352.846 84.1078 351.776 84.4968 351.484 84.8857C350.804 86.1498 350.998 90.1364 351.193 91.9838Z" fill="#110809"/>
<path d="M364.514 91.9839C364.514 92.9562 365.097 93.7341 365.875 93.8313C366.653 93.8313 367.237 93.0534 367.237 92.0811C367.237 91.1087 366.653 90.3309 365.875 90.2336C365.195 90.2336 364.611 91.0115 364.514 91.9839Z" fill="#F5A784"/>
<path d="M350.026 91.6921C350.026 92.6645 350.609 93.4423 351.387 93.5396C352.165 93.5396 352.748 92.7617 352.748 91.7894C352.748 90.817 352.165 90.0391 351.387 89.9419C350.609 89.9419 350.026 90.7198 350.026 91.6921Z" fill="#F5A784"/>
<path d="M360.041 94.7063C360.139 96.1648 359.166 97.4289 357.805 97.5261C356.444 97.7206 355.18 96.7482 354.985 95.2897L360.041 94.7063Z" fill="white"/>
<path d="M212.731 239.975C211.369 242.017 210.3 244.059 210.689 246.781C211.272 250.865 214.578 253.588 215.453 257.574C215.551 257.963 215.551 258.352 215.453 258.741C215.259 259.519 214.578 260.102 213.8 260.297C209.911 261.269 206.605 255.63 204.369 253.393C201.646 250.671 198.826 247.851 196.104 245.128C195.326 244.35 195.423 243.086 196.298 242.211L205.535 232.682L206.897 231.224C209.133 228.89 212.536 228.598 214.384 230.64C215.939 232.391 215.842 235.405 214.189 237.739C213.703 238.516 213.12 239.294 212.731 239.975Z" fill="#110809"/>
<path d="M182.005 201.665H179.963V246.781H182.005V201.665Z" fill="#110809"/>
<path d="M163.044 256.31C163.044 249.601 174.809 246.879 180.74 246.879C187.741 246.879 198.437 249.407 198.437 256.31" stroke="#110809" stroke-width="2" stroke-miterlimit="10"/>
<path d="M180.935 258.06V246.976" stroke="#110809" stroke-width="2" stroke-miterlimit="10"/>
<path d="M201.355 257.866C201.355 259.422 200.091 260.783 198.438 260.783C196.785 260.783 195.521 259.519 195.521 257.866C195.521 256.31 196.785 254.949 198.438 254.949C200.091 254.949 201.355 256.31 201.355 257.866Z" fill="#110809"/>
<path d="M183.755 257.866C183.755 259.422 182.491 260.783 180.838 260.783C179.282 260.783 177.921 259.519 177.921 257.866C177.921 256.31 179.185 254.949 180.838 254.949C182.491 255.046 183.755 256.31 183.755 257.866Z" fill="#110809"/>
<path d="M166.253 257.866C166.253 259.422 164.989 260.783 163.336 260.783C161.78 260.783 160.419 259.519 160.419 257.866C160.419 256.31 161.683 254.949 163.336 254.949C164.891 255.046 166.253 256.31 166.253 257.866Z" fill="#110809"/>
<path d="M178.991 186.496V153.242C178.991 147.505 174.323 142.838 168.587 142.838H157.113C151.376 142.838 146.709 147.505 146.709 153.242V190.385C146.709 198.553 153.418 205.262 161.586 205.262H178.796H199.021C199.993 205.262 200.771 204.484 200.771 203.512C200.771 202.54 199.993 201.762 199.021 201.762H194.354C185.797 201.859 178.991 194.955 178.991 186.496Z" fill="white"/>
<path d="M218.565 256.213C219.051 258.644 219.635 260.783 221.871 262.533C225.08 265.061 229.358 264.77 232.761 267.006C233.053 267.201 233.345 267.395 233.539 267.784C233.928 268.465 233.831 269.34 233.442 270.02C231.4 273.424 224.983 271.673 221.871 271.673C217.982 271.576 214.092 271.479 210.203 271.479C209.133 271.479 208.355 270.409 208.355 269.242V256.019V254.074C208.355 250.865 210.592 248.337 213.314 248.532C215.648 248.726 217.69 250.962 218.176 253.782C218.273 254.463 218.371 255.338 218.565 256.213Z" fill="#110809"/>
<path d="M198.34 154.311C200.577 156.45 203.202 158.006 206.508 157.812C208.939 157.617 211.175 156.353 213.314 155.089C217.787 152.464 220.607 147.894 223.427 143.616C227.316 137.781 232.275 132.531 234.803 125.919C236.067 122.613 236.942 119.89 236.651 116.293C236.359 112.792 235.484 109.292 236.262 105.889C236.553 104.722 237.817 101.124 236.164 100.541C234.609 99.9572 233.15 102.485 232.761 103.555C232.372 104.916 232.372 106.277 232.275 107.639C231.789 113.57 229.261 121.738 224.399 125.627C222.843 126.891 220.801 127.475 219.148 128.544C215.842 130.683 213.995 134.475 211.272 137.392C210.592 138.073 209.814 138.754 208.841 138.851C206.022 139.143 205.633 135.837 204.563 134.087C202.424 130.878 196.979 126.891 192.895 127.766C190.172 128.35 187.936 130.781 187.547 133.6C187.353 134.767 187.547 136.031 187.742 137.198C187.936 138.365 188.033 139.532 188.422 140.698C189.103 142.935 190.561 144.782 192.02 146.63C194.062 149.061 196.006 152.075 198.34 154.311Z" fill="#F5A784"/>
<path d="M186.283 130.1L186.478 130.78L186.283 130.1Z" fill="#7A483A"/>
<path d="M194.062 166.757C194.062 166.855 194.159 167.049 194.159 167.146L194.062 166.66C193.965 166.66 194.062 166.66 194.062 166.757Z" fill="#7A483A"/>
<path d="M185.603 128.35C185.603 130.683 185.894 133.017 185.894 134.281C185.894 135.837 185.894 137.49 186.283 139.045C186.575 140.407 187.158 141.671 187.839 142.935C189.686 146.824 191.923 150.908 194.743 154.117C196.007 152.464 197.465 150.811 198.535 148.963C200.188 146.241 201.743 143.421 203.396 140.698C204.272 139.143 206.994 136.323 206.508 134.573C206.119 133.309 201.938 130.294 200.868 129.03C198.437 126.016 193.479 120.668 189.297 120.279C186.089 120.085 185.603 124.266 185.603 128.35Z" fill="white"/>
<path d="M236.845 193.886C236.845 191.747 236.067 189.607 234.608 188.052C231.594 184.746 226.83 184.065 222.454 183.482C216.523 182.801 210.494 182.023 204.563 181.343C194.353 180.078 183.366 179.009 174.323 183.871C168.1 187.177 165.961 194.858 171.892 199.72C175.198 202.442 179.671 203.22 183.852 203.998C189.881 205.068 195.909 206.137 201.938 207.207C207.286 208.179 213.509 210.124 218.37 206.818C219.634 205.943 220.801 204.776 222.26 204.193C226.441 202.54 234.025 201.665 236.164 197.094C236.65 196.025 236.845 194.955 236.845 193.886Z" fill="#141F47"/>
<path d="M228.775 184.648C227.025 184.26 225.08 184.065 223.038 184.065C217.398 184.065 213.412 189.802 216.329 195.053C216.912 196.219 217.885 197.192 218.079 198.456C218.273 199.623 217.787 200.789 217.398 201.956C212.439 213.916 204.952 226.848 203.591 239.78C207.189 241.531 217.69 242.697 219.732 239.003C221.579 235.794 223.427 232.585 225.274 229.376C226.441 227.334 227.608 225.292 229.067 223.445C230.817 221.209 232.956 219.264 234.706 216.93C239.665 210.513 241.221 201.665 238.79 193.983C236.845 188.635 233.442 185.815 228.775 184.648Z" fill="#141F47"/>
<path d="M214.092 197.97C207.286 188.441 192.701 189.802 187.158 178.717C186.964 178.328 186.769 178.037 186.575 177.648C185.7 176.675 184.241 176.578 182.88 176.578C175.393 176.578 168.003 175.508 160.711 174.244C156.335 173.467 156.432 174.147 154.877 178.231C153.71 181.245 152.64 184.357 152.348 187.566C151.959 192.038 153.126 196.803 156.432 199.817C158.28 201.47 160.516 202.345 162.753 203.318C173.643 207.693 184.825 211.388 196.104 214.402C198.243 214.986 200.382 215.472 202.619 215.472C206.8 215.472 210.981 213.138 213.217 209.638C216.523 204.679 216.232 200.887 214.092 197.97Z" fill="#283B83"/>
<path d="M193.77 123.877C193.089 122.905 192.312 121.932 191.145 121.154C187.45 118.335 182.199 118.626 177.824 118.529C173.254 118.335 168.295 118.723 164.114 120.474C159.738 122.224 158.863 124.071 158.668 128.447C158.474 134.184 156.821 140.018 156.14 145.755C155.46 151.88 155.168 158.006 155.168 164.035C155.168 167.244 155.265 170.549 155.557 173.758C155.849 177.356 156.14 177.453 159.738 177.939C168.1 179.106 179.185 181.537 187.45 179.203C187.936 164.424 192.895 150.13 194.937 135.448C195.715 131.072 195.909 127.183 193.77 123.877Z" fill="white"/>
<path d="M177.435 128.252C176.171 127.766 175.101 126.891 174.226 125.822C170.823 121.349 174.031 118.334 174.226 113.862C174.323 110.556 172.087 107.347 173.156 104.235C173.351 103.652 173.934 102.971 174.518 103.263C174.712 103.36 174.809 103.555 175.004 103.749C177.824 108.028 181.616 107.736 186.575 108.611C185.894 108.514 185.797 119.21 185.894 119.987C186.088 120.863 186.283 121.64 186.283 122.516C186.38 125.335 184.241 127.961 181.518 128.641C180.254 128.933 178.796 128.836 177.435 128.252Z" fill="#F5A784"/>
<path d="M182.588 115.709C181.13 115.806 179.768 115.223 178.407 114.056C177.24 113.084 176.365 111.917 175.296 110.847C174.615 110.264 173.934 109.681 173.448 108.903C172.767 107.93 172.573 106.666 172.378 105.5C172.087 104.041 171.698 102.68 171.99 101.221C172.184 100.346 172.573 99.5683 173.059 98.8876C173.74 97.8181 174.42 96.7485 175.101 95.7761C176.56 93.7342 178.99 91.984 181.713 92.9563C182.977 93.4425 183.949 94.4148 184.533 95.5817C185.311 97.1374 185.408 98.9849 186.186 100.638C186.38 101.221 186.672 101.707 186.964 102.194C188.033 104.333 188.908 107.153 188.422 109.583C187.936 111.625 186.866 113.667 185.019 114.834C184.047 115.32 183.269 115.612 182.588 115.709Z" fill="#F5A784"/>
<path d="M183.039 106.906C183.336 106.818 184.057 106.711 184.068 106.386C184.079 106.06 183.145 104.724 183.057 104.427C182.87 104.16 182.782 103.863 182.625 103.695C182.625 103.695 182.625 103.695 182.694 103.567C182.793 103.538 182.764 103.439 182.863 103.409C183.482 104.409 184.002 105.437 184.493 106.367C184.522 106.466 184.551 106.565 184.452 106.594C184.057 106.711 183.691 106.928 183.197 107.074C183.028 107.232 182.94 106.935 183.039 106.906Z" fill="#E0855C"/>
<path d="M183.799 100.765C184.136 100.45 184.897 100.117 185.341 100.523C185.469 100.593 185.399 100.721 185.3 100.75C185.103 100.809 184.876 100.769 184.678 100.827C184.48 100.886 184.283 100.945 184.114 101.102C183.818 101.19 183.631 100.923 183.799 100.765Z" fill="#242424"/>
<path d="M178.213 102.96C178.234 102.308 179.322 101.986 179.805 102.165C179.933 102.234 179.864 102.363 179.794 102.491C179.527 102.677 179.3 102.637 179.003 102.725C178.806 102.784 178.637 102.941 178.469 103.099C178.37 103.128 178.242 103.059 178.213 102.96Z" fill="#242424"/>
<path d="M179.968 104.16C179.81 103.992 179.415 104.109 179.374 104.336C179.404 104.435 179.305 104.464 179.305 104.464C179.235 104.593 179.265 104.691 179.323 104.889C179.353 104.988 179.353 104.988 179.382 105.087C179.47 105.383 179.627 105.552 179.785 105.72C179.942 105.888 180.367 105.87 180.378 105.544C180.429 104.991 180.282 104.497 179.968 104.16Z" fill="#242424"/>
<path d="M185.403 102.548C185.246 102.38 184.85 102.497 184.81 102.724C184.84 102.823 184.741 102.852 184.741 102.852C184.671 102.981 184.701 103.079 184.759 103.277C184.788 103.376 184.788 103.376 184.818 103.475C184.906 103.771 185.063 103.94 185.221 104.108C185.378 104.276 185.803 104.258 185.814 103.932C185.865 103.379 185.718 102.885 185.403 102.548Z" fill="#242424"/>
<path d="M169.948 106.277C170.337 107.347 169.85 108.611 170.239 109.681C170.92 111.431 173.448 111.528 174.712 112.792C176.171 114.153 176.56 116.001 178.31 117.265C180.643 118.918 184.047 118.626 186.478 117.459C187.742 116.876 188.811 115.904 189.492 114.64C190.27 112.987 189.881 110.75 189.395 109C189.103 108.028 188.908 106.958 188.617 105.986C188.519 105.694 188.422 105.402 188.131 105.402C187.644 105.402 187.839 105.986 187.45 105.986C186.672 106.18 185.7 105.889 184.825 105.889C183.755 105.889 182.88 105.791 181.908 106.277C181.032 106.666 180.255 107.347 179.671 108.125C179.379 108.514 178.99 108.903 178.602 109C177.046 109.389 176.851 107.736 176.462 106.764C175.296 104.138 176.462 102.194 178.796 100.93C180.06 100.249 181.324 99.86 182.588 99.2766C183.755 98.7904 185.602 98.3042 185.991 97.0402C186.186 96.554 186.089 95.9706 185.894 95.3872C185.505 94.1231 184.533 93.0536 183.366 92.4701C182.199 91.7895 180.838 91.595 179.574 91.4978C177.921 91.4978 176.268 91.7895 174.809 92.5674C173.351 93.3453 172.184 94.7065 171.698 96.3595C171.212 97.9153 171.212 98.7904 169.656 99.3738C165.086 101.221 169.073 103.847 169.948 106.277ZM186.38 111.625C185.7 111.82 185.602 111.528 185.019 111.334C183.949 110.945 183.755 111.917 182.88 112.306C182.394 112.598 181.616 112.598 181.227 112.209C180.838 111.917 180.741 111.431 180.741 110.945C180.838 109.875 181.713 109.097 182.491 108.514C183.658 107.542 185.602 107.542 186.769 108.514C187.45 109.097 187.936 109.972 187.644 110.847C187.547 110.945 187.547 111.139 187.45 111.236C187.158 111.334 186.769 111.528 186.38 111.625Z" fill="#110809"/>
<path d="M174.906 106.18C175.004 106.277 175.198 106.472 175.295 106.569C175.781 107.25 176.365 108.514 176.462 109.292C175.976 109.486 175.393 109.681 174.906 109.583C174.517 109.486 174.226 109.292 173.934 109.097C173.253 108.514 172.767 107.639 172.573 106.666C172.573 106.375 172.573 106.083 172.67 105.791C172.962 105.402 173.448 105.402 173.837 105.5C174.226 105.597 174.615 105.889 174.906 106.18Z" fill="#F5A784"/>
<path d="M181.519 110.847C181.519 110.847 182.977 111.82 184.63 111.139C186.575 110.361 186.672 108.806 186.672 108.806" fill="white"/>
<path d="M154.196 169.674C153.515 169.577 152.834 169.577 152.154 169.577C154.196 166.952 156.918 164.813 159.057 162.09C161.391 159.076 161.099 156.061 162.169 152.658C163.044 149.838 164.794 147.408 165.669 144.588C167.808 137.684 165.183 125.335 155.265 128.35C152.445 129.225 150.209 131.461 148.75 134.086C147.292 136.712 146.514 139.532 145.736 142.449C144.18 148.574 142.527 154.603 140.972 160.729C140.291 163.451 139.708 166.271 139.027 168.994C138.055 172.786 135.818 177.064 141.166 178.62C144.375 179.495 147.778 179.787 151.181 179.981C157.502 180.37 163.822 181.051 170.142 181.245C173.934 181.342 177.629 180.176 181.421 179.689C184.727 179.301 187.839 180.467 191.145 179.884C192.506 179.689 193.964 178.62 193.867 177.259C193.867 176.481 193.284 175.8 192.7 175.314C190.27 173.272 186.769 173.272 183.755 174.05C183.074 174.244 182.394 174.439 181.616 174.342C180.838 174.244 180.157 173.953 179.477 173.661C175.101 171.813 171.212 173.272 166.836 172.591C162.558 172.105 158.571 170.16 154.196 169.674Z" fill="#F5A784"/>
<path d="M169.85 141.282C169.948 141.087 169.948 140.796 170.045 140.601C171.017 137.198 171.892 133.697 171.309 130.197C170.726 126.697 168.489 123.293 165.086 122.418C162.947 121.835 160.516 122.224 158.474 123.099C153.321 125.238 149.528 129.711 147.098 134.67C145.931 137.003 144.375 139.823 145.639 141.671C147.195 144.004 165.572 152.755 164.794 154.311C166.836 150.033 168.489 145.657 169.85 141.282Z" fill="white"/>
<path d="M213.703 198.359C217.982 206.429 216.037 216.25 216.815 224.904C217.884 235.891 219.246 246.879 220.899 257.866C215.356 257.38 209.717 257.866 204.369 259.227C201.257 248.629 198.146 238.03 196.979 227.043C196.59 223.737 196.493 220.334 195.423 217.125C194.159 213.235 191.728 209.735 190.95 205.748C189.881 200.692 194.256 192.33 199.799 191.747C204.563 191.163 211.467 194.08 213.703 198.359Z" fill="#283B83"/>
<path d="M421.007 178.036H16.22V182.217H421.007V178.036Z" fill="white"/>
<path d="M383.572 180.078H379.586V288.398H383.572V180.078Z" fill="white"/>
<path d="M343.317 287.62H339.427L364.806 180.078H368.792L343.317 287.62Z" fill="white"/>
<path d="M90.0213 287.62H93.9107L68.5325 180.078H64.5459L90.0213 287.62Z" fill="white"/>
<path d="M54.6277 180.078H50.6411V288.398H54.6277V180.078Z" fill="white"/>
<path d="M338.574 46.7916C343.966 41.3995 343.966 32.6573 338.574 27.2653C333.182 21.8732 324.44 21.8733 319.048 27.2653C313.656 32.6573 313.656 41.3995 319.048 46.7916C324.44 52.1836 333.182 52.1836 338.574 46.7916Z" fill="#80B2BA"/>
<path d="M328.212 28.4437C328.212 29.1244 328.893 38.9451 328.893 38.9451L336.769 33.6944" stroke="white" stroke-miterlimit="10"/>
<path d="M91.8682 34.9072C93.1322 38.5049 93.9101 42.1998 94.3963 45.992" stroke="white" stroke-miterlimit="10"/>
<path d="M102.078 31.4067C101.397 35.4906 100.619 39.6717 99.9385 43.7555" stroke="white" stroke-miterlimit="10"/>
<path d="M112.773 37.4353C111.12 38.9911 109.856 40.9357 108.884 42.9777" stroke="white" stroke-miterlimit="10"/>
<path d="M102.464 70.6864C102.464 70.6864 103.063 70.8863 102.963 69.887C102.863 68.9877 102.464 69.0877 102.464 69.0877C102.464 69.0877 102.064 69.0877 102.164 69.887C102.164 70.6864 102.464 70.6864 102.464 70.6864Z" fill="#333333"/>
<path d="M96.5678 70.6864C96.5678 70.6864 97.1673 70.8863 97.0674 69.887C96.9675 68.9877 96.5678 69.0877 96.5678 69.0877C96.5678 69.0877 96.1681 69.0877 96.268 69.887C96.268 70.6864 96.5678 70.6864 96.5678 70.6864Z" fill="#333333"/>
<path d="M99.8652 73.4842C100.165 73.4842 100.864 73.5841 100.964 73.2844C101.064 72.9846 100.565 71.4858 100.565 71.186C100.365 70.1868 100.065 69.5872 99.8652 68.3882C99.8652 68.2883 99.9651 68.2883 99.9651 68.3882C100.665 69.887 100.864 71.7855 101.364 73.4842C101.364 73.5841 101.364 73.6841 101.264 73.6841C100.864 73.6841 100.365 73.784 99.9651 73.784C99.6653 73.6841 99.6653 73.4842 99.8652 73.4842Z" fill="#E0855C"/>
<path d="M101.564 74.8827C101.564 74.8827 99.5653 75.5821 97.8666 74.8827C97.8666 74.8827 98.666 76.1817 99.965 76.2816C101.264 76.4815 101.564 74.8827 101.564 74.8827Z" fill="white"/>
<path d="M101.664 67.2892C102.064 67.0894 102.863 66.9895 103.063 67.4891C103.163 67.589 103.063 67.6889 102.963 67.6889C102.763 67.6889 102.563 67.589 102.363 67.589C102.164 67.589 101.964 67.589 101.764 67.6889C101.664 67.6889 101.564 67.3891 101.664 67.2892Z" fill="#333333"/>
<path d="M95.3691 67.5885C95.569 66.9889 96.5682 66.9889 96.9679 67.2887C97.0678 67.3886 96.9679 67.4885 96.868 67.5885C96.6681 67.6884 96.3684 67.5885 96.0686 67.5885C95.8687 67.5885 95.6689 67.6884 95.4691 67.7883C95.4691 67.7883 95.3691 67.6884 95.3691 67.5885Z" fill="#333333"/>
<path d="M354.573 90.6539C354.573 90.6539 354.049 90.8286 354.136 89.955C354.223 89.1687 354.573 89.2561 354.573 89.2561C354.573 89.2561 354.922 89.2561 354.835 89.955C354.835 90.6539 354.573 90.6539 354.573 90.6539Z" fill="#333333"/>
<path d="M359.727 90.6539C359.727 90.6539 359.203 90.8286 359.291 89.955C359.378 89.1687 359.727 89.2561 359.727 89.2561C359.727 89.2561 360.077 89.2561 359.99 89.955C359.99 90.6539 359.727 90.6539 359.727 90.6539Z" fill="#333333"/>
<path d="M356.844 93.1002C356.582 93.1002 355.971 93.1876 355.883 92.9255C355.796 92.6634 356.233 91.3529 356.233 91.0908C356.408 90.2172 356.67 89.693 356.844 88.6446C356.844 88.5573 356.757 88.5573 356.757 88.6446C356.145 89.9551 355.971 91.615 355.534 93.1002C355.534 93.1876 355.534 93.275 355.621 93.275C355.971 93.275 356.408 93.3623 356.757 93.3623C357.019 93.275 357.019 93.1002 356.844 93.1002Z" fill="#E0855C"/>
<path d="M355.272 87.6838C354.922 87.5091 354.223 87.4217 354.049 87.8585C353.961 87.9459 354.049 88.0333 354.136 88.0333C354.311 88.0333 354.485 87.9459 354.66 87.9459C354.835 87.9459 355.01 87.9459 355.184 88.0333C355.272 88.0333 355.359 87.7712 355.272 87.6838Z" fill="#333333"/>
<path d="M360.776 87.9454C360.601 87.4212 359.727 87.4212 359.378 87.6833C359.29 87.7706 359.378 87.858 359.465 87.9454C359.64 88.0327 359.902 87.9454 360.164 87.9454C360.339 87.9454 360.513 88.0327 360.688 88.1201C360.688 88.1201 360.776 88.0327 360.776 87.9454Z" fill="#333333"/>
<path d="M269.458 81.6431C269.196 81.6431 268.585 81.7304 268.497 81.4683C268.41 81.2062 268.847 79.8958 268.847 79.6337C268.934 79.3716 268.934 79.1095 269.021 78.9347C269.021 78.9347 269.021 78.9347 268.934 78.8474C268.847 78.8474 268.847 78.76 268.759 78.76C268.497 79.721 268.322 80.682 268.148 81.5557C268.148 81.6431 268.148 81.7304 268.235 81.7304C268.585 81.7304 268.934 81.8178 269.371 81.8178C269.546 81.9052 269.546 81.6431 269.458 81.6431Z" fill="#E0855C"/>
<path d="M272.398 77.2496C272.223 76.7254 271.262 76.7254 270.913 76.9875C270.826 77.0748 270.913 77.1622 271 77.2496C271.262 77.3369 271.437 77.2496 271.699 77.2496C271.874 77.2496 272.049 77.3369 272.223 77.4243C272.311 77.4243 272.398 77.3369 272.398 77.2496Z" fill="#242424"/>
<path d="M271.262 78.6476C271.349 78.4729 271.699 78.4729 271.786 78.6476C271.786 78.735 271.874 78.735 271.874 78.735C271.961 78.8224 271.961 78.9097 271.961 79.0845C271.961 79.1718 271.961 79.1718 271.961 79.2592C271.961 79.5213 271.874 79.696 271.786 79.8708C271.699 80.0455 271.349 80.1329 271.262 79.8708C271.087 79.4339 271.087 78.9971 271.262 78.6476Z" fill="#242424"/>
<path d="M434.99 256.374C434.913 256.839 434.835 257.382 434.835 257.925C434.68 259.708 434.37 261.802 432.819 262.655C431.423 263.508 429.562 262.965 428.398 261.802C427.235 260.639 426.77 259.01 426.46 257.459C425.684 253.427 425.994 249.084 427.468 245.206C428.321 242.802 430.88 239.08 430.57 236.521C430.26 233.729 427.002 232.178 426.925 229.231C426.77 225.974 429.717 223.182 431.423 220.7C432.043 219.77 432.586 218.762 432.586 217.676C432.741 213.798 427.158 211.86 426.77 208.06C426.304 203.329 432.819 201.39 432.896 196.893C432.896 194.488 430.802 191.929 430.958 188.982C431.19 186.113 432.276 183.321 434.292 181.227C435.068 180.374 436.153 179.599 437.239 179.987C438.325 180.374 438.79 181.693 438.713 182.778C438.713 183.942 438.402 185.027 438.635 186.191C439.333 189.525 441.659 190.766 441.349 194.566C441.194 196.737 440.419 198.986 439.488 200.848C436.076 207.594 437.084 206.819 441.194 212.713C443.366 215.815 443.366 220.235 441.194 223.337C439.953 225.121 438.015 226.672 437.782 228.843C437.704 229.851 438.015 230.782 438.402 231.79C438.868 232.876 439.41 233.962 439.643 235.125C439.953 236.753 439.488 238.459 439.023 240.088C437.472 245.439 435.688 250.79 434.99 256.374Z" fill="#138F70"/>
<path d="M421.341 251.1C421.031 249.006 420.721 246.912 420.411 244.741C420.178 242.88 419.868 241.019 419.015 239.313C418.239 237.839 417.076 236.521 416.456 234.97C414.982 231.635 415.991 227.835 417.076 224.345C417.852 221.941 418.627 219.382 417.929 216.978C417.542 215.737 416.766 214.652 416.068 213.488C414.75 211.162 412.268 205.656 413.819 202.941C416.456 198.288 419.015 202.709 419.248 205.888C419.403 208.758 420.566 211.472 422.427 213.643C423.513 214.884 424.831 215.892 425.452 217.443C427.003 221.476 422.582 225.509 422.892 229.851C423.203 233.264 426.382 235.668 427.701 238.847C430.105 244.741 431.733 253.272 430.105 259.553C429.794 260.639 429.407 261.725 428.476 262.345C427.003 263.353 424.831 262.578 423.823 261.104C422.737 259.708 422.427 257.847 422.195 256.063C421.807 254.435 421.574 252.806 421.341 251.1Z" fill="#47BA9B"/>
<path d="M430.958 279.484C425.142 279.484 420.256 275.141 419.558 269.402L417.697 254.9H443.831L442.358 269.169C441.737 274.986 436.852 279.484 430.958 279.484Z" fill="#2155B5"/>
<path d="M435.378 249.084C435.611 246.912 435.378 244.508 436.541 242.647C438.092 240.166 441.66 239.08 442.28 236.21C442.9 233.419 440.264 230.472 441.505 227.835C442.513 225.664 445.77 225.276 446.7 223.104C447.553 221.166 446.235 219.072 445.925 216.978C445.537 214.496 446.7 211.782 448.794 210.309C449.182 209.998 449.725 209.766 450.19 209.843C451.586 209.921 452.051 211.782 451.586 213.101C451.121 214.341 450.035 215.427 449.647 216.668C448.484 220.158 452.051 224.655 449.492 227.292C448.717 228.068 447.631 228.378 446.778 229.153C444.141 231.635 446.778 236.366 445.149 239.623C444.064 241.794 441.427 242.802 440.264 244.974C439.488 246.37 439.566 247.998 439.256 249.549C439.023 251.255 438.325 252.884 437.084 254.047C435.766 255.21 433.827 255.753 433.517 253.737C433.439 252.651 435.223 250.402 435.378 249.084Z" fill="#47BA9B"/>
<path d="M445.459 256.451H416.688L415.137 250.17H446.468L445.459 256.451Z" fill="#0D2E6A"/>
<path d="M141.58 269.041C141.641 269.406 141.702 269.832 141.702 270.257C141.823 271.656 142.067 273.298 143.283 273.967C144.378 274.636 145.837 274.211 146.75 273.298C147.662 272.386 148.027 271.109 148.27 269.892C148.878 266.73 148.635 263.324 147.48 260.283C146.811 258.398 144.804 255.478 145.047 253.471C145.29 251.282 147.844 250.066 147.905 247.754C148.027 245.2 145.716 243.011 144.378 241.064C143.891 240.335 143.466 239.544 143.466 238.693C143.344 235.652 147.723 234.131 148.027 231.151C148.392 227.441 143.283 225.921 143.222 222.393C143.222 220.508 144.864 218.501 144.743 216.19C144.56 213.939 143.709 211.75 142.127 210.108C141.519 209.439 140.668 208.831 139.816 209.135C138.965 209.439 138.6 210.473 138.661 211.324C138.661 212.236 138.904 213.088 138.722 214C138.174 216.615 136.35 217.588 136.593 220.569C136.715 222.272 137.323 224.035 138.053 225.495C140.729 230.786 139.938 230.178 136.715 234.8C135.012 237.233 135.012 240.7 136.715 243.132C137.688 244.531 139.208 245.747 139.391 247.45C139.451 248.241 139.208 248.971 138.904 249.761C138.539 250.613 138.113 251.464 137.931 252.377C137.688 253.654 138.053 254.992 138.418 256.269C139.634 260.466 141.033 264.662 141.58 269.041Z" fill="#138F70"/>
<path d="M152.284 264.905C152.528 263.263 152.771 261.621 153.014 259.918C153.197 258.459 153.44 256.999 154.109 255.661C154.717 254.505 155.629 253.471 156.116 252.255C157.271 249.64 156.481 246.66 155.629 243.923C155.021 242.038 154.413 240.031 154.96 238.145C155.264 237.172 155.873 236.321 156.42 235.408C157.454 233.584 159.4 229.266 158.184 227.137C156.116 223.488 154.109 226.955 153.926 229.448C153.805 231.698 152.892 233.827 151.433 235.53C150.581 236.503 149.547 237.294 149.061 238.51C147.845 241.673 151.311 244.835 151.068 248.241C150.825 250.917 148.331 252.802 147.297 255.296C145.412 259.918 144.135 266.608 145.412 271.535C145.655 272.386 145.959 273.237 146.689 273.724C147.844 274.515 149.547 273.906 150.338 272.751C151.19 271.656 151.433 270.197 151.615 268.798C151.919 267.521 152.102 266.243 152.284 264.905Z" fill="#47BA9B"/>
<path d="M144.742 287.165C149.304 287.165 153.135 283.759 153.683 279.259L155.142 267.885H134.646L135.802 279.076C136.289 283.637 140.12 287.165 144.742 287.165Z" fill="#2155B5"/>
<path d="M141.276 263.324C141.094 261.621 141.276 259.736 140.364 258.276C139.147 256.33 136.35 255.478 135.863 253.228C135.377 251.039 137.444 248.727 136.471 246.66C135.681 244.957 133.126 244.653 132.396 242.95C131.727 241.429 132.761 239.787 133.005 238.145C133.309 236.199 132.396 234.07 130.754 232.915C130.45 232.671 130.025 232.489 129.66 232.55C128.565 232.611 128.2 234.07 128.565 235.104C128.93 236.077 129.781 236.929 130.085 237.902C130.998 240.639 128.2 244.166 130.207 246.234C130.815 246.842 131.667 247.085 132.336 247.694C134.403 249.64 132.336 253.35 133.613 255.904C134.464 257.607 136.532 258.398 137.444 260.101C138.053 261.195 137.992 262.472 138.235 263.689C138.418 265.027 138.965 266.304 139.938 267.216C140.972 268.129 142.492 268.554 142.736 266.973C142.796 266.122 141.398 264.358 141.276 263.324Z" fill="#47BA9B"/>
<path d="M133.37 269.102H155.934L157.15 264.175H132.579L133.37 269.102Z" fill="#0D2E6A"/>
<path d="M95.4983 77.7876C96.9682 78.4756 100.369 79.7646 102.211 79.4158C100.65 80.0979 97.1209 80.7272 95.4983 77.7876Z" fill="#E0855C"/>
<path d="M356.929 100.963C358.551 100.889 362.161 100.449 363.63 99.2832C362.564 100.613 359.733 102.811 356.929 100.963Z" fill="#E0855C"/>
<path d="M171.656 137.101C171.656 140.068 171.65 143.041 171.65 146.008C171.65 146.133 171.643 146.258 171.636 146.39C171.616 146.404 171.602 146.425 171.582 146.439C170.815 146.446 170.048 146.453 169.281 146.46C169.281 146.411 169.281 146.369 169.281 146.321C169.403 146.21 169.349 146.057 169.349 145.932C169.349 142.986 169.349 140.047 169.349 137.101C170.123 137.101 170.89 137.101 171.656 137.101Z" fill="#141F48"/>
<path d="M184.482 144.73C184.482 145.216 184.475 145.702 184.489 146.189C184.495 146.369 184.434 146.425 184.258 146.425C183.667 146.418 183.084 146.404 182.493 146.425C182.215 146.439 182.161 146.342 182.161 146.078C182.168 143.215 182.168 140.345 182.168 137.483C182.168 137.358 182.154 137.233 182.154 137.101C182.202 137.101 182.242 137.101 182.29 137.101C182.29 137.122 182.29 137.142 182.29 137.163C182.29 140.102 182.29 143.041 182.276 145.987C182.276 146.279 182.371 146.342 182.629 146.328C182.968 146.307 183.308 146.321 183.64 146.321C184.38 146.321 184.373 146.321 184.387 145.556C184.407 145.286 184.298 144.994 184.482 144.73Z" fill="#00083E"/>
<path d="M169.348 137.101C169.348 140.047 169.348 142.986 169.348 145.932C169.348 146.064 169.403 146.21 169.281 146.321C169.281 143.34 169.281 140.359 169.287 137.379C169.287 137.288 169.213 137.163 169.348 137.101Z" fill="#3B4262"/>
<path d="M187.088 137.163C187.088 137.142 187.095 137.122 187.108 137.101C187.923 137.101 188.737 137.101 189.544 137.101C189.524 137.122 189.504 137.149 189.483 137.17C188.683 137.17 187.889 137.163 187.088 137.163Z" fill="#3B4262"/>
<path d="M182.297 137.163C182.297 137.142 182.29 137.122 182.297 137.101C183.023 137.101 183.742 137.101 184.468 137.101C184.475 137.115 184.482 137.129 184.489 137.135C184.489 137.142 184.482 137.149 184.482 137.156C184.455 137.156 184.428 137.156 184.4 137.156C183.695 137.163 182.996 137.163 182.297 137.163Z" fill="#50556F"/>
<path d="M182.296 137.163C182.995 137.163 183.694 137.163 184.393 137.163C184.393 138.317 184.393 139.477 184.4 140.63C184.4 140.748 184.346 140.887 184.481 140.978C184.617 140.936 184.658 140.804 184.726 140.707C185.52 139.526 186.307 138.344 187.094 137.163C187.888 137.163 188.682 137.17 189.483 137.17C188.689 138.407 187.881 139.644 187.033 140.853C186.87 141.089 186.734 141.353 186.565 141.589C186.456 141.749 186.578 141.825 186.646 141.916C187.596 143.305 188.546 144.688 189.496 146.078C189.551 146.154 189.591 146.23 189.639 146.314C188.75 146.321 187.861 146.321 186.972 146.328C186.395 145.431 185.818 144.542 185.228 143.625C184.977 144 184.726 144.368 184.481 144.737C184.298 144.994 184.407 145.292 184.4 145.563C184.379 146.328 184.393 146.328 183.653 146.328C183.314 146.328 182.975 146.314 182.642 146.335C182.391 146.349 182.289 146.279 182.289 145.994C182.296 143.048 182.296 140.102 182.296 137.163Z" fill="#141F48"/>
<path d="M172.233 146.307C173.203 144.396 174.174 142.485 175.144 140.582C175.673 139.539 176.203 138.504 176.739 137.462C176.779 137.379 176.786 137.233 176.915 137.24C177.044 137.247 177.044 137.386 177.085 137.476C177.539 138.532 177.838 139.616 177.628 140.79C177.553 141.214 177.356 141.589 177.166 141.964C176.42 143.416 175.666 144.876 174.92 146.328C174.017 146.321 173.122 146.314 172.233 146.307Z" fill="#151F48"/>
<path d="M178.428 140.081C179.405 141.992 180.376 143.903 181.353 145.807C181.658 146.411 181.658 146.411 180.98 146.411C180.396 146.411 179.806 146.404 179.222 146.418C179.012 146.425 178.896 146.356 178.801 146.168C178.353 145.265 177.892 144.368 177.424 143.472C177.349 143.333 177.349 143.222 177.424 143.083C177.532 142.895 177.614 142.694 177.722 142.499C178.129 141.756 178.482 140.992 178.428 140.081Z" fill="#2CA7DE"/>
<path d="M172.233 146.307C173.129 146.314 174.018 146.321 174.913 146.328C174.886 146.439 174.791 146.411 174.717 146.411C173.936 146.411 173.163 146.411 172.382 146.411C172.328 146.411 172.179 146.501 172.233 146.307Z" fill="#00083E"/>
<path d="M186.972 146.321C187.861 146.314 188.75 146.314 189.639 146.307C189.653 146.307 189.673 146.314 189.687 146.321C189.68 146.418 189.605 146.418 189.544 146.418C188.737 146.418 187.936 146.418 187.128 146.418C187.06 146.418 186.993 146.411 186.972 146.321Z" fill="#00083E"/>
<path d="M171.588 146.438C171.608 146.424 171.621 146.404 171.641 146.39C171.648 146.438 171.628 146.452 171.588 146.438Z" fill="#3B4262"/>
<path d="M184.475 140.978C184.339 140.887 184.394 140.748 184.394 140.63C184.387 139.477 184.387 138.317 184.387 137.163C184.414 137.163 184.441 137.163 184.468 137.163C184.475 138.435 184.475 139.706 184.475 140.978Z" fill="#00083E"/>
<path d="M240.734 177.939H188.714V177.647C188.714 176.869 189.395 176.189 190.172 176.189H240.734V177.939Z" fill="white"/>
<path d="M249.68 176.092H197.659L206.897 148.574C207.188 147.602 208.161 147.019 209.23 147.019H256.097C257.75 147.019 258.917 148.477 258.431 149.936L249.68 176.092Z" fill="#FFF5F5"/>
<path d="M249.749 177.986H197.437V176.139H249.749V177.986Z" fill="#C9CDD1"/>
<path d="M231.108 161.215C230.914 162.284 229.844 162.965 228.677 162.868C227.511 162.77 226.441 161.895 226.538 160.826C226.635 159.659 227.705 158.687 228.969 158.687C229.066 158.687 229.066 158.687 229.164 158.784C229.261 158.784 229.261 158.784 229.358 158.784C230.525 159.076 231.205 160.145 231.108 161.215ZM229.164 159.465H229.066H228.969C228.386 159.465 227.802 159.756 227.511 160.242C226.83 161.409 227.802 162.284 228.775 162.284C230.719 162.284 230.817 159.853 229.164 159.465Z" fill="#C9CDD1"/>
</svg>
