<svg width="438" height="331" fill="none" xmlns="http://www.w3.org/2000/svg" xmlns:xlink="http://www.w3.org/1999/xlink"><g clip-path="url(#clip0)"><path d="M6.61801 281.377c8.97789-30.777-6.844091-64.139 7.58379-93.738 4.5824-9.399 11.7414-17.676 17.7556-26.463 9.0812-13.265 15.6136-27.851 19.171-42.815 2.3272-9.79 3.4032-19.7584 6.6899-29.3856 9.1156-26.707 36.3477-48.6973 66.3217-53.5585 24.157-3.9175 49.152 1.0979 68.909 12.45 88.737 50.9885 134.966 26.8696 165.944 44.4615 19.415 11.0276 28.979 31.5306 34.745 52.0276 5.767 20.496.203 65.137 16.457 79.681 4.356 3.898 9.429 7.138 13.414 11.355 13.116 13.882 11.297 35.938 1.889 53.702-44.149 83.367-96.83 32.888-213.803 47.831-115.064 14.698-151.5593 3.674-158.0917-1.238-6.9622-5.237-62.12495-2.414-46.98529-54.31z" fill="#255189"/><path d="M6.61801 281.377c8.97789-30.777-6.844091-64.139 7.58379-93.738 4.5824-9.399 11.7414-17.676 17.7556-26.463 9.0812-13.265 15.6136-27.851 19.171-42.815 2.3272-9.79 3.4032-19.7584 6.6899-29.3856 9.1156-26.707 36.3477-48.6973 66.3217-53.5585 24.157-3.9175 49.152 1.0979 68.909 12.45 88.737 50.9885 134.966 26.8696 165.944 44.4615 19.415 11.0276 28.979 31.5306 34.745 52.0276 5.767 20.496.203 65.137 16.457 79.681 4.356 3.898 9.429 7.138 13.414 11.355 13.116 13.882 11.297 35.938 1.889 53.702-44.149 83.367-96.83 32.888-213.803 47.831-115.064 14.698-151.5593 3.674-158.0917-1.238-6.9622-5.237-62.12495-2.414-46.98529-54.31z" fill="url(#pattern0)" fill-opacity=".24"/><path d="M332.424 196.256c2.697-61.536-48.834-113.7865-115.099-116.7053C151.06 76.6318 95.1547 124.15 92.4569 185.686 89.7592 247.221 141.291 299.472 207.556 302.39c66.265 2.919 122.17-44.599 124.868-106.134z" fill="#6BB5F3"/><path opacity=".6" d="M210.408 249.619c38.821 0 70.291-29.83 70.291-66.626 0-36.796-31.47-66.626-70.291-66.626s-70.292 29.83-70.292 66.626c0 36.796 31.471 66.626 70.292 66.626z" fill="#fff"/><g opacity=".68"><g opacity=".8"><path opacity=".68" d="M243.193 191.495s.008 1.843-.038 5.305c-.05 3.458-.158 8.533-.495 14.983-.336 6.45-.906 14.278-2.011 23.209-1.113 8.926-2.691 18.978-5.406 29.731-1.369 5.369-3.02 10.919-5.243 16.482-1.119 2.778-2.381 5.56-3.906 8.264-1.531 2.693-3.303 5.35-5.635 7.6-1.168 1.115-2.491 2.12-4.007 2.819-1.508.702-3.23 1.039-4.926.857-1.699-.166-3.317-.84-4.729-1.77-1.419-.93-2.657-2.103-3.77-3.372-2.223-2.554-3.976-5.49-5.516-8.537-1.535-3.054-2.839-6.249-4.008-9.514-2.328-6.538-4.116-13.368-5.601-20.337-1.479-6.972-2.641-14.096-3.557-21.306-1.827-14.422-2.694-29.188-2.778-43.952-.013-7.381.238-14.762.633-22.102.409-7.34 1.012-14.642 1.84-21.86.833-7.218 1.889-14.354 3.253-21.347 1.37-6.99 3.031-13.846 5.225-20.422 1.102-3.285 2.343-6.4981 3.811-9.5762 1.477-3.0681 3.168-6.0315 5.341-8.6018 1.089-1.2764 2.305-2.4555 3.704-3.3801 1.391-.9245 2.989-1.5783 4.655-1.7293.408-.0375.844-.0437 1.241-.0287.422.0224.83.0699 1.238.1397.814.1473 1.602.403 2.349.7362 1.495.6725 2.821 1.6382 4.001 2.7188 2.36 2.1772 4.197 4.7738 5.792 7.4164 1.591 2.6539 2.925 5.3964 4.111 8.14 2.363 5.496 4.14 11.003 5.625 16.338 2.943 10.687 4.693 20.712 5.926 29.621.609 4.457 1.08 8.643 1.446 12.518.357 3.877.616 7.444.809 10.668.383 6.448.512 11.524.571 14.984.061 3.459.055 5.305.055 5.305zm-1.596-.001s.014-1.836-.027-5.281c-.044-3.445-.149-8.499-.5-14.921-.177-3.21-.419-6.762-.757-10.624-.331-3.862-.752-8.032-1.316-12.475-.564-4.442-1.265-9.157-2.166-14.098-.902-4.94-1.995-10.11-3.401-15.437-1.412-5.32-3.113-10.812-5.389-16.29-1.143-2.7336-2.433-5.4637-3.971-8.1014-1.543-2.6277-3.323-5.2017-5.593-7.3478-1.135-1.0643-2.405-2.0113-3.826-2.6714-1.422-.6563-2.99-1.0056-4.573-.8285-1.57.161-3.075.7961-4.4 1.6982-1.331.9034-2.498 2.0587-3.545 3.3177-2.091 2.5341-3.724 5.4738-5.148 8.5219-1.414 3.0603-2.607 6.2603-3.661 9.5323-2.1 6.552-3.671 13.391-4.951 20.362-1.274 6.973-2.24 14.093-2.983 21.29-1.488 14.397-2.038 29.113-1.99 43.814-.041 14.697.699 29.406 2.395 43.775.852 7.183 1.947 14.28 3.359 21.223 1.418 6.94 3.138 13.738 5.388 20.231 1.131 3.243 2.393 6.41 3.878 9.428 1.487 3.009 3.185 5.899 5.309 8.38 1.062 1.232 2.237 2.36 3.557 3.241 1.316.881 2.792 1.505 4.327 1.667 1.535.171 3.085-.157 4.47-.812 1.392-.657 2.633-1.61 3.738-2.685 2.211-2.168 3.924-4.774 5.4-7.427 1.473-2.665 2.694-5.419 3.776-8.174 2.148-5.517 3.739-11.038 5.052-16.381 1.307-5.348 2.318-10.533 3.149-15.484.832-4.952 1.475-9.675 1.993-14.122.518-4.448.903-8.623 1.208-12.486.311-3.863.532-7.416.697-10.629.326-6.423.427-11.478.47-14.923.041-3.442.031-5.283.031-5.283z" fill="#fff"/></g><g opacity=".68"><path opacity=".8" d="M292.71 191.515s-.012.59-.036 1.735c-.012.571-.027 1.282-.045 2.126-.018.843-.025 1.819-.107 2.938-.066 1.115-.14 2.362-.221 3.733-.085 1.371-.267 2.854-.414 4.463-.129 1.611-.397 3.328-.643 5.163-.219 1.841-.599 3.774-.954 5.822-.093.512-.175 1.032-.282 1.555-.113.521-.228 1.051-.344 1.585-.233 1.07-.47 2.167-.714 3.29-.285 1.113-.578 2.252-.877 3.416-.15.581-.302 1.17-.455 1.764-.176.588-.354 1.183-.534 1.783-1.388 4.818-3.258 9.922-5.597 15.22-2.346 5.293-5.214 10.769-8.76 16.212-3.544 5.439-7.77 10.846-12.787 15.906-4.986 5.087-10.887 9.689-17.525 13.541-.813.512-1.685.925-2.541 1.376-.429.224-.86.446-1.29.669l-.648.336c-.217.108-.443.201-.666.302-.891.397-1.786.793-2.685 1.193-.225.097-.446.204-.677.294l-.693.258c-.463.173-.926.346-1.39.518-1.839.746-3.776 1.249-5.695 1.848-.976.243-1.961.463-2.947.696-.494.109-.984.245-1.485.332-.501.083-1.003.166-1.506.25-.503.083-1.007.167-1.511.251-.504.086-1.01.174-1.522.21-1.022.101-2.047.203-3.075.304-.513.066-1.031.066-1.549.084-.517.017-1.036.033-1.556.049-.519.016-1.039.033-1.56.05-.548.001-1.045-.027-1.571-.039-1.04-.04-2.079-.043-3.127-.114-1.051-.103-2.105-.205-3.163-.309l-.794-.078-.786-.13c-.524-.086-1.048-.173-1.573-.26-.526-.086-1.052-.173-1.579-.26-.525-.094-1.041-.235-1.564-.35-4.195-.877-8.314-2.292-12.321-4.031l-1.501-.665-.752-.333-.732-.378c-.976-.504-1.954-1.01-2.934-1.518-1.898-1.122-3.836-2.206-5.656-3.491-.924-.62-1.865-1.222-2.744-1.914-.891-.673-1.8-1.331-2.681-2.025-.861-.72-1.724-1.44-2.589-2.162l-.647-.544-.622-.575-1.243-1.152-1.246-1.154c-.408-.393-.796-.807-1.195-1.21-.787-.819-1.602-1.612-2.369-2.455-.755-.852-1.512-1.706-2.269-2.561-.387-.422-.747-.866-1.103-1.314l-1.078-1.339-1.079-1.341c-.356-.452-.684-.923-1.026-1.385-.675-.931-1.369-1.85-2.031-2.795-1.273-1.924-2.592-3.827-3.753-5.836-1.236-1.964-2.309-4.029-3.435-6.07-.537-1.034-1.038-2.087-1.559-3.133l-.775-1.573-.71-1.605c-.47-1.072-.959-2.137-1.413-3.219-.431-1.092-.863-2.183-1.294-3.276-.45-1.087-.821-2.203-1.211-3.313l-.582-1.668c-.194-.557-.396-1.111-.558-1.677-.687-2.256-1.4-4.508-1.959-6.807l-.447-1.716-.223-.859-.192-.867-.759-3.471-.19-.869-.158-.874-.313-1.751-.312-1.752c-.109-.584-.209-1.168-.283-1.756-.314-2.354-.677-4.703-.869-7.074-.521-4.727-.661-9.489-.734-14.245l.073-3.562.038-1.772c.012-.59.063-1.19.094-1.784l.212-3.574c.077-1.19.22-2.368.327-3.552.192-2.371.558-4.719.873-7.072.073-.589.175-1.174.284-1.757l.313-1.752.314-1.75.159-.875.191-.868.762-3.47.193-.866.224-.859.448-1.715c.56-2.299 1.274-4.551 1.964-6.804.163-.567.365-1.121.559-1.676l.584-1.667c.391-1.11.763-2.226 1.213-3.311.432-1.092.865-2.184 1.296-3.274.454-1.081.945-2.145 1.415-3.217l.712-1.603.776-1.572c.523-1.045 1.023-2.098 1.561-3.131 1.126-2.04 2.201-4.101 3.438-6.064 1.163-2.006 2.483-3.908 3.755-5.829.663-.943 1.357-1.862 2.033-2.793.344-.46.671-.933 1.027-1.382l1.079-1.339 1.078-1.337c.356-.448.716-.891 1.103-1.312.758-.854 1.515-1.707 2.271-2.559.766-.841 1.582-1.634 2.368-2.452.4-.403.787-.817 1.195-1.209l1.245-1.153 1.242-1.15.622-.574.647-.543c.864-.7208 1.728-1.4407 2.588-2.1582.881-.6925 1.79-1.3475 2.68-2.0213.879-.69 1.818-1.2914 2.742-1.9102 1.82-1.2802 3.758-2.3595 5.655-3.4775.98-.504 1.958-1.0081 2.933-1.5097l.73-.3756.752-.3319 1.5-.6625c4.006-1.7231 8.116-3.1393 12.304-4.0202 4.175-.8971 8.388-1.4872 12.569-1.511.527-.0124 1.034-.0424 1.574-.0399.518.0162 1.034.0337 1.551.0499.516.0175 1.032.0337 1.546.0499.514.02 1.027.02 1.542.0861 1.029.1023 2.055.2047 3.077.3057.514.0375 1.017.126 1.521.2134.504.0836 1.007.1672 1.509.252.502.0836 1.003.1672 1.504.2508.5.0861.988.2234 1.482.3319.983.2346 1.967.4542 2.94.6975 1.916.5989 3.848 1.1067 5.685 1.8466.464.1722.926.3444 1.389.5153l.692.2571c.229.0898.451.1959.676.2932.898.398 1.793.7935 2.683 1.1878.221.1011.448.1922.665.3007l.647.3344c.431.2221.861.4442 1.291.6663.854.4504 1.727.8609 2.539 1.3712 6.637 3.8355 12.532 8.4346 17.519 13.5132 5.016 5.05 9.242 10.453 12.789 15.886 3.549 5.436 6.42 10.909 8.77 16.198 2.343 5.292 4.217 10.394 5.608 15.209.181.601.359 1.194.535 1.782.155.594.307 1.182.457 1.763.3 1.164.593 2.302.879 3.415.244 1.122.483 2.219.717 3.288.117.535.232 1.063.345 1.585.107.522.189 1.043.284 1.554.357 2.049.737 3.98.958 5.821.248 1.835.517 3.552.647 5.163.149 1.608.332 3.093.416 4.46.082 1.367.157 2.609.224 3.721.084 1.112.091 2.096.11 2.946.019.85.033 1.565.046 2.14.025 1.152.037 1.745.037 1.745v.019zm-1.828-.017s-.01-.587-.029-1.723c-.01-.568-.021-1.274-.035-2.114-.015-.839-.017-1.812-.093-2.91-.061-1.098-.128-2.325-.203-3.676-.077-1.35-.25-2.817-.388-4.406-.121-1.593-.379-3.288-.613-5.102-.208-1.82-.575-3.729-.917-5.754-.09-.505-.168-1.02-.272-1.537-.109-.515-.22-1.038-.333-1.567-.226-1.058-.456-2.142-.691-3.252-.278-1.1-.561-2.225-.852-3.376-.145-.575-.293-1.157-.441-1.744-.172-.582-.345-1.169-.519-1.762-1.331-4.769-3.114-9.831-5.368-15.087-2.26-5.255-5.034-10.696-8.479-16.111-3.445-5.413-7.562-10.8-12.467-15.852-4.881-5.07-10.641-9.7164-17.196-13.5407-.801-.5103-1.662-.9208-2.505-1.3725-.423-.222-.848-.4441-1.273-.6675l-.639-.3344c-.214-.1085-.437-.2009-.656-.3019-.879-.3956-1.761-.7936-2.647-1.1916-.223-.0973-.441-.2046-.668-.2945l-.683-.2582c-.456-.1722-.914-.3457-1.371-.5191-1.812-.7486-3.726-1.244-5.62-1.8441-.963-.2421-1.935-.4617-2.909-.695-.488-.1086-.972-.2458-1.466-.3319-.496-.0836-.991-.1672-1.488-.2508-.496-.0836-.994-.1672-1.492-.252-.498-.0861-.997-.1747-1.501-.2121-1.006-.1024-2.017-.2047-3.029-.307-.504-.0661-1.021-.0674-1.533-.0873-.515-.0175-1.03-.035-1.546-.0524-.517-.0175-1.034-.035-1.551-.0524-.495-.0013-1.026.0312-1.538.0449-4.137.0374-8.304.6363-12.43 1.5384-4.139.8809-8.201 2.2983-12.143 4.0476l-1.477.6676-.74.3344-.719.378c-.96.5041-1.922 1.0107-2.887 1.5172-1.867 1.123-3.773 2.2035-5.562 3.4862-.907.6201-1.824 1.229-2.686 1.9227-.871.6775-1.759 1.3376-2.621 2.0326-.842.7211-1.684 1.4438-2.528 2.1688l-.632.545-.604.576-1.213 1.153-1.214 1.154c-.398.393-.774.808-1.163 1.211-.766.818-1.56 1.611-2.306 2.452-.734.85-1.47 1.703-2.207 2.557-.376.421-.725.864-1.07 1.31l-1.046 1.336-1.048 1.336c-.345.449-.662.921-.995 1.38-.653.927-1.326 1.843-1.968 2.783-1.231 1.916-2.508 3.807-3.628 5.805-1.195 1.951-2.227 4.004-3.311 6.03-.517 1.027-.997 2.073-1.499 3.111l-.744 1.559-.681 1.592c-.449 1.064-.919 2.12-1.353 3.192-.411 1.081-.823 2.162-1.235 3.245-.431 1.076-.782 2.183-1.153 3.282l-.552 1.651c-.185.55-.376 1.099-.529 1.659-.644 2.235-1.342 4.456-1.873 6.727l-.426 1.695-.215.849-.183.856-.722 3.427-.18.857-.149.864-.295 1.728-.295 1.729c-.102.575-.198 1.153-.267 1.735-.302 2.32-.656 4.636-.838 6.973-.102 1.167-.24 2.333-.311 3.499l-.196 3.498c-.028.586-.078 1.163-.088 1.753l-.031 1.772-.062 3.522c.036 9.38.91 18.762 2.731 27.926l.726 3.425.183.856.214.847.428 1.694c.532 2.271 1.232 4.491 1.877 6.724.155.56.346 1.108.531 1.66l.553 1.65c.371 1.1.724 2.205 1.156 3.279.413 1.084.825 2.164 1.237 3.245.434 1.07.905 2.126 1.355 3.189l.683 1.591.745 1.558c.502 1.037.984 2.082 1.5 3.108 1.086 2.025 2.119 4.074 3.315 6.024 1.122 1.995 2.4 3.884 3.631 5.798.641.939 1.315 1.853 1.969 2.78.333.459.65.93.996 1.378l1.048 1.335 1.047 1.332c.345.447.695.89 1.072 1.309.737.854 1.472 1.705 2.207 2.554.745.84 1.54 1.632 2.305 2.45.388.401.766.817 1.164 1.209l1.214 1.152 1.212 1.152.605.575.631.544c.844.723 1.687 1.445 2.527 2.165.861.694 1.749 1.353 2.62 2.029.86.692 1.777 1.301 2.685 1.919 1.789 1.278 3.693 2.354 5.561 3.474.963.505 1.925 1.008 2.885 1.511l.72.376.739.332 1.476.664c3.941 1.736 7.993 3.154 12.124 4.04.514.117 1.024.258 1.541.355.519.088 1.037.177 1.555.264.518.089 1.035.177 1.551.265l.773.132.777.081c1.035.107 2.067.213 3.097.319 1.035.076 2.084.086 3.12.133.513.013 1.054.047 1.54.045.514-.018 1.028-.037 1.54-.054.513-.018 1.025-.036 1.535-.054.51-.021 1.022-.022 1.527-.088 1.015-.104 2.024-.206 3.032-.31.506-.037 1.004-.127 1.5-.213.498-.085.995-.169 1.49-.252.496-.084.991-.169 1.485-.251.493-.086.976-.223 1.464-.332.971-.234 1.942-.454 2.903-.696 1.891-.599 3.799-1.099 5.61-1.842.457-.172.914-.344 1.37-.515l.682-.257c.225-.09.444-.196.666-.293.885-.397 1.766-.793 2.645-1.187.219-.101.44-.192.656-.299l.638-.333c.425-.223.849-.445 1.273-.666.842-.449 1.702-.857 2.503-1.366 6.554-3.807 12.309-8.451 17.19-13.511 4.903-5.045 9.024-10.428 12.469-15.834 3.448-5.41 6.225-10.846 8.489-16.096 2.26-5.253 4.046-10.312 5.379-15.078.176-.594.349-1.181.52-1.762.15-.588.298-1.168.444-1.743.291-1.151.575-2.276.853-3.375.237-1.109.469-2.194.694-3.252.113-.529.224-1.05.335-1.566.103-.516.181-1.032.272-1.537.344-2.025.712-3.934.921-5.752.237-1.814.496-3.51.617-5.101.139-1.588.313-3.058.392-4.404.074-1.346.143-2.569.205-3.665.077-1.09.081-2.072.096-2.916.015-.844.027-1.554.037-2.126.02-1.144.03-1.734.03-1.734l-.002.009z" fill="#fff"/></g><g opacity=".8"><path opacity=".68" d="M112.01 148.251s3.129-.032 8.605-.088c5.476-.042 13.298-.099 22.685-.169 9.387-.041 20.338-.088 32.072-.138 11.733-.018 24.249-.037 36.765-.055 12.517.022 25.033.045 36.766.065 5.867.023 11.538.045 16.917.067 5.377.029 10.462.057 15.156.082 9.387.043 17.209.141 22.685.181 5.476.06 8.605.095 8.605.095.045 0 .081.038.08.081 0 .044-.036.08-.08.08 0 0-3.129.035-8.605.095-5.476.039-13.298.137-22.685.18-4.694.026-9.778.053-15.156.083-5.378.021-11.05.044-16.917.066-11.733.022-24.249.044-36.766.065-12.516-.019-25.032-.037-36.765-.055-11.734-.051-22.685-.098-32.072-.138-9.387-.07-17.209-.127-22.685-.169-5.476-.056-8.605-.088-8.605-.088-.066 0-.119-.055-.119-.123.001-.063.053-.116.119-.117z" fill="#fff"/></g><g opacity=".8"><path opacity=".68" d="M141.05 106.227s2.222-.032 6.109-.089c3.888-.041 9.442-.098 16.106-.168 3.333-.024 6.943-.047 10.76-.075 3.818-.022 7.845-.065 12.01-.065 8.33-.017 17.216-.036 26.103-.055 8.886.023 17.771.045 26.103.065 4.165.004 8.192.035 12.009.068 3.818.028 7.428.057 10.76.082 6.665.042 12.219.141 16.106.181 3.888.06 6.11.095 6.11.095.045.001.079.037.079.082-.001.044-.036.079-.079.08 0 0-2.222.035-6.11.095-3.887.038-9.441.137-16.106.179-3.332.027-6.942.054-10.76.084-3.817.032-7.844.062-12.009.066-8.33.021-17.217.043-26.103.065-8.887-.019-17.772-.037-26.103-.055-4.165 0-8.192-.042-12.01-.065-3.817-.026-7.427-.051-10.76-.075-6.664-.069-12.218-.127-16.106-.168-3.887-.056-6.109-.089-6.109-.089-.066-.001-.12-.056-.118-.122.001-.064.053-.116.118-.116z" fill="#fff"/></g><path opacity=".68" d="M103.311 190.277s3.401-.033 9.352-.089c5.951-.041 14.453-.099 24.656-.168 10.203-.042 22.106-.089 34.859-.139 12.753-.017 26.357-.036 39.96-.055 13.603.023 27.207.045 39.96.065 6.377.024 12.541.045 18.385.067 5.846.029 11.371.058 16.473.083 10.203.075 18.704.136 24.657.181 5.951.06 9.352.095 9.352.095.045 0 .081.037.08.081 0 .043-.036.079-.08.079 0 0-3.401.035-9.352.095-5.951.044-14.453.106-24.657.18-5.101.026-10.627.054-16.473.084-5.845.021-12.01.043-18.385.066-12.753.021-26.357.043-39.96.065-13.603-.019-27.207-.038-39.96-.055-12.753-.051-24.656-.099-34.859-.139-10.202-.07-18.704-.127-24.656-.168-5.951-.056-9.352-.089-9.352-.089-.066 0-.12-.055-.12-.122.002-.064.055-.116.12-.117zM112.01 232.306s3.129-.033 8.605-.089c5.476-.041 13.298-.098 22.685-.168 9.387-.041 20.338-.089 32.072-.139 11.733-.017 24.249-.036 36.765-.055 12.517.023 25.033.045 36.766.065 5.867.024 11.538.045 16.917.068 5.377.028 10.462.057 15.156.082 9.387.042 17.209.141 22.685.181 5.476.06 8.605.095 8.605.095.045 0 .081.037.08.081 0 .044-.036.08-.08.08 0 0-3.129.035-8.605.095-5.476.038-13.298.137-22.685.179-4.694.026-9.778.054-15.156.084-5.378.021-11.05.044-16.917.066-11.733.021-24.249.044-36.766.065-12.516-.019-25.032-.038-36.765-.055-11.734-.051-22.685-.099-32.072-.139-9.387-.069-17.209-.127-22.685-.168-5.476-.056-8.605-.089-8.605-.089-.066 0-.119-.054-.119-.122.001-.063.053-.116.119-.117zM286.807 274.871H144.632c-.233 0-.422-.188-.422-.423 0-.234.188-.423.422-.423h142.176c.233 0 .422.189.422.423 0 .235-.189.423-.423.423z" fill="#fff"/></g><path opacity=".3" d="M327.691 185.33c3.334 0 6.037 2.705 6.037 6.04 0 3.336-2.703 6.039-6.037 6.039s-6.036-2.704-6.036-6.039c0-3.337 2.703-6.04 6.036-6.04z" fill="#DAEEF7"/><path d="M330.207 189.571v3.602c0 .394-.322.716-.715.716h-3.6c-.394 0-.715-.322-.715-.716v-3.602c0-.394.32-.716.715-.716h3.6c.393 0 .715.32.715.716zm-4.837 3.602c0 .288.233.521.52.521h3.6c.287 0 .52-.233.52-.521v-3.602c0-.287-.233-.52-.52-.52h-3.6c-.287 0-.52.233-.52.52v3.602z" fill="#DAEEF7"/><path d="M143.161 99.3691v23.8649M42.2402 133.871v30.765h45.4286" stroke="#fff" stroke-width="4" stroke-linecap="round" stroke-linejoin="round" stroke-dasharray="12 12"/><path d="M88.7149 130.637c-.0033.01-.0066.022-.0098.032-.105.292-.1985.589-.2854.889-.0295.104-.0607.205-.0869.309-.0279.108-.0542.218-.0804.328-.0262.112-.0525.223-.0771.335-.0229.106-.0426.213-.0639.32-.023.12-.0443.239-.064.361-.0164.102-.0328.205-.0476.308-.018.13-.0344.261-.0492.393-.0115.095-.0229.19-.0311.287-.0148.149-.0246.302-.0345.453-.0049.08-.0115.159-.0164.239-.0115.233-.018.467-.018.703v107.985c0 .251.0065.501.0197.75.0246.497.0754.987.1492 1.469.0361.241.0787.479.1279.717 1.2596 6.161 6.4095 10.906 12.7686 11.551.488.049.985.075 1.487.075h220.545c6.297 0 11.659-4.002 13.686-9.605.008-.025.517-1.781.541-1.893.023-.106.325-2.826.325-3.062V135.594c0-.502-.025-1-.075-1.489-.696-6.853-6.141-12.3-12.988-12.996-.489-.05-.986-.076-1.488-.076H102.4c-6.2965-.001-11.6596 4.003-13.6851 9.604z" fill="#363636"/><path d="M88.7149 130.637c-.0033.01-.0066.022-.0098.032-.105.292-.1985.589-.2854.889-.0295.104-.0607.205-.0869.309-.0279.108-.0542.218-.0804.328-.0262.112-.0525.223-.0771.335-.0229.106-.0426.213-.0639.32-.023.12-.0443.239-.064.361-.0164.102-.0328.205-.0476.308-.018.13-.0344.261-.0492.393-.0115.095-.0229.19-.0311.287-.0148.149-.0246.302-.0345.453-.0049.08-.0115.159-.0164.239-.0115.233-.018.467-.018.703v107.985c0 .251.0065.501.0197.75.0246.497.0754.987.1492 1.469.0361.241.0787.479.1279.717 1.2596 6.161 6.4095 10.906 12.7686 11.551.488.049.985.075 1.487.075h220.545c6.297 0 11.659-4.002 13.686-9.605.008-.025.517-1.781.541-1.893.023-.106.325-2.826.325-3.062V135.594c0-.502-.025-1-.075-1.489-.696-6.853-6.141-12.3-12.988-12.996-.489-.05-.986-.076-1.488-.076H102.4c-6.2965-.001-11.6596 4.003-13.6851 9.604z" fill="url(#pattern1)" fill-opacity=".8"/><path d="M107.683 128.091V251.08h209.98V128.091h-209.98zM101.082 163.828v51.31c0 .364-.296.66-.66.66h-1.3135c-.3641 0-.6593-.296-.6593-.66v-51.31c0-.365.2952-.66.6593-.66h1.3135c.364.002.66.295.66.66z" fill="#fff"/><path d="M305.24 128.089v122.989h12.421V128.089H305.24zM107.683 128.091V251.08h11.142V128.091h-11.142z" fill="#E3E3E3"/><path d="M87.9557 198.414v35.499s-23.3278 41.817-23.5221 34.528c-.1944-7.289-5.8554-41.718-3.5133-45.193 2.3422-3.476 20.6924-32.16 20.6924-32.16l6.343 7.326z" fill="#C56B66"/><path d="M123.14 186.659c-17.703.756-18.402 30.365-29.025 42.008-5.2794 5.787-10.2079 6.199-13.9751 4.981-5.7453-1.858-8.4727-8.411-5.9962-13.921 3.8001-8.455 13.5848-15.714 13.5848-15.714v-21.132l-29.8693 26.471c-3.8542 3.415-6.4586 8.023-7.382 13.091-7.3607 40.374 6.4111 109.983 6.4111 109.983s26.4825 10.525 55.6367 0l-7.31-33.323c16.244-17.068 14.213-56.486 15.027-72.74.62-12.406 4.315-28.835 6.03-35.921.481-1.988-1.089-3.87-3.132-3.783z" fill="#F9D4B9"/><path d="M123.14 186.659c-17.703.756-18.402 30.365-29.025 42.008-5.2794 5.787-10.2079 6.199-13.9751 4.981-5.7453-1.858-8.4727-8.411-5.9962-13.921 3.8001-8.455 13.5848-15.714 13.5848-15.714v-21.132l-29.8693 26.471c-3.8542 3.415-6.4586 8.023-7.382 13.091-7.3607 40.374 6.4111 109.983 6.4111 109.983s26.4825 10.525 55.6367 0l-7.31-33.323c16.244-17.068 14.213-56.486 15.027-72.74.62-12.406 4.315-28.835 6.03-35.921.481-1.988-1.089-3.87-3.132-3.783z" fill="url(#pattern2)" fill-opacity=".08"/><path opacity=".4" d="M125.198 189.494l-2.028 7.416c-.247.908-1.048 1.556-1.987 1.601-1.76.083-4.461-.083-5.332-1.753-1.33-2.551 2.868-7.596 4.238-8.694 1.369-1.098 5.538-.142 5.109 1.43z" fill="#FF5B7E"/><g filter="url(#filter0_d)"><path d="M403.914 126.116h-49.602c-1.175 0-2.126-.954-2.126-2.129V91.6403c0-1.1763.952-2.1286 2.126-2.1286h49.602c1.175 0 2.127.9536 2.127 2.1286v32.3457c.001 1.176-.952 2.13-2.127 2.13z" fill="#15487B"/><path d="M403.914 126.116h-49.602c-1.175 0-2.126-.954-2.126-2.129V91.6403c0-1.1763.952-2.1286 2.126-2.1286h49.602c1.175 0 2.127.9536 2.127 2.1286v32.3457c.001 1.176-.952 2.13-2.127 2.13z" fill="url(#pattern3)" fill-opacity=".7"/><path d="M369.968 112.238h-12.66v2.24h12.66v-2.24zM385.442 112.238h-12.661v2.24h12.661v-2.24zM400.916 112.238h-12.66v2.24h12.66v-2.24zM383.131 117.365h-25.823v1.609h25.823v-1.609z" fill="#fff"/><path d="M401.115 122.798h-8.532c-.169 0-.306-.137-.306-.305v-3.211c0-.168.137-.305.306-.305h8.532c.169 0 .306.137.306.305v3.211c0 .168-.137.305-.306.305zM367.972 108.363h-9.703c-.233 0-.423-.19-.423-.424v-5.533c0-.234.19-.424.423-.424h9.703c.234 0 .424.19.424.424v5.533c0 .234-.19.424-.424.424z" fill="#F8AA0A"/><path d="M400.916 93.9355h-19.56v2.5475h19.56v-2.5475z" fill="#fff"/></g><g filter="url(#filter1_d)"><rect x="15.667" y="94.5957" width="50.8336" height="35.5835" rx="8" fill="#32851D"/><rect x="15.667" y="94.5957" width="50.8336" height="35.5835" rx="8" fill="url(#pattern4)" fill-opacity=".8"/><path d="M51.8367 104.46c-1.098-1.83-3.111-2.745-5.307-2.745H35.5496c-2.196 0-4.209.915-5.307 2.745-4.209 6.405-5.124 16.104-2.196 18.117 2.928 2.013 9.5161-6.771 12.9931-6.771 3.477 0 9.882 8.784 12.993 6.771 2.928-2.013 2.013-11.712-2.196-18.117zm-14.457 6.405h-1.8301v1.83h-1.83v-1.83h-1.83v-1.83h1.83v-1.83h1.83v1.83h1.8301v1.83zm9.882.915c0 .915-.732 1.647-1.647 1.647s-1.647-.732-1.647-1.647.732-1.647 1.647-1.647 1.647.732 1.647 1.647zm3.477-3.66c0 .915-.732 1.647-1.647 1.647s-1.647-.732-1.647-1.647.732-1.647 1.647-1.647 1.647.732 1.647 1.647z" fill="#fff"/></g><g filter="url(#filter2_d)"><rect x="63.959" y="33.0488" width="50.8336" height="50.1727" rx="8" fill="#E55606"/><rect x="63.959" y="33.0488" width="50.8336" height="50.1727" rx="8" fill="url(#pattern5)" fill-opacity=".32"/><path d="M99.715 44.4306l-3.6418-3.6419c-.7234-.7242-1.7047-1.1315-2.7282-1.1325h-8.1589c-1.0235.001-2.0048.4083-2.7282 1.1325l-3.6418 3.6419c-.7243.7233-1.1316 1.7046-1.1325 2.7282v11.8007c0 1.0239.4067 2.0059 1.1308 2.7299.724.724 1.7059 1.1308 2.7298 1.1308h15.4427c1.0239 0 2.0058-.4068 2.7298-1.1308.7243-.724 1.1313-1.706 1.1313-2.7299V47.1588c-.001-1.0236-.409-2.0049-1.133-2.7282zm-15.4426-1.8274c.2466-.2351.573-.3684.9137-.3732h8.1589c.3407.0048.667.1381.9137.3732l2.2005 2.2006H82.0719l2.2005-2.2006zm12.7145 17.6432H81.5442c-.3413 0-.6686-.1356-.9099-.3769-.2414-.2414-.3769-.5687-.3769-.91V47.3776h18.0163v11.5819c0 .3413-.1355.6686-.3769.91-.2413.2413-.5686.3769-.9099.3769z" fill="#fff"/><path d="M92.8685 49.9531c-.3413 0-.6686.1356-.9099.3769-.2414.2414-.3769.5687-.3769.91 0 .6826-.2712 1.3373-.7539 1.8199-.4827.4827-1.1373.7539-1.8199.7539-.6826 0-1.3373-.2712-1.8199-.7539-.4827-.4826-.7539-1.1373-.7539-1.8199 0-.3413-.1356-.6686-.3769-.91-.2413-.2413-.5687-.3769-.91-.3769-.3413 0-.6686.1356-.9099.3769-.2414.2414-.3769.5687-.3769.91 0 1.3652.5423 2.6745 1.5076 3.6399.9654.9653 2.2747 1.5076 3.6399 1.5076 1.3652 0 2.6745-.5423 3.6398-1.5076.9654-.9654 1.5077-2.2747 1.5077-3.6399 0-.3413-.1356-.6686-.3769-.91-.2413-.2413-.5687-.3769-.91-.3769z" fill="#fff"/><rect x="78.0957" y="67.9062" width="22.5996" height="8.53547" rx="4.26774" fill="#fff"/><path d="M86.956 70.9614c.1067.2046.1601.4323.1601.6831 0 .2509-.0534.4785-.1601.6831-.1068.2007-.2443.3608-.4127.4804-.1642.1197-.3387.2123-.5235.2779-.1847.0618-.3633.0926-.5358.0926h-.7699v.6542c0 .0887-.0041.1563-.0123.2026-.0041.0424-.0226.0926-.0554.1505-.0328.0579-.0883.0984-.1663.1215-.078.0232-.1827.0348-.3141.0348-.1067 0-.195-.0097-.2648-.029-.0698-.0193-.1232-.0424-.1602-.0694-.0369-.0271-.0657-.0656-.0862-.1158-.0164-.054-.0267-.0984-.0308-.1332V70.6141c0-.0888.0021-.1544.0062-.1968.0082-.0463.0287-.0984.0616-.1563.0328-.0579.0882-.0984.1663-.1216.078-.0231.1827-.0347.3141-.0347h1.318c.1724 0 .349.0328.5296.0984.1848.0617.3593.1524.5235.2721.1684.1196.3059.2817.4127.4862zm-.9239.6773c0-.1659-.0595-.2914-.1786-.3763-.119-.0887-.2422-.1331-.3695-.1331h-.7699v1.0246h.7761c.1231 0 .2443-.0424.3633-.1273.1191-.0849.1786-.2142.1786-.3879zM89.8558 70.4057l1.6629 3.2301c.0698.1313.1047.2297.1047.2953 0 .1389-.1191.2643-.3573.3762-.1396.0656-.2566.0984-.351.0984-.0657 0-.1252-.0173-.1786-.0521-.0493-.0347-.0862-.0713-.1109-.1099-.0205-.0386-.0513-.0965-.0924-.1737l-.3202-.6252h-1.706l-.3203.6252c-.0411.0772-.0739.1331-.0985.1679-.0206.0347-.0575.0714-.1109.11-.0493.0347-.1068.0521-.1724.0521-.0945 0-.2115-.0328-.3511-.0985-.2381-.108-.3572-.2315-.3572-.3704 0-.0656.0349-.164.1047-.2953 0 0 .5543-1.0786 1.6629-3.2359.0451-.0887.1129-.1601.2032-.2142.0945-.054.193-.081.2956-.081.2218 0 .386.1003.4928.301zm-.4989 1.3893l-.4065.7931h.8191l-.4126-.7931zM94.8645 70.1857c.2012.1312.3018.2586.3018.3821 0 .0733-.0472.1756-.1416.3068l-1.3304 1.8698V73.85c0 .0888-.0041.1563-.0123.2026-.0041.0425-.0226.0927-.0554.1505-.0329.0579-.0883.0984-.1663.1216s-.1827.0347-.3141.0347-.2361-.0115-.3141-.0347c-.078-.0232-.1334-.0637-.1663-.1216-.0328-.0617-.0534-.1138-.0616-.1563-.0041-.0463-.0061-.1157-.0061-.2084v-1.094l-1.3304-1.8698c-.0944-.1312-.1416-.2335-.1416-.3068 0-.1235.1026-.2509.3079-.3821.1561-.0964.2854-.1447.388-.1447.0534 0 .1027.0155.1478.0463.0493.0309.0863.0618.1109.0926.0288.0309.0657.0792.1109.1448l.9546 1.4356.9546-1.4356c.0452-.0656.0801-.1139.1047-.1448.0288-.0308.0657-.0617.1109-.0926.0493-.0308.1026-.0463.1601-.0463.0945 0 .2238.0483.388.1447z" fill="#E55606"/></g><g filter="url(#filter3_d)"><circle cx="233.055" cy="39.4656" r="17.4422" fill="#0048A0"/><circle cx="233.055" cy="39.4656" r="17.4422" fill="url(#pattern6)" fill-opacity=".8"/><path d="M244.327 38.1904c-.298 0-.588-.1583-.744-.4382-1.783-3.2237-5.901-5.3072-10.493-5.3072-4.435 0-8.497 1.9853-10.35 5.0587-.242.4031-.764.5313-1.166.2888-.402-.2426-.531-.7651-.289-1.1674 2.154-3.5726 6.787-5.881 11.805-5.881 5.199 0 9.902 2.4272 11.98 6.1844.227.4111.078.9277-.332 1.1556-.13.0719-.272.1063-.411.1063z" fill="#fff"/><path d="M241.854 40.9023c-.299 0-.589-.1583-.744-.4382-1.355-2.4498-4.496-4.0335-8.002-4.0335-3.386 0-6.484 1.5097-7.893 3.8459-.242.4023-.764.5313-1.166.2887-.402-.2425-.531-.765-.289-1.1674 1.71-2.8353 5.379-4.6673 9.348-4.6673 4.114 0 7.838 1.9273 9.489 4.9099.227.4111.078.9278-.332 1.1557-.13.0718-.272.1062-.411.1062z" fill="#fff"/><path d="M240.173 44.3174c-.299 0-.589-.1583-.744-.4382-1.064-1.9244-3.541-3.1673-6.308-3.1673-2.675 0-5.118 1.1864-6.224 3.0222-.243.4023-.765.5313-1.167.2887-.402-.2426-.531-.7651-.288-1.1674 1.429-2.3707 4.371-3.8437 7.679-3.8437 3.376 0 6.436 1.5873 7.795 4.0445.227.4111.078.9285-.332 1.1557-.132.071-.272.1055-.411.1055z" fill="#fff"/><path d="M232.757 48.5832c1.333 0 2.415-1.0588 2.415-2.3649 0-1.306-1.082-2.3648-2.415-2.3648-1.334 0-2.415 1.0588-2.415 2.3648 0 1.3061 1.081 2.3649 2.415 2.3649z" fill="#fff"/></g><g filter="url(#filter4_d)"><rect x="286.609" y="53.9297" width="45.7502" height="45.7502" rx="8" fill="#FFE600"/><rect x="286.609" y="53.9297" width="45.7502" height="45.7502" rx="8" fill="url(#pattern7)" fill-opacity=".4"/><path d="M319.788 72.1588h-6.765l6.083-7.639c.126-.1618.012-.3968-.194-.3968h-11.775c-.086 0-.169.0458-.212.1221l-7.956 13.6574c-.095.1617.022.3662.212.3662h5.355l-2.745 10.9137c-.058.238.23.4059.409.235l17.756-16.8405c.16-.1496.053-.4181-.168-.4181z" fill="#103C65"/></g><g filter="url(#filter5_d)"><rect x="106.15" y="70.1992" width="74.217" height="26.4335" rx="8" fill="#640B8D"/><rect x="106.15" y="70.1992" width="74.217" height="26.4335" rx="8" fill="url(#pattern8)" fill-opacity=".8"/><path d="M118.096 78.5887c0-.5397.156-1.0679.449-1.5208.294-.4528.712-.8111 1.205-1.0314.493-.2203 1.039-.2934 1.572-.2102.533.0831 1.031.3187 1.433.6786.463-.4147 1.051-.6634 1.67-.707.62-.0436 1.236.1205 1.753.4662.516.3458.902.8536 1.097 1.4433.196.5897.189 1.2277-.018 1.8132h1.09c.494 0 .969.1964 1.318.546.35.3495.546.8236.546 1.3179 0 .4944-.196.9685-.546 1.318-.349.3496-.824.5459-1.318.5459h-4.66v-.9319c0-.2472-.098-.4842-.273-.659-.174-.1748-.411-.273-.659-.273-.247 0-.484.0982-.659.273-.174.1748-.273.4118-.273.659v.9319h-4.659c-.495 0-.969-.1963-1.318-.5459-.35-.3495-.546-.8236-.546-1.318 0-.4943.196-.9684.546-1.3179.349-.3496.823-.546 1.318-.546h1.09c-.102-.2917-.158-.6057-.158-.9319zm3.727.9319v-.9319c0-.1843-.054-.3645-.157-.5178-.102-.1532-.248-.2727-.418-.3432-.17-.0706-.358-.089-.538-.053-.181.0359-.347.1247-.477.255-.131.1303-.22.2964-.256.4772-.036.1808-.017.3681.053.5384.071.1703.19.3159.344.4183.153.1024.333.157.517.157h.932zm2.796 0c.185 0 .365-.0546.518-.157.153-.1024.273-.248.343-.4183.071-.1703.089-.3576.053-.5384-.036-.1808-.124-.3469-.255-.4772-.13-.1303-.296-.2191-.477-.255-.181-.036-.368-.0176-.538.053-.171.0705-.316.19-.419.3432-.102.1533-.157.3335-.157.5178v.9319h.932zM121.823 84.1797h-5.592v4.6597c0 .4944.197.9685.546 1.318.35.3496.824.5459 1.318.5459h3.728v-6.5236zm1.864 6.5236h3.728c.494 0 .968-.1963 1.318-.5459.349-.3495.546-.8236.546-1.318v-4.6597h-5.592v6.5236zM136.6 82.7356h1.632c.166.0058.299.0287.398.069.105.0345.176.092.213.1725.044.0747.068.1437.074.2069.013.0575.019.1495.019.276v1.897c0 .184-.087.3593-.26.5261-.173.1667-.364.3018-.574.4053-.494.2299-1.081.3449-1.761.3449-.921 0-1.721-.322-2.401-.9658-.679-.6496-1.019-1.4401-1.019-2.3714 0-.8968.346-1.6499 1.038-2.2593.692-.6151 1.508-.9226 2.447-.9226.642 0 1.245.1667 1.807.5001.117.0747.204.1322.26.1725.061.0402.117.0977.166.1724.056.069.084.1438.084.2242 0 .1323-.071.2903-.213.4743-.241.3047-.461.457-.658.457-.118 0-.282-.0661-.492-.1983-.309-.184-.642-.2759-1.001-.2759-.469 0-.886.1552-1.251.4656-.364.3047-.547.7071-.547 1.2073 0 .4944.186.9169.556 1.2676.371.3449.791.5174 1.261.5174.34 0 .646-.0518.917-.1553v-.9399h-.732c-.117 0-.204-.0029-.259-.0086-.05-.0115-.108-.0345-.176-.069-.062-.0402-.105-.1035-.13-.1897-.025-.092-.037-.2156-.037-.3708 0-.1495.012-.2702.037-.3622.031-.092.083-.1552.157-.1897.075-.0345.136-.0546.186-.0603.055-.0115.142-.0173.259-.0173zM140.047 82.7615c0-.1322.003-.23.009-.2932.013-.069.04-.1437.084-.2242.049-.0862.132-.1466.25-.1811.117-.0345.275-.0517.473-.0517.154 0 .284.0143.389.0431.111.0287.191.0632.241.1035.055.0402.096.1006.12.181.031.0748.047.1409.047.1984.006.0517.009.1322.009.2414v3.0181c0 .1323-.006.2329-.019.3018-.006.0633-.034.138-.083.2242-.043.0805-.124.138-.241.1725-.117.0345-.275.0517-.473.0517-.191 0-.346-.0172-.463-.0517-.118-.0345-.201-.0948-.25-.1811-.044-.0862-.071-.1609-.084-.2242-.006-.0632-.009-.1638-.009-.3018v-3.0267zm.806-1.3711c-.191 0-.346-.0173-.463-.0517-.118-.0345-.201-.0949-.25-.1811-.044-.0863-.071-.161-.084-.2242-.006-.069-.009-.1696-.009-.3018 0-.1323.003-.23.009-.2932.013-.069.04-.1438.084-.2242.049-.0863.132-.1466.25-.1811.117-.0345.275-.0518.473-.0518.191 0 .346.0173.463.0518.117.0345.198.0948.241.1811.049.0862.077.1638.083.2328.013.0632.019.161.019.2932s-.006.2328-.019.3018c-.006.0632-.034.138-.083.2242-.043.0805-.124.138-.241.1725-.117.0344-.275.0517-.473.0517zM148.999 83.5289l-.603-.0345v1.19c0 .1553.025.2674.075.3363.055.069.151.1035.287.1035.154 0 .269.0058.343.0173.08.0057.161.0316.241.0776.086.0402.145.1063.176.1983s.046.2185.046.3794c0 .1782-.021.322-.065.4312-.037.1092-.102.1868-.194.2328-.093.0403-.176.0661-.25.0776-.068.0058-.17.0086-.306.0086-.606 0-1.085-.158-1.437-.4742-.352-.3162-.528-.7502-.528-1.3021v-1.2763c-.334.0173-.618.0259-.853.0259l-.899-.0345v2.311c0 .1265-.006.2242-.018.2932-.013.069-.044.1466-.093.2328-.043.0805-.127.138-.25.1725-.118.0345-.272.0517-.464.0517-.191 0-.346-.0172-.463-.0517-.111-.0402-.192-.1006-.241-.1811-.05-.0862-.08-.1638-.093-.2328-.006-.069-.009-.1696-.009-.3018v-2.2852c-.124.0173-.235.0259-.334.0259-.167 0-.296-.0489-.389-.1466-.087-.0977-.13-.3018-.13-.6122 0-.161.016-.2932.047-.3967.03-.1092.074-.1868.129-.2328.062-.046.121-.0747.176-.0862.056-.0173.121-.0259.195-.0259l.306.0345v-.4571c0-.4426.17-.8421.51-1.1986.339-.3621.831-.5432 1.473-.5432.142 0 .247.0057.315.0172.075.0058.158.0316.251.0776.092.0403.157.115.194.2242.037.1093.056.2558.056.4398 0 .1437-.016.2673-.046.3708-.031.0977-.068.1725-.112.2242-.043.046-.108.0834-.194.1121-.081.023-.152.0374-.213.0431h-.26c-.229 0-.343.0719-.343.2156v.4743c.34-.023.637-.0345.89-.0345l.862.0345v-.8882c0-.1322.003-.23.009-.2932.012-.0632.04-.1322.083-.207.05-.0804.133-.1351.251-.1638.117-.0345.275-.0517.472-.0517.155 0 .282.0143.38.0431.105.0287.186.0632.241.1035.056.0345.096.0919.121.1724.031.0748.046.1409.046.1984.006.0574.009.1379.009.2414v.8451c.272-.023.476-.0345.612-.0345.142 0 .247.0057.315.0172.074.0058.155.0316.241.0776.093.0403.158.115.195.2242.037.1093.056.2559.056.4398 0 .1782-.019.322-.056.4312-.037.1092-.102.1868-.195.2328-.092.0402-.176.0661-.25.0776-.068.0058-.173.0086-.315.0086zM153.535 84.9086c.204-.1207.359-.181.464-.181.185 0 .411.1523.676.457.142.1667.213.3162.213.4484 0 .2184-.17.4225-.509.6122-.353.23-.785.345-1.298.345-.278 0-.562-.0489-.853-.1466-.284-.1035-.553-.2472-.806-.4312-.253-.184-.46-.4283-.621-.733-.161-.3104-.241-.6524-.241-1.0261 0-.3679.08-.7014.241-1.0003.161-.3047.365-.549.612-.733.253-.1839.522-.3248.806-.4225.291-.0977.572-.1466.844-.1466.234 0 .463.0316.685.0949.223.0574.387.1149.492.1724l.148.0862c.111.069.195.1236.25.1639.062.0402.118.0977.167.1725.056.0689.083.1465.083.2328 0 .1379-.064.2989-.194.4829-.223.3162-.436.4742-.64.4742-.117 0-.284-.0632-.5-.1897-.111-.0977-.275-.1466-.491-.1466-.198 0-.387.069-.566.207-.179.138-.269.3277-.269.5691 0 .2472.087.4398.26.5778.173.1322.358.1983.556.1983.099 0 .188-.0115.269-.0345.08-.023.136-.046.167-.069l.055-.0345zM159.834 82.0026c.191 0 .346.0173.463.0518.118.0345.198.0948.241.1811.05.0862.078.1638.084.2328.012.0632.018.161.018.2932v3.0181c0 .1322-.006.2328-.018.3018-.006.0632-.034.138-.084.2242-.043.0805-.123.138-.241.1725-.117.0345-.275.0517-.472.0517-.278 0-.476-.0374-.593-.1121-.112-.0805-.177-.1955-.195-.3449-.229.3047-.599.457-1.112.457-.556 0-1.063-.2271-1.52-.6812-.458-.4542-.686-.9859-.686-1.5953 0-.5921.228-1.1124.686-1.5608.463-.4542.97-.6812 1.52-.6812.21 0 .401.0345.574.1034.173.069.294.1351.362.1984.068.0575.123.1149.167.1724.018-.1609.083-.2817.194-.3621.118-.0805.322-.1208.612-.1208zm-1.659 3.0181c.222 0 .408-.0776.556-.2328.154-.1552.232-.3277.232-.5174 0-.1839-.074-.3564-.223-.5174-.142-.1609-.336-.2414-.584-.2414-.241 0-.438.0805-.593.2414-.148.161-.222.3363-.222.5261 0 .1897.08.3621.241.5173.16.1495.358.2242.593.2242zM165.476 82.5373c0 .2472-.059.48-.177.6984-.117.2185-.287.3277-.509.3277-.112 0-.22-.023-.325-.069-.099-.0459-.201-.0689-.306-.0689-.228 0-.417.0546-.565.1638-.142.1092-.213.2414-.213.3967v1.8108c0 .1323-.006.2329-.019.3018-.006.0633-.034.138-.083.2242-.049.0805-.133.138-.25.1725-.118.0345-.275.0517-.473.0517-.154 0-.287-.0143-.398-.0431-.106-.0287-.186-.0632-.241-.1034-.05-.0403-.09-.0978-.121-.1725-.025-.0805-.04-.1466-.046-.1983V82.7529c0-.1323.003-.23.009-.2932.012-.069.04-.1438.083-.2242.05-.0863.133-.1466.251-.1811.117-.0345.275-.0518.472-.0518.186 0 .337.0173.454.0518.118.0345.198.0833.241.1466.044.0575.071.1063.084.1466.012.0402.018.0862.018.1379.031-.0402.075-.0891.13-.1466.062-.0574.189-.1351.38-.2328.192-.0977.386-.1466.584-.1466.093 0 .188.0086.287.0259.099.0115.207.0345.325.069.117.0345.213.0948.287.1811.08.0804.121.181.121.3018zM170.07 79.8813c.192 0 .346.0173.464.0518.117.0345.197.0948.241.1811.049.0862.077.1638.083.2328.012.0632.019.161.019.2932v5.148c0 .1322-.007.2328-.019.3018-.006.0633-.034.138-.083.2242-.05.0805-.133.138-.251.1725-.117.0345-.275.0517-.472.0517-.47 0-.729-.1408-.779-.4225-.259.2759-.621.4139-1.084.4139-.556 0-1.063-.2242-1.52-.6726-.457-.4542-.686-.9888-.686-1.6039 0-.5864.229-1.1067.686-1.5608.463-.4542.97-.6812 1.52-.6812.457 0 .812.1437 1.066.4311v-1.8108c0-.1323.003-.23.009-.2932.012-.069.04-.1438.083-.2242.05-.0863.133-.1466.251-.1811.117-.0345.275-.0518.472-.0518zm-2.224 4.9152c.161.1553.355.2329.584.2329.228 0 .417-.0776.565-.2329.155-.1552.232-.3276.232-.5173 0-.184-.074-.3565-.223-.5174-.142-.161-.336-.2415-.583-.2415-.248 0-.445.0805-.594.2415-.148.1552-.222.3276-.222.5174 0 .1897.08.3621.241.5173z" fill="#fff"/></g><g filter="url(#filter6_d)"><circle cx="364.893" cy="42.0481" r="18.3001" fill="#FF6B00"/><circle cx="364.893" cy="42.0481" r="18.3001" fill="url(#pattern9)" fill-opacity=".64"/><path d="M372.518 34.5196c0-.1645-.036-.3269-.107-.4755-.07-.1486-.173-.2798-.3-.384-.127-.1043-.276-.179-.435-.2188-.16-.0398-.326-.0438-.488-.0115l-11.119 2.224c-.252.0504-.479.1865-.642.3852-.163.1986-.252.4476-.253.7046v10.135c-.364-.0849-.737-.1275-1.111-.1268-1.843 0-3.336.9953-3.336 2.2241 0 1.2288 1.493 2.2241 3.336 2.2241 1.842 0 3.335-.9953 3.335-2.2241v-9.0964l8.896-1.7792v6.5543c-.364-.085-.737-.1275-1.112-.1268-1.842 0-3.336.9953-3.336 2.224 0 1.2288 1.494 2.2241 3.336 2.2241 1.843 0 3.336-.9953 3.336-2.2241V34.5196z" fill="#fff"/></g><g filter="url(#filter7_d)"><circle cx="394.202" cy="158.647" r="15.7584" fill="#32851D"/><circle cx="394.202" cy="158.647" r="15.7584" fill="url(#pattern10)" fill-opacity=".64"/></g><path d="M386.637 152.029c0-.25.099-.491.277-.668.177-.177.417-.277.668-.277h2.036c.224 0 .44.08.611.224.171.145.284.346.321.566l.7 4.194c.033.199.002.405-.09.585-.092.18-.24.327-.421.417l-1.463.731c.524 1.301 1.306 2.482 2.298 3.474s2.173 1.773 3.474 2.298l.732-1.463c.09-.182.236-.329.416-.421.181-.092.385-.123.585-.09l4.193.7c.221.036.422.15.566.321.145.171.225.387.225.611v2.036c0 .25-.1.491-.277.668-.177.177-.418.277-.669.277h-1.891c-6.788 0-12.291-5.503-12.291-12.292v-1.891z" fill="#fff"/><path d="M117.842 251.673l187.322-123.017v123.017H117.842z" fill="#FBFBFB"/><path d="M274.351 209.99h20.88v2.132h-20.88v-2.132zM253.425 226.047h15.074v2.132h-15.074v-2.132z" fill="#E0E0E0"/><path d="M241.072 226.047h10.007v2.132h-10.007v-2.132z" fill="#1487E3"/><path d="M214.938 226.047h24.154v2.132h-24.154v-2.132z" fill="#E0E0E0"/><path d="M255.458 209.99h14.827v2.132h-14.827v-2.132z" fill="#78C2FF"/><path d="M255.459 234.074h14.827v2.132h-14.827v-2.132z" fill="#1487E3"/><path d="M280.226 226.047h14.827v2.132h-14.827v-2.132zM273.918 234.074h21.135v2.132h-21.135v-2.132zM181.196 209.99h14.827v2.132h-14.827v-2.132zM166.66 209.99h9.925v2.132h-9.925v-2.132zM133.09 218.02h9.925v2.131h-9.925v-2.131z" fill="#78C2FF"/><path d="M232.583 209.99h18.885v2.132h-18.885v-2.132zM158.993 218.02h18.885v2.131h-18.885v-2.131zM182.16 226.047h18.885v2.132H182.16v-2.132zM206.748 234.074h18.885v2.132h-18.885v-2.132z" fill="#1487E3"/><path d="M166.346 226.047h13.429v2.132h-13.429v-2.132z" fill="#78C2FF"/><path d="M199.73 209.99h18.885v2.132H199.73v-2.132zM229.086 234.074h11.075v2.132h-11.075v-2.132z" fill="#FF8761"/><path d="M222.18 209.99h6.913v2.132h-6.913v-2.132zM244.555 234.074h6.913v2.132h-6.913v-2.132zM147.522 218.02h6.913v2.131h-6.913v-2.131z" fill="#E0E0E0"/><path d="M284.418 218.02h10.813v2.131h-10.813v-2.131zM278.266 218.02h3.49v2.131h-3.49v-2.131z" fill="#1487E3"/><path d="M181.205 218.02h28.861v2.131h-28.861v-2.131z" fill="#E0E0E0"/><path d="M272.139 218.02h3.565v2.131h-3.565v-2.131z" fill="#FF8761"/><path d="M212.726 218.02h9.446v2.131h-9.446v-2.131z" fill="#1487E3"/><path d="M203.287 226.047h9.446v2.132h-9.446v-2.132z" fill="#FF8761"/><path d="M224.676 218.02h20.095v2.131h-20.095v-2.131z" fill="#1487E3"/><path d="M247.619 218.02h6.913v2.131h-6.913v-2.131z" fill="#78C2FF"/><path d="M270.892 226.047h6.913v2.132h-6.913v-2.132z" fill="#FF8761"/><path d="M257.17 218.02h12.047v2.131H257.17v-2.131z" fill="#1487E3"/><path d="M292.708 138.316h-83.367c-1.123 0-2.033.911-2.033 2.034v24.908c0 1.123.91 2.034 2.033 2.034h83.367c1.123 0 2.033-.911 2.033-2.034V140.35c0-1.123-.91-2.034-2.033-2.034z" fill="#6BB5F3"/><path d="M308.034 198.041s-12.33 1.036-12.76 4.315c-.431 3.279.517 9.059 12.157 10.18h12.056s-3.607-10.008-3.434-10.354c.172-.345-8.019-4.141-8.019-4.141z" fill="#F2C6A7"/><path d="M288.253 246.95c-1.67.886-2.252 2.998-1.302 4.635 5.673 9.791 28.234 48.705 30.268 51.871 2.327 3.624 8.018 12.166 26.9 16.566 18.883 4.4 26.642 17.083 26.642 17.083h58.199s-13.71-21.742-25.09-78.168c0 0-8.795-46.849-25.35-45.297 0 0-10.088-10.612-19.917-8.54 0 0-18.623-11.131-29.228-11.131l-25.474-30.126c-2.521-2.982-6.965-3.566-10.065-1.193-.997.763-1.758 1.773-1.968 3.105-.776 4.917 5.691 17.343 16.037 32.355 10.345 15.012 35.954 62.637 24.831 83.603 0 0-11.381-8.54-21.21-22.259-8.23-11.487-17.911-15.35-23.273-12.504z" fill="#F9D4B9"/><path d="M288.253 246.95c-1.67.886-2.252 2.998-1.302 4.635 5.673 9.791 28.234 48.705 30.268 51.871 2.327 3.624 8.018 12.166 26.9 16.566 18.883 4.4 26.642 17.083 26.642 17.083h58.199s-13.71-21.742-25.09-78.168c0 0-8.795-46.849-25.35-45.297 0 0-10.088-10.612-19.917-8.54 0 0-18.623-11.131-29.228-11.131l-25.474-30.126c-2.521-2.982-6.965-3.566-10.065-1.193-.997.763-1.758 1.773-1.968 3.105-.776 4.917 5.691 17.343 16.037 32.355 10.345 15.012 35.954 62.637 24.831 83.603 0 0-11.381-8.54-21.21-22.259-8.23-11.487-17.911-15.35-23.273-12.504z" fill="url(#pattern11)" fill-opacity=".08"/><path d="M329.468 193.98c3.38 2.896 6.547 6.037 9.541 9.336 1.507 1.641 2.944 3.346 4.361 5.066 1.407 1.73 2.758 3.507 4.067 5.316.653.904 1.274 1.833 1.904 2.755.607.939 1.233 1.863 1.806 2.825 1.158 1.91 2.275 3.852 3.244 5.87l.371.752c.121.253.232.509.349.763.228.512.472 1.014.681 1.535l.624 1.557c.202.522.383 1.052.57 1.579.19.525.342 1.065.501 1.602l.238.804c.084.266.138.542.207.812l.198.814c.066.271.138.54.181.818l.283 1.647-.075.015c-.458-2.171-1.122-4.293-1.914-6.364-.784-2.075-1.735-4.084-2.757-6.053-.502-.99-1.055-1.951-1.597-2.918-.568-.952-1.124-1.914-1.724-2.846-.582-.944-1.204-1.863-1.814-2.79-.631-.912-1.253-1.83-1.907-2.726-2.577-3.612-5.36-7.075-8.26-10.433-1.453-1.677-2.941-3.323-4.461-4.94-1.522-1.615-3.069-3.207-4.671-4.741l.054-.055zM358.437 205.02c2.751 1.408 5.203 3.372 7.371 5.593 1.095 1.104 2.089 2.304 3.034 3.541.936 1.246 1.774 2.562 2.55 3.915 1.532 2.714 2.708 5.629 3.497 8.634.179.757.389 1.503.515 2.27.069.382.146.761.208 1.142l.161 1.15.072.576c.021.193.033.386.049.578l.094 1.154c.059.768.059 1.541.07 2.309l-.077.007c-.254-3.051-.812-6.078-1.678-9.014-.449-1.462-.946-2.911-1.558-4.314-.285-.711-.63-1.394-.949-2.088-.353-.678-.692-1.364-1.08-2.024-1.489-2.671-3.301-5.161-5.359-7.423-1.032-1.129-2.126-2.202-3.282-3.203-1.161-.993-2.372-1.94-3.676-2.736l.038-.067zM378.323 213.424c1.694 1.282 3.101 2.903 4.345 4.621l.465.647c.153.218.287.448.43.671.281.452.577.895.83 1.362.133.23.256.467.384.7.123.234.261.462.372.705l.692 1.438c.117.24.21.489.31.735l.295.74.296.741c.095.247.175.5.255.755l.484 1.518c.145.51.263 1.029.386 1.544.28 1.022.405 2.081.579 3.122l.055.392.033.395c.022.265.046.527.061.791l.049.79.033.789-.077.012-.268-1.545-.132-.773-.068-.385-.088-.383-.356-1.526c-.064-.253-.11-.51-.187-.762l-.221-.751c-.15-.501-.292-1.003-.445-1.502l-.523-1.477c-.09-.246-.169-.494-.267-.737l-.301-.724-.3-.723c-.1-.242-.195-.485-.313-.718l-.663-1.419c-.228-.47-.482-.926-.721-1.39-.235-.468-.512-.911-.773-1.363-.134-.224-.259-.452-.4-.672l-.425-.659c-1.14-1.747-2.402-3.43-3.883-4.898l.057-.061z" fill="#AB7650"/><path opacity=".4" d="M299.999 258.997c.516-2.621-2.536-6.776-5.304-9.911-1.729-1.958-4.458-2.69-6.859-1.871-1.342.995-1.75 2.877-.888 4.368 1.526 2.63 4.27 7.365 7.507 12.944 2.424-1.235 5.066-3.104 5.544-5.53zM302.445 175.668c1.471-.296 8.148-2.516 7.738-3.734l-6.585-7.787c-1.307-1.546-3.132-2.446-5.019-2.625-.009-.001-.021-.001-.031-.003-.054-.005-.174-.013-.342-.013-.883.002-3.058.253-3.535 2.644-.472 2.363 3.436 8.104 5.16 10.492.595.825 1.617 1.226 2.614 1.026z" fill="#FF5B7E"/><path opacity=".2" d="M370.761 337.105h58.199s-8.988-14.255-18.451-49.636c-4.153 26.05-27.063 24.549-36.154 25.995-10.469 1.664-51.106-6.815-56.798-9.485 2.532 3.867 8.535 11.843 26.563 16.044 18.88 4.4 26.641 17.082 26.641 17.082zM310.983 202.834c11.412 18.347 31.884 60.493 21.755 78.88l6.722 6.641s16.987-18.831-10.044-60.357c-6.289-9.663-12.541-18.023-18.433-25.164z" fill="#F9D4B9"/><path fill-rule="evenodd" clip-rule="evenodd" d="M125.468 160.588c0-.564.224-1.106.623-1.505l10.12-10.125c1.141-1.141 2.986-1.141 4.127 0l2.654 2.655c1.14 1.141 2.985 1.141 4.126 0 1.141-1.141 2.986-1.141 4.126 0l3.889 3.891c1.141 1.141 2.985 1.141 4.126 0l11.752-11.757c1.14-1.142 2.985-1.142 4.126 0l5.529 5.531c1.141 1.142 2.986 1.142 4.127 0l2.032-2.033c1.141-1.141 2.986-1.141 4.126 0l6.546 6.549c.75.75 1.171 1.767 1.171 2.827v2.095c0 2.209-1.791 4-4 4h-67.072c-1.176 0-2.128-.953-2.128-2.128z" fill="#7EABDF"/><path fill-rule="evenodd" clip-rule="evenodd" d="M125.468 160.588c0-.564.224-1.106.623-1.505l10.12-10.125c1.141-1.141 2.986-1.141 4.127 0l2.654 2.655c1.14 1.141 2.985 1.141 4.126 0 1.141-1.141 2.986-1.141 4.126 0l3.889 3.891c1.141 1.141 2.985 1.141 4.126 0l11.752-11.757c1.14-1.142 2.985-1.142 4.126 0l5.529 5.531c1.141 1.142 2.986 1.142 4.127 0l2.032-2.033c1.141-1.141 2.986-1.141 4.126 0l6.546 6.549c.75.75 1.171 1.767 1.171 2.827v2.095c0 2.209-1.791 4-4 4h-67.072c-1.176 0-2.128-.953-2.128-2.128z" fill="url(#pattern12)" fill-opacity=".16"/><path d="M238.316 149.5c0-.843.683-1.525 1.525-1.525h28.467c.842 0 1.525.682 1.525 1.525 0 .842-.683 1.525-1.525 1.525h-28.467c-.842 0-1.525-.683-1.525-1.525zM238.316 157.125c0-.843.683-1.525 1.525-1.525h44.226c.842 0 1.525.682 1.525 1.525 0 .842-.683 1.525-1.525 1.525h-44.226c-.842 0-1.525-.683-1.525-1.525z" fill="#D8ECFF"/><circle cx="225.101" cy="153.055" r="8.13337" fill="#376B9B"/><path d="M222.612 156.126c.195-.123.441-.116.638.005.053.033.109.064.164.094.057.031.112.058.169.086.208.099.348.3.355.531l.024.79 2.557-.08-.025-.795c-.006-.231.122-.441.322-.55.109-.061.215-.127.317-.197.191-.133.436-.155.641-.044l.691.373 1.21-2.271-.691-.373c-.205-.11-.322-.329-.317-.561.002-.126-.002-.251-.013-.375-.019-.231.083-.454.277-.575l.671-.419-1.345-2.192-.67.417c-.192.12-.434.12-.626 0-.057-.034-.114-.067-.172-.098-.059-.031-.119-.062-.178-.09-.205-.097-.34-.3-.346-.529l-.026-.791-2.557.081.025.787c.006.228-.111.441-.309.55-.119.066-.235.138-.347.216-.184.131-.426.141-.624.035l-.692-.374-1.21 2.271.69.373c.205.11.322.329.317.564-.003.126.002.25.012.376.019.231-.083.454-.279.576l-.67.418 1.349 2.189.668-.418zm.527-3.816c.494-1.3 2.059-1.775 3.186-.967.768.548 1.073 1.576.737 2.46-.496 1.298-2.056 1.773-3.183.968-.768-.549-1.077-1.575-.74-2.461z" fill="#FBFBFB"/><path d="M126.484 174.405c0-.561.456-1.016 1.017-1.016h74.725c.562 0 1.017.455 1.017 1.016v3.05c0 .562-.455 1.017-1.017 1.017h-74.725c-.561 0-1.017-.455-1.017-1.017v-3.05z" fill="#FF8761"/><path d="M207.308 174.405c0-.561.455-1.016 1.016-1.016h24.909c.561 0 1.016.455 1.016 1.016v3.05c0 .562-.455 1.017-1.016 1.017h-24.909c-.561 0-1.016-.455-1.016-1.017v-3.05zM237.301 174.405c0-.561.455-1.016 1.016-1.016h24.909c.561 0 1.017.455 1.017 1.016v3.05c0 .562-.456 1.017-1.017 1.017h-24.909c-.561 0-1.016-.455-1.016-1.017v-3.05zM267.293 174.405c0-.561.455-1.016 1.017-1.016h24.908c.562 0 1.017.455 1.017 1.016v3.05c0 .562-.455 1.017-1.017 1.017H268.31c-.562 0-1.017-.455-1.017-1.017v-3.05z" fill="#D8ECFF"/><path d="M26.1394 21.4492s-.7537 7.5298-6.613 8.0506c5.8593.5209 6.613 8.0507 6.613 8.0507s.7537-7.5298 6.613-8.0507c-5.8606-.5221-6.613-8.0506-6.613-8.0506zM323.116 7.07422s-.716 7.06608-6.29 7.55438c5.574.4883 6.29 7.5543 6.29 7.5543s.716-7.066 6.289-7.5543c-5.573-.4883-6.289-7.55438-6.289-7.55438zM297.272 27.7754s-.524 5.3788-4.6 5.7504c4.076.3717 4.6 5.7505 4.6 5.7505s.524-5.3788 4.601-5.7505c-4.077-.3716-4.601-5.7504-4.601-5.7504z" fill="#fff"/><path d="M337.526 77.5158h28.178V65.1523M283.472 76.6543h-26.164v40.5407M118.429 58.224h54.634V40.9609h37.435M341.265 159.75h32.777" stroke="#fff" stroke-width="4" stroke-linecap="round" stroke-linejoin="round" stroke-dasharray="12 12"/></g><defs><pattern id="pattern0" patternContentUnits="objectBoundingBox" width="1" height="1"><use xlink:href="#image0" transform="translate(0 -.00332974) scale(.00025)"/></pattern><pattern id="pattern1" patternContentUnits="objectBoundingBox" width="1" height="1"><use xlink:href="#image0" transform="matrix(.00025 0 0 .00046 0 -.162656)"/></pattern><pattern id="pattern2" patternContentUnits="objectBoundingBox" width="1" height="1"><use xlink:href="#image0" transform="matrix(.00068 0 0 .00034 -.857412 0)"/></pattern><pattern id="pattern3" patternContentUnits="objectBoundingBox" width="1" height="1"><use xlink:href="#image0" transform="matrix(.0003 0 0 .0005 -.117301 -.271871)"/></pattern><pattern id="pattern4" patternContentUnits="objectBoundingBox" width="1" height="1"><use xlink:href="#image0" transform="matrix(.00025 0 0 .00036 0 -.019904)"/></pattern><pattern id="pattern5" patternContentUnits="objectBoundingBox" width="1" height="1"><use xlink:href="#image0" transform="matrix(.00051 0 0 .00051 -.339333 -.499413)"/></pattern><pattern id="pattern6" patternContentUnits="objectBoundingBox" width="1" height="1"><use xlink:href="#image0" transform="matrix(.0004 0 0 .0004 -.18694 -.152778)"/></pattern><pattern id="pattern7" patternContentUnits="objectBoundingBox" width="1" height="1"><use xlink:href="#image0" transform="matrix(.00049 0 0 .00049 -.318389 -.326437)"/></pattern><pattern id="pattern8" patternContentUnits="objectBoundingBox" width="1" height="1"><use xlink:href="#image0" transform="matrix(.00036 0 0 .001 -.15174 -1.38483)"/></pattern><pattern id="pattern9" patternContentUnits="objectBoundingBox" width="1" height="1"><use xlink:href="#image0" transform="matrix(.0004 0 0 .0004 -.18694 -.152778)"/></pattern><pattern id="pattern10" patternContentUnits="objectBoundingBox" width="1" height="1"><use xlink:href="#image0" transform="matrix(.0004 0 0 .0004 -.18694 -.152778)"/></pattern><pattern id="pattern11" patternContentUnits="objectBoundingBox" width="1" height="1"><use xlink:href="#image0" transform="matrix(.00043 0 0 .00043 -.348265 0)"/></pattern><pattern id="pattern12" patternContentUnits="objectBoundingBox" width="1" height="1"><use xlink:href="#image0" transform="matrix(.00025 0 0 .00093 0 -.843752)"/></pattern><filter id="filter0_d" x="348.186" y="85.5117" width="69.8553" height="52.6041" filterUnits="userSpaceOnUse" color-interpolation-filters="sRGB"><feFlood flood-opacity="0" result="BackgroundImageFix"/><feColorMatrix in="SourceAlpha" values="0 0 0 0 0 0 0 0 0 0 0 0 0 0 0 0 0 0 127 0"/><feOffset dx="4" dy="4"/><feGaussianBlur stdDeviation="4"/><feColorMatrix values="0 0 0 0 0 0 0 0 0 0 0 0 0 0 0 0 0 0 0.32 0"/><feBlend in2="BackgroundImageFix" result="effect1_dropShadow"/><feBlend in="SourceGraphic" in2="effect1_dropShadow" result="shape"/></filter><filter id="filter1_d" x="11.667" y="90.5957" width="66.8336" height="51.5835" filterUnits="userSpaceOnUse" color-interpolation-filters="sRGB"><feFlood flood-opacity="0" result="BackgroundImageFix"/><feColorMatrix in="SourceAlpha" values="0 0 0 0 0 0 0 0 0 0 0 0 0 0 0 0 0 0 127 0"/><feOffset dx="4" dy="4"/><feGaussianBlur stdDeviation="4"/><feColorMatrix values="0 0 0 0 0 0 0 0 0 0 0 0 0 0 0 0 0 0 0.32 0"/><feBlend in2="BackgroundImageFix" result="effect1_dropShadow"/><feBlend in="SourceGraphic" in2="effect1_dropShadow" result="shape"/></filter><filter id="filter2_d" x="59.959" y="29.0488" width="66.8336" height="66.1727" filterUnits="userSpaceOnUse" color-interpolation-filters="sRGB"><feFlood flood-opacity="0" result="BackgroundImageFix"/><feColorMatrix in="SourceAlpha" values="0 0 0 0 0 0 0 0 0 0 0 0 0 0 0 0 0 0 127 0"/><feOffset dx="4" dy="4"/><feGaussianBlur stdDeviation="4"/><feColorMatrix values="0 0 0 0 0 0 0 0 0 0 0 0 0 0 0 0 0 0 0.32 0"/><feBlend in2="BackgroundImageFix" result="effect1_dropShadow"/><feBlend in="SourceGraphic" in2="effect1_dropShadow" result="shape"/></filter><filter id="filter3_d" x="211.613" y="18.0234" width="50.8843" height="50.8843" filterUnits="userSpaceOnUse" color-interpolation-filters="sRGB"><feFlood flood-opacity="0" result="BackgroundImageFix"/><feColorMatrix in="SourceAlpha" values="0 0 0 0 0 0 0 0 0 0 0 0 0 0 0 0 0 0 127 0"/><feOffset dx="4" dy="4"/><feGaussianBlur stdDeviation="4"/><feColorMatrix values="0 0 0 0 0 0 0 0 0 0 0 0 0 0 0 0 0 0 0.32 0"/><feBlend in2="BackgroundImageFix" result="effect1_dropShadow"/><feBlend in="SourceGraphic" in2="effect1_dropShadow" result="shape"/></filter><filter id="filter4_d" x="282.609" y="49.9297" width="61.7502" height="61.7502" filterUnits="userSpaceOnUse" color-interpolation-filters="sRGB"><feFlood flood-opacity="0" result="BackgroundImageFix"/><feColorMatrix in="SourceAlpha" values="0 0 0 0 0 0 0 0 0 0 0 0 0 0 0 0 0 0 127 0"/><feOffset dx="4" dy="4"/><feGaussianBlur stdDeviation="4"/><feColorMatrix values="0 0 0 0 0 0 0 0 0 0 0 0 0 0 0 0 0 0 0.32 0"/><feBlend in2="BackgroundImageFix" result="effect1_dropShadow"/><feBlend in="SourceGraphic" in2="effect1_dropShadow" result="shape"/></filter><filter id="filter5_d" x="102.15" y="66.1992" width="90.217" height="42.4335" filterUnits="userSpaceOnUse" color-interpolation-filters="sRGB"><feFlood flood-opacity="0" result="BackgroundImageFix"/><feColorMatrix in="SourceAlpha" values="0 0 0 0 0 0 0 0 0 0 0 0 0 0 0 0 0 0 127 0"/><feOffset dx="4" dy="4"/><feGaussianBlur stdDeviation="4"/><feColorMatrix values="0 0 0 0 0 0 0 0 0 0 0 0 0 0 0 0 0 0 0.32 0"/><feBlend in2="BackgroundImageFix" result="effect1_dropShadow"/><feBlend in="SourceGraphic" in2="effect1_dropShadow" result="shape"/></filter><filter id="filter6_d" x="342.593" y="19.748" width="52.6002" height="52.6002" filterUnits="userSpaceOnUse" color-interpolation-filters="sRGB"><feFlood flood-opacity="0" result="BackgroundImageFix"/><feColorMatrix in="SourceAlpha" values="0 0 0 0 0 0 0 0 0 0 0 0 0 0 0 0 0 0 127 0"/><feOffset dx="4" dy="4"/><feGaussianBlur stdDeviation="4"/><feColorMatrix values="0 0 0 0 0 0 0 0 0 0 0 0 0 0 0 0 0 0 0.32 0"/><feBlend in2="BackgroundImageFix" result="effect1_dropShadow"/><feBlend in="SourceGraphic" in2="effect1_dropShadow" result="shape"/></filter><filter id="filter7_d" x="374.443" y="138.889" width="47.5168" height="47.5168" filterUnits="userSpaceOnUse" color-interpolation-filters="sRGB"><feFlood flood-opacity="0" result="BackgroundImageFix"/><feColorMatrix in="SourceAlpha" values="0 0 0 0 0 0 0 0 0 0 0 0 0 0 0 0 0 0 127 0"/><feOffset dx="4" dy="4"/><feGaussianBlur stdDeviation="4"/><feColorMatrix values="0 0 0 0 0 0 0 0 0 0 0 0 0 0 0 0 0 0 0.32 0"/><feBlend in2="BackgroundImageFix" result="effect1_dropShadow"/><feBlend in="SourceGraphic" in2="effect1_dropShadow" result="shape"/></filter><clipPath id="clip0"><path fill="#fff" d="M0 0h438v331H0z"/></clipPath></defs></svg>