<svg width="363" height="213" fill="none" xmlns="http://www.w3.org/2000/svg" xmlns:xlink="http://www.w3.org/1999/xlink"><path d="M25.957 12c0-6.62742 5.3726-12 12-12h298.936c6.627 0 12 5.37258 12 12v191.075H25.957V12z" fill="#02153C"/><path d="M25.957 12c0-6.62742 5.3726-12 12-12h298.936c6.627 0 12 5.37258 12 12v191.075H25.957V12z" fill="url(#pattern0)"/><path d="M42.7529 58.0215H332.097V169.118c0 4.419-3.582 8-8 8H50.7529c-4.4182 0-8-3.581-8-8V58.0215z" fill="#6D81A9"/><path d="M42.7529 24.7949c0-4.4183 3.5818-8 8-8H324.097c4.418 0 8 3.5817 8 8v33.2258H42.7529V24.7949z" fill="#233353"/><circle cx="271.404" cy="37.7904" r="11.8333" fill="#C6C6C6"/><circle cx="271.404" cy="37.7904" r="11.8333" fill="url(#pattern1)" fill-opacity=".4"/><circle cx="307.285" cy="37.7904" r="11.8333" fill="#DE4B4B"/><circle cx="307.285" cy="37.7904" r="11.8333" fill="url(#pattern2)" fill-opacity=".4"/><rect x="85.5059" y="80.9238" width="204.602" height="13.7419" rx="6.87097" fill="#233353"/><rect x="85.5059" y="110.697" width="204.602" height="13.7419" rx="6.87097" fill="#233353"/><rect x="85.5059" y="140.473" width="204.602" height="13.7419" rx="6.87097" fill="#233353"/><path d="M42.7529 25.957H178.239c4.418 0 8 3.5818 8 8v26.794c0 4.4183-3.582 8-8 8H42.7529V25.957z" fill="#fff"/><path d="M0 33.957c0-4.4182 3.58172-8 8-8h34.794v42.794H8c-4.41828 0-8-3.5817-8-8V33.957z" fill="#7FC650"/><path d="M0 33.957c0-4.4182 3.58172-8 8-8h34.794v42.794H8c-4.41828 0-8-3.5817-8-8V33.957z" fill="url(#pattern3)" fill-opacity=".32"/><path d="M31.0352 45.3406h-1.796v-5.2863c0-3.8767-3.2328-7.0484-7.184-7.0484-3.9511 0-7.1839 3.1717-7.1839 7.0484v5.2863h-1.796c-.898 0-1.796.881-1.796 1.7621v12.3347c0 .8811.898 1.7621 1.796 1.7621h17.9599c.898 0 1.796-.881 1.796-1.7621V47.1027c0-.8811-.898-1.7621-1.796-1.7621zm-7.184 12.3347h-3.592l.7184-3.8766c-.898-.3524-1.6163-1.4097-1.6163-2.2907 0-1.4097 1.2571-2.6432 2.6939-2.6432s2.694 1.2335 2.694 2.6432c0 1.0572-.5388 1.9383-1.6164 2.2907l.7184 3.8766zm1.796-12.3347h-7.1839v-5.2863c0-1.9383 1.6164-3.5242 3.5919-3.5242 1.9756 0 3.592 1.5859 3.592 3.5242v5.2863z" fill="#fff"/><path d="M55.4826 45.6256c.6962-.8354 1.5709-1.2531 2.6243-1.2531 2.1308 0 3.2114 1.238 3.2417 3.7139v6.2927h-2.6243v-6.22c0-.563-.121-.9777-.3632-1.2441-.2421-.2724-.6447-.4086-1.2077-.4086-.7688 0-1.3257.2966-1.6708.8899v6.9828h-2.6242V40.4316h2.6242v5.194zM66.8418 42.1388v2.4153h1.6799v1.9251h-1.6799v4.9034c0 .3632.0696.6235.2089.7809.1392.1574.4056.2361.7991.2361.2905 0 .5478-.0212.7718-.0636v1.9886c-.5146.1574-1.0443.2361-1.5891.2361-1.8403 0-2.7786-.9292-2.8149-2.7877v-5.2938h-1.4347v-1.9251h1.4347v-2.4153h2.6242zM73.4974 42.1388v2.4153h1.6799v1.9251h-1.6799v4.9034c0 .3632.0696.6235.2088.7809.1393.1574.4056.2361.7991.2361.2906 0 .5479-.0212.7719-.0636v1.9886c-.5146.1574-1.0443.2361-1.5891.2361-1.8403 0-2.7786-.9292-2.8149-2.7877v-5.2938h-1.4347v-1.9251h1.4347v-2.4153h2.6242zM85.8554 49.5574c0 1.5134-.345 2.7272-1.0351 3.6413-.6841.908-1.6103 1.362-2.7786 1.362-.9928 0-1.7949-.345-2.4063-1.0351v4.631h-2.6243V44.5541h2.4336l.0908.9626c.6356-.7628 1.465-1.1442 2.488-1.1442 1.2107 0 2.1521.448 2.824 1.3439.672.896 1.0079 2.1309 1.0079 3.7048v.1362zm-2.6242-.1907c0-.914-.1634-1.6193-.4903-2.1157-.3209-.4964-.79-.7446-1.4075-.7446-.8233 0-1.3893.3148-1.698.9444v4.0226c.3208.6477.8929.9716 1.7162.9716 1.2531 0 1.8796-1.0261 1.8796-3.0783zM93.183 51.6641c0-.3209-.1605-.5721-.4813-.7537-.3148-.1877-.8233-.3541-1.5255-.4994-2.3367-.4904-3.505-1.4831-3.505-2.9784 0-.8717.3601-1.5981 1.0805-2.1793.7265-.5872 1.6738-.8808 2.8422-.8808 1.247 0 2.2428.2936 2.9874.8808.7507.5872 1.126 1.35 1.126 2.2883h-2.6242c0-.3753-.1211-.6841-.3632-.9262-.2422-.2482-.6205-.3723-1.1351-.3723-.4419 0-.7839.0999-1.0261.2996-.2421.1998-.3632.4541-.3632.7628 0 .2906.1362.5267.4086.7083.2785.1755.7446.3299 1.3984.4631.6538.1271 1.2047.2724 1.6526.4358 1.3863.5085 2.0794 1.3893 2.0794 2.6424 0 .8959-.3844 1.6224-1.1532 2.1793-.7688.5509-1.7616.8263-2.9783.8263-.8233 0-1.5558-.1453-2.1975-.4358-.6356-.2967-1.135-.6992-1.4983-1.2077-.3632-.5146-.5448-1.0685-.5448-1.6617h2.488c.0243.4661.1968.8233.5176 1.0714.3209.2482.7507.3723 1.2894.3723.5025 0 .8808-.0938 1.1351-.2814.2603-.1938.3905-.445.3905-.7537zM97.9316 53.0897c0-.4177.1393-.7567.4177-1.017.2845-.2603.6387-.3905 1.0624-.3905.4298 0 .7843.1302 1.0623.3905.285.2603.427.5993.427 1.017 0 .4116-.139.7476-.418 1.0079-.278.2543-.6354.3814-1.0713.3814-.4298 0-.7839-.1271-1.0624-.3814-.2784-.2603-.4177-.5963-.4177-1.0079zm0-7.4368c0-.4177.1393-.7567.4177-1.017.2845-.2603.6387-.3905 1.0624-.3905.4298 0 .7843.1302 1.0623.3905.285.2603.427.5993.427 1.017 0 .4116-.139.7476-.418 1.0079-.278.2542-.6354.3814-1.0713.3814-.4298 0-.7839-.1272-1.0624-.3814-.2784-.2603-.4177-.5963-.4177-1.0079zM104.251 55.5142h-1.952l4.867-14.3561h1.952l-4.867 14.3561zM109.327 55.5142h-1.952l4.867-14.3561h1.952l-4.867 14.3561zM124.373 50.8105l1.289-6.2564h2.533l-2.506 9.825h-2.197l-1.862-6.1837-1.861 6.1837h-2.188l-2.507-9.825h2.534l1.28 6.2473 1.798-6.2473h1.898l1.789 6.2564zM138.42 50.8105l1.289-6.2564h2.533l-2.506 9.825h-2.197l-1.862-6.1837-1.861 6.1837h-2.188l-2.507-9.825h2.534l1.28 6.2473 1.798-6.2473h1.898l1.789 6.2564zM152.467 50.8105l1.289-6.2564h2.533l-2.506 9.825h-2.197l-1.862-6.1837-1.861 6.1837h-2.188l-2.507-9.825h2.534l1.28 6.2473 1.798-6.2473h1.898l1.789 6.2564zM156.979 53.0897c0-.4177.139-.7567.418-1.017.284-.2603.639-.3905 1.062-.3905.43 0 .784.1302 1.063.3905.284.2603.427.5993.427 1.017 0 .4116-.14.7476-.418 1.0079-.279.2543-.636.3814-1.072.3814-.429 0-.784-.1271-1.062-.3814-.279-.2603-.418-.5963-.418-1.0079z" fill="#484848"/><path d="M12.2148 209.914c0-8.836 7.1635-16 16-16H346.634c8.837 0 16 7.164 16 16V213H12.2148v-3.086z" fill="#233353"/><ellipse cx="224.685" cy="79.981" rx="25.4268" ry="21.9595" fill="#fff"/><path d="M181.816 57.1154c15.346-.1872 30.103-5.833 41.527-15.8888 11.424 10.0577 26.18 15.7054 41.528 15.894.583 3.3807.88 6.8653.88 10.4071 0 27.1749-17.705 50.2933-42.408 58.8593-24.702-8.571-42.407-31.6896-42.407-58.8645 0-3.547.302-7.0212.88-10.4071zm61.178 19.2851c.965-.9809 1.5-2.2946 1.488-3.6583-.012-1.3637-.57-2.6682-1.553-3.6324-.983-.9643-2.312-1.5113-3.702-1.5232-1.39-.0118-2.729.5124-3.729 1.4598l-17.456 17.1267-6.854-6.7248c-1-.9474-2.339-1.4716-3.729-1.4598-1.389.0119-2.719.5588-3.702 1.5231-.983.9643-1.54 2.2688-1.552 3.6325-.012 1.3636.522 2.6774 1.488 3.6583l10.601 10.4019c.995.975 2.343 1.5228 3.748 1.5228 1.406 0 2.754-.5478 3.748-1.5228l21.204-20.8038z" fill="#7FC650"/><path d="M181.816 57.1154c15.346-.1872 30.103-5.833 41.527-15.8888 11.424 10.0577 26.18 15.7054 41.528 15.894.583 3.3807.88 6.8653.88 10.4071 0 27.1749-17.705 50.2933-42.408 58.8593-24.702-8.571-42.407-31.6896-42.407-58.8645 0-3.547.302-7.0212.88-10.4071zm61.178 19.2851c.965-.9809 1.5-2.2946 1.488-3.6583-.012-1.3637-.57-2.6682-1.553-3.6324-.983-.9643-2.312-1.5113-3.702-1.5232-1.39-.0118-2.729.5124-3.729 1.4598l-17.456 17.1267-6.854-6.7248c-1-.9474-2.339-1.4716-3.729-1.4598-1.389.0119-2.719.5588-3.702 1.5231-.983.9643-1.54 2.2688-1.552 3.6325-.012 1.3636.522 2.6774 1.488 3.6583l10.601 10.4019c.995.975 2.343 1.5228 3.748 1.5228 1.406 0 2.754-.5478 3.748-1.5228l21.204-20.8038z" fill="url(#pattern4)" fill-opacity=".32"/><rect x="183.825" y="118.334" width="69.4731" height="29.0107" rx="8" fill="#0F2003"/><path d="M200.427 138.074c-.38-.453-.57-.828-.57-1.125 0-.425.314-.935.942-1.529.365-.34.73-.51 1.095-.51.453 0 1.008.319 1.665.956l.109.106c.058.071.146.163.263.276.117.113.343.269.679.467.336.184.664.276.985.276 1.358 0 2.037-.538 2.037-1.614 0-.325-.19-.594-.569-.807-.365-.226-.825-.389-1.38-.488-.555-.099-1.154-.255-1.796-.467-.642-.227-1.241-.489-1.796-.786-.555-.297-1.022-.764-1.401-1.401-.365-.652-.548-1.43-.548-2.336 0-1.246.475-2.329 1.424-3.249.963-.934 2.27-1.402 3.92-1.402.876 0 1.671.114 2.387.34.73.213 1.234.432 1.511.658l.438.319.109.085c.453.41.679.75.679 1.019 0 .297-.175.694-.525 1.189-.497.708-1.008 1.062-1.533 1.062-.307 0-.686-.142-1.139-.425-.044-.028-.131-.099-.263-.212-.117-.113-.226-.198-.328-.255-.103-.071-.278-.134-.526-.191-.234-.071-.511-.106-.832-.106-.351 0-.686.113-1.008.34-.306.212-.459.495-.459.849 0 .425.182.757.547.998.38.241.847.404 1.402.488.554.085 1.16.22 1.817.404.657.17 1.263.382 1.818.637.555.255 1.015.701 1.38 1.338.379.623.569 1.401.569 2.336 0 .906-.19 1.713-.569 2.42-.38.694-.876 1.232-1.489 1.614-.599.382-1.22.666-1.862.85-.642.184-1.285.276-1.927.276-.686 0-1.336-.078-1.949-.234-.613-.17-1.117-.368-1.511-.594-.38-.241-.716-.482-1.008-.722-.277-.241-.474-.446-.591-.616l-.197-.234zM213.633 138.074c-.38-.453-.57-.828-.57-1.125 0-.425.314-.935.942-1.529.365-.34.73-.51 1.095-.51.453 0 1.007.319 1.664.956l.11.106c.058.071.146.163.263.276.116.113.343.269.679.467.335.184.664.276.985.276 1.358 0 2.037-.538 2.037-1.614 0-.325-.19-.594-.57-.807-.365-.226-.825-.389-1.379-.488-.555-.099-1.154-.255-1.796-.467-.643-.227-1.241-.489-1.796-.786-.555-.297-1.022-.764-1.402-1.401-.365-.652-.547-1.43-.547-2.336 0-1.246.474-2.329 1.423-3.249.964-.934 2.271-1.402 3.921-1.402.876 0 1.671.114 2.387.34.73.213 1.233.432 1.511.658l.438.319.109.085c.453.41.679.75.679 1.019 0 .297-.175.694-.525 1.189-.497.708-1.008 1.062-1.533 1.062-.307 0-.687-.142-1.139-.425-.044-.028-.132-.099-.263-.212-.117-.113-.226-.198-.329-.255-.102-.071-.277-.134-.525-.191-.234-.071-.511-.106-.832-.106-.351 0-.687.113-1.008.34-.306.212-.46.495-.46.849 0 .425.183.757.548.998.379.241.847.404 1.401.488.555.085 1.161.22 1.818.404.657.17 1.263.382 1.818.637.555.255 1.015.701 1.38 1.338.379.623.569 1.401.569 2.336 0 .906-.19 1.713-.569 2.42-.38.694-.876 1.232-1.49 1.614-.598.382-1.219.666-1.861.85-.643.184-1.285.276-1.927.276-.687 0-1.336-.078-1.949-.234-.614-.17-1.117-.368-1.512-.594-.379-.241-.715-.482-1.007-.722-.277-.241-.474-.446-.591-.616l-.197-.234zM230.474 137.119h5.957c.292 0 .503.014.635.042.146.014.306.064.482.149.175.085.299.24.372.467.073.226.109.531.109.913 0 .368-.036.665-.109.892-.073.226-.204.389-.394.488-.175.085-.336.142-.482.17-.146.014-.358.021-.635.021h-7.884c-.38 0-.694-.035-.942-.106s-.438-.156-.569-.255c-.132-.099-.234-.24-.307-.424-.058-.199-.095-.361-.109-.489V126.565c0-.326.007-.566.022-.722.029-.17.102-.361.219-.573.116-.213.313-.361.591-.446.277-.085.65-.128 1.117-.128.379 0 .693.036.941.106.249.071.438.156.57.255.131.099.226.248.285.446.073.184.109.347.109.489.015.127.022.325.022.594v10.533z" fill="#fff"/><defs><pattern id="pattern0" patternContentUnits="objectBoundingBox" width="1" height="1"><use xlink:href="#image0" transform="matrix(.00025 0 0 .0004 0 -.0787353)"/></pattern><pattern id="pattern1" patternContentUnits="objectBoundingBox" width="1" height="1"><use xlink:href="#image0" transform="matrix(.00044 0 0 .00044 -.18694 -.263085)"/></pattern><pattern id="pattern2" patternContentUnits="objectBoundingBox" width="1" height="1"><use xlink:href="#image0" transform="matrix(.00047 0 0 .00047 -.18694 -.357003)"/></pattern><pattern id="pattern3" patternContentUnits="objectBoundingBox" width="1" height="1"><use xlink:href="#image0" transform="matrix(.00052 0 0 .00052 -.364761 -.466366)"/></pattern><pattern id="pattern4" patternContentUnits="objectBoundingBox" width="1" height="1"><use xlink:href="#image0" transform="matrix(.0005 0 0 .0005 -.202997 -.430309)"/></pattern></defs></svg>